<svg xmlns="http://www.w3.org/2000/svg" width="122" height="47" viewBox="0 0 122 47" fill="none">
  <path d="M62.1811 9.81626C63.0852 10.2369 63.5373 11.0531 63.5373 12.2334C63.5373 14.1578 62.5327 15.0901 60.3761 15.0901H56.0629V4.97876H60.2725C62.1811 4.97876 63.1449 5.8232 63.1449 7.49011C63.1449 8.47896 62.8812 9.1068 62.1811 9.5871V9.81626ZM57.7612 9.07227H60.2097C61.0856 9.07227 61.4654 8.67987 61.4654 7.68788C61.4654 6.81205 61.0573 6.49185 60.1124 6.49185H57.7612V9.07227ZM57.7612 13.5739H60.3259C61.3901 13.5739 61.8578 13.1658 61.8578 12.1016C61.8578 11.097 61.3022 10.5885 60.2097 10.5885H57.7612V13.5739Z" fill="#3B473E"/>
  <path d="M64.5858 4.93481C64.5858 4.16257 64.8181 3.92713 65.5903 3.92713C66.3625 3.92713 66.6262 4.16257 66.6262 4.93481C66.6262 5.70705 66.3908 5.89541 65.5903 5.89541C64.7898 5.89541 64.5858 5.67566 64.5858 4.93481ZM64.7741 15.0901V7.45558H66.4347V15.0901H64.7741Z" fill="#3B473E"/>
  <path d="M72.5154 8.83997H70.2237V12.5568C70.1905 12.9278 70.2883 13.2988 70.5 13.6053C70.6142 13.7183 70.7519 13.805 70.9031 13.8592C71.0544 13.9134 71.2158 13.9339 71.3758 13.9192C71.7794 13.9152 72.1752 13.807 72.5248 13.6053V14.974C72.117 15.2058 71.6532 15.3209 71.1843 15.3067C69.3919 15.3067 68.5631 14.4183 68.5631 12.5411V8.83997H67.3985V7.45558H68.5631V5.47161H70.2237V7.45558H72.5154V8.83997Z" fill="#3B473E"/>
  <path d="M73.2122 11.2571C73.2122 8.47582 74.4051 7.23584 77.1017 7.23584C79.2991 7.23584 80.627 8.25608 80.7589 10.1647H79.1422C79.0543 9.14447 78.3825 8.63592 77.1174 8.63592C75.485 8.63592 74.8729 9.36421 74.8729 11.2728C74.8729 13.1815 75.4411 13.9098 77.1174 13.9098C78.3731 13.9098 79.07 13.3259 79.1704 12.2334H80.7871C80.6553 14.2143 79.3305 15.3067 77.1017 15.3067C74.4208 15.3067 73.2122 14.0542 73.2122 11.2571Z" fill="#3B473E"/>
  <path d="M81.619 11.2571C81.619 8.50407 82.8276 7.23584 85.5681 7.23584C88.249 7.23584 89.4858 8.51977 89.4858 11.2571C89.4858 14.0542 88.2615 15.3067 85.5681 15.3067C82.8747 15.3067 81.619 14.0542 81.619 11.2571ZM87.8252 11.2571C87.8252 9.34852 87.2413 8.63592 85.5681 8.63592C83.8949 8.63592 83.2797 9.34852 83.2797 11.2571C83.2797 13.1658 83.8761 13.9098 85.5681 13.9098C87.2601 13.9098 87.8095 13.1846 87.8095 11.2571H87.8252Z" fill="#3B473E"/>
  <path d="M90.5469 4.93481C90.5469 4.16257 90.7823 3.92713 91.5546 3.92713C92.3268 3.92713 92.5874 4.16257 92.5874 4.93481C92.5874 5.70705 92.355 5.89541 91.5546 5.89541C90.7541 5.89541 90.5469 5.67566 90.5469 4.93481ZM90.7384 15.0901V7.45558H92.399V15.0901H90.7384Z" fill="#3B473E"/>
  <path d="M100.79 10.2809V15.0901H99.1294V10.3091C99.1294 9.12877 98.6052 8.59197 97.541 8.59197C96.3324 8.59197 95.7203 9.46467 95.7203 11.2289V15.0901H94.0596V7.45558H95.7203V8.64848C95.9467 8.20031 96.299 7.82795 96.7339 7.57703C97.1688 7.32611 97.6675 7.20754 98.1688 7.23584C100.018 7.23584 100.79 8.12423 100.79 10.2809Z" fill="#3B473E"/>
  <path d="M55.5386 25.6503H57.1553C57.2149 27.1634 57.8271 27.6751 59.3527 27.6751C60.6335 27.6751 61.277 27.1509 61.277 26.1055C61.277 25.2768 60.8972 24.7808 60.1532 24.6489L57.9966 24.2409C56.427 23.952 55.7678 23.1359 55.7678 21.5757C55.7678 19.667 56.9764 18.6468 59.2491 18.6468C61.5219 18.6468 62.6614 19.6513 62.7901 21.8802H61.1578C61.0573 20.5994 60.5299 20.163 59.2209 20.163C58.0405 20.163 57.4441 20.6151 57.4441 21.5317C57.4441 22.2161 57.8082 22.6242 58.5522 22.756L60.6649 23.1484C62.1937 23.4247 62.9502 24.4041 62.9502 26.0647C62.9502 28.0895 61.6946 29.2039 59.3088 29.2039C56.7911 29.1945 55.6108 28.0958 55.5386 25.6503Z" fill="#3B473E"/>
  <path d="M68.7232 22.7215H66.4222V26.4226C66.389 26.7936 66.4867 27.1646 66.6984 27.4711C66.8126 27.5843 66.9502 27.6711 67.1015 27.7253C67.2528 27.7796 67.4142 27.7999 67.5743 27.785C67.9779 27.781 68.3736 27.6729 68.7232 27.4711V28.8429C68.3173 29.0813 67.8535 29.203 67.3828 29.1945C65.5903 29.1945 64.7616 28.303 64.7616 26.4257V22.7215H63.5938V21.3465H64.7616V19.3531H66.4222V21.3465H68.7232V22.7215Z" fill="#3B473E"/>
  <path d="M74.9733 21.3465H76.634V28.9716H74.9733V27.7756C74.7481 28.2272 74.395 28.6026 73.9579 28.8549C73.5208 29.1073 73.0191 29.2253 72.5154 29.1945C70.6632 29.1945 69.891 28.303 69.891 26.1463V21.3465H71.5736V26.1149C71.5736 27.2953 72.0978 27.8352 73.162 27.8352C74.3706 27.8352 74.9828 26.9594 74.9828 25.1983L74.9733 21.3465Z" fill="#3B473E"/>
  <path d="M84.1084 17.8934H85.769V28.9716H84.1084V27.5872C83.5998 28.6514 82.6801 29.1914 81.371 29.1914C78.9946 29.1914 77.9179 27.9074 77.9179 25.1104C77.9179 22.3699 79.0103 21.1174 81.371 21.1174C82.6989 21.1174 83.6312 21.6133 84.1398 22.6179L84.1084 17.8934ZM84.1837 25.1638V24.9315C84.1398 23.3619 83.3079 22.4986 81.7352 22.4986C80.1624 22.4986 79.5628 23.2426 79.5628 25.1073C79.5628 27.0316 80.1907 27.8038 81.7791 27.8038C83.3675 27.8038 84.1837 26.815 84.1837 25.1669V25.1638Z" fill="#3B473E"/>
  <path d="M94.6153 25.6347H88.6696C88.7701 27.2231 89.3697 27.7913 90.9267 27.7913C92.1385 27.7913 92.8102 27.4271 92.939 26.6988H94.5086C94.3767 28.3312 93.1085 29.1914 90.9079 29.1914C88.2427 29.1914 87.0467 27.9357 87.0467 25.1261C87.0467 22.3165 88.2113 21.1174 90.8388 21.1174C93.4663 21.1174 94.6059 22.2694 94.6059 25.1983L94.6153 25.6347ZM88.6979 24.2503H92.9201C92.8479 23.026 92.2515 22.5174 90.8514 22.5174C89.4513 22.5174 88.8737 22.982 88.6979 24.2503Z" fill="#3B473E"/>
  <path d="M102.614 24.1718V28.9716H100.95V24.1906C100.95 23.0103 100.426 22.4735 99.3649 22.4735C98.1531 22.4735 97.541 23.3462 97.541 25.1104V28.9716H95.8804V21.3465H97.541V22.5394C97.7678 22.0915 98.1201 21.7194 98.555 21.4685C98.9898 21.2176 99.4883 21.0989 99.9896 21.1268C101.842 21.1174 102.614 22.0057 102.614 24.1718Z" fill="#3B473E"/>
  <path d="M108.66 22.7215H106.356V26.4226C106.323 26.7936 106.42 27.1646 106.632 27.4711C106.747 27.5838 106.884 27.6702 107.035 27.7244C107.187 27.7786 107.348 27.7993 107.508 27.785C107.913 27.781 108.309 27.6729 108.66 27.4711V28.8429C108.254 29.081 107.79 29.2027 107.32 29.1945C105.527 29.1945 104.695 28.303 104.695 26.4257V22.7215H103.531V21.3465H104.695V19.3531H106.356V21.3465H108.66V22.7215Z" fill="#3B473E"/>
  <path d="M109.461 26.5952H110.989C111.033 27.4114 111.529 27.7913 112.694 27.7913C113.742 27.7913 114.263 27.4774 114.263 26.8746C114.283 26.6666 114.223 26.459 114.095 26.2935C113.968 26.1281 113.782 26.0171 113.576 25.9831L111.539 25.5311C110.314 25.2548 109.63 24.4983 109.63 23.3901C109.63 21.8205 110.572 21.1174 112.644 21.1174C114.552 21.1174 115.529 21.9178 115.604 23.5377H114.078C114.006 22.7937 113.598 22.5174 112.622 22.5174C111.645 22.5174 111.209 22.778 111.209 23.3022C111.202 23.5059 111.274 23.7044 111.409 23.8565C111.545 24.0085 111.734 24.1024 111.937 24.1184L113.953 24.5705C115.208 24.8467 115.836 25.5907 115.836 26.7867C115.836 28.4191 114.832 29.1914 112.615 29.1914C110.5 29.1945 109.504 28.3595 109.461 26.5952Z" fill="#3B473E"/>
  <path d="M63.8292 32.7418H65.5181V42.8531H62.5013L58.1065 34.2549H57.7612V42.8531H56.0723V32.7418H59.089L63.4839 41.3652H63.848L63.8292 32.7418Z" fill="#3B473E"/>
  <path d="M74.4774 39.5162H68.5349C68.6353 41.1046 69.2349 41.6728 70.7919 41.6728C72.0016 41.6728 72.6723 41.3086 72.8042 40.5804H74.3738C74.2451 42.2127 72.9768 43.0729 70.7762 43.0729C68.1111 43.0729 66.915 41.8172 66.915 38.9919C66.915 36.1666 68.0954 34.9832 70.7166 34.9832C73.3378 34.9832 74.4836 36.1353 74.4836 39.0641L74.4774 39.5162ZM68.5631 38.1318H72.7885C72.7163 36.9075 72.1198 36.3989 70.7197 36.3989C69.3197 36.3989 68.7483 36.8635 68.5631 38.1318Z" fill="#3B473E"/>
  <path d="M80.0306 36.603H77.7264V40.3041C77.6919 40.6757 77.791 41.0474 78.0058 41.3526C78.1195 41.4656 78.2565 41.5522 78.4073 41.6065C78.5581 41.6607 78.7189 41.6812 78.8785 41.6665C79.2831 41.6625 79.6799 41.5544 80.0306 41.3526V42.7244C79.623 42.9571 79.1593 43.0733 78.6902 43.0603C76.8977 43.0603 76.0658 42.1688 76.0658 40.2915V36.603H74.9012V35.2186H76.0658V33.2346H77.7264V35.2186H80.0306V36.603Z" fill="#3B473E"/>
  <path d="M89.8657 35.2186H91.4353L90.0383 42.8531H87.4862L86.061 36.5747H85.9574L84.5291 42.8531H81.98L80.58 35.2186H82.1496L83.3016 41.497H83.3895L84.8147 35.2186H87.2193L88.6477 41.497H88.7356L89.8657 35.2186Z" fill="#3B473E"/>
  <path d="M91.8591 39.0202C91.8591 36.2671 93.0708 34.9989 95.8082 34.9989C98.4891 34.9989 99.729 36.2828 99.729 39.0202C99.729 41.8172 98.5047 43.0729 95.8082 43.0729C93.1116 43.0729 91.8591 41.8172 91.8591 39.0202ZM98.0684 39.0202C98.0684 37.1115 97.4845 36.3989 95.8082 36.3989C94.1319 36.3989 93.5197 37.1115 93.5197 39.0202C93.5197 40.9288 94.1193 41.6728 95.8082 41.6728C97.4971 41.6728 98.0684 40.9571 98.0684 39.0202Z" fill="#3B473E"/>
  <path d="M102.652 37.0833C103.163 35.6989 104.067 34.9989 105.348 34.9989V36.6752C103.543 36.6752 102.771 37.4914 102.652 39.648V42.8531H100.991V35.2312H102.652V37.0833Z" fill="#3B473E"/>
  <path d="M111.369 42.8531L109.432 39.5538H108.06V42.8468H106.4V31.7781H108.06V38.1757H109.517L111.266 35.2186H113.045L110.848 38.904L113.165 42.8531H111.369Z" fill="#3B473E"/>
  <path d="M37.6986 14.164H35.7209C35.7208 12.7762 35.3748 11.4103 34.714 10.1899C34.0533 8.96953 33.0986 7.93314 31.9365 7.17453C30.7744 6.41592 29.4415 5.95903 28.0584 5.84521C26.6752 5.73139 25.2855 5.96423 24.015 6.52265C22.7445 7.08108 21.6333 7.94747 20.7819 9.04343C19.9306 10.1394 19.3659 11.4303 19.139 12.7995C18.9121 14.1686 19.0301 15.5727 19.4824 16.8847C19.9348 18.1968 20.7071 19.3753 21.7295 20.3137V22.8062C20.3482 21.9116 19.2028 20.6973 18.3902 19.2662C17.5777 17.8351 17.1219 16.2293 17.0615 14.5847C17.0615 14.4466 17.0615 14.3053 17.0615 14.164C17.0594 12.8086 17.3247 11.4661 17.842 10.2134C18.3594 8.96059 19.1187 7.82213 20.0765 6.86314C21.0344 5.90415 22.1719 5.14344 23.424 4.62457C24.6762 4.10569 26.0184 3.83882 27.3738 3.83923C30.111 3.84256 32.7353 4.93141 34.6708 6.86697C36.6064 8.80253 37.6952 11.4268 37.6986 14.164Z" fill="#B860AC"/>
  <path d="M37.6986 32.8328C37.6994 33.5578 37.6226 34.2808 37.4694 34.9894C36.9263 37.4719 35.4866 39.6668 33.4259 41.1537C31.3652 42.6407 28.8284 43.3152 26.3013 43.0481C23.7742 42.781 21.4345 41.5911 19.7302 39.7062C18.0259 37.8213 17.0768 35.3739 17.0647 32.8328H19.0423C19.0405 34.1672 19.3586 35.4826 19.9699 36.6688C20.5813 37.8549 21.4681 38.8771 22.5561 39.6498C23.644 40.4225 24.9013 40.9231 26.2226 41.1097C27.5439 41.2962 28.8907 41.1632 30.15 40.7219C31.4094 40.2806 32.5445 39.5438 33.4603 38.5733C34.3762 37.6027 35.046 36.4268 35.4136 35.144C35.7812 33.8612 35.8359 32.509 35.5731 31.2007C35.3103 29.8924 34.7377 28.6662 33.9033 27.6249C33.7688 26.7787 33.4579 25.9702 32.9906 25.252C32.5233 24.5337 31.9102 23.9219 31.191 23.4561L31.4013 23.3116C33.2045 24.0783 34.7532 25.3405 35.8678 26.9519C36.9825 28.5632 37.6173 30.4577 37.6986 32.4153C37.6954 32.5534 37.6986 32.6916 37.6986 32.8328Z" fill="#B860AC"/>
  <path d="M33.9033 27.6249C33.7688 26.7787 33.4579 25.9702 32.9906 25.252C32.5233 24.5337 31.9102 23.9219 31.191 23.4561L31.4013 23.3117C32.459 22.5602 33.2502 21.4919 33.6606 20.2611C34.0711 19.0304 34.0794 17.701 33.6845 16.4651C33.2895 15.2293 32.5118 14.1511 31.4637 13.3865C30.4156 12.6218 29.1515 12.2103 27.8541 12.2115H21.7672V12.3684H21.7295V34.6284H21.7672V34.7132H27.8541C29.4762 34.7115 31.0315 34.0664 32.1785 32.9194C33.3255 31.7723 33.9707 30.2171 33.9723 28.5949C33.977 28.2702 33.9539 27.9457 33.9033 27.6249ZM23.7072 14.1892H27.8541C28.9329 14.2189 29.9576 14.6683 30.7101 15.4419C31.4627 16.2154 31.8838 17.2521 31.8838 18.3313C31.8838 19.4106 31.4627 20.4472 30.7101 21.2208C29.9576 21.9943 28.9329 22.4438 27.8541 22.4735H23.7072V14.1892ZM27.8541 32.7355H23.7072V24.4512H27.8541C28.9329 24.4809 29.9576 24.9303 30.7101 25.7039C31.4627 26.4774 31.8838 27.5141 31.8838 28.5933C31.8838 29.6726 31.4627 30.7092 30.7101 31.4828C29.9576 32.2564 28.9329 32.7058 27.8541 32.7355Z" fill="#B860AC"/>
  <path d="M45.4461 36.559V10.441C46.4296 10.1993 47.2905 9.6058 47.8662 8.77264C48.442 7.93947 48.6927 6.9243 48.571 5.9189C48.4492 4.91351 47.9635 3.98749 47.2056 3.31579C46.4477 2.64409 45.47 2.2732 44.4573 2.2732C43.4445 2.2732 42.4668 2.64409 41.7089 3.31579C40.951 3.98749 40.4653 4.91351 40.3436 5.9189C40.2218 6.9243 40.4725 7.93947 41.0483 8.77264C41.624 9.6058 42.4849 10.1993 43.4684 10.441V36.559C43.061 36.6575 42.6713 36.8185 42.3132 37.0362L37.6923 32.4153C37.6923 32.5534 37.6923 32.6916 37.6923 32.8328C37.6931 33.5578 37.6163 34.2808 37.4631 34.9894L40.9162 38.4426C40.4648 39.1901 40.2611 40.0611 40.3342 40.9313C40.4073 41.8015 40.7534 42.6263 41.3231 43.2881C41.8928 43.9499 42.6571 44.4147 43.5067 44.6164C44.3564 44.818 45.248 44.746 46.0543 44.4107C46.8606 44.0755 47.5404 43.494 47.9967 42.7494C48.4529 42.0049 48.6622 41.1352 48.5948 40.2645C48.5273 39.3939 48.1866 38.5668 47.6211 37.9014C47.0557 37.2359 46.2944 36.7661 45.4461 36.559ZM42.2912 6.42279C42.2929 5.84883 42.5216 5.29885 42.9275 4.89299C43.3333 4.48714 43.8833 4.2584 44.4573 4.25675C44.8016 4.25627 45.1408 4.33921 45.4461 4.49846C45.872 4.72358 46.2108 5.08426 46.4087 5.52348C46.6067 5.96269 46.6526 6.45537 46.5391 6.92358C46.4257 7.3918 46.1593 7.80883 45.7823 8.10872C45.4053 8.40861 44.939 8.57424 44.4573 8.57941C44.1725 8.57941 43.8906 8.52328 43.6276 8.41423C43.3646 8.30518 43.1257 8.14535 42.9245 7.94389C42.7233 7.74242 42.5639 7.50326 42.4552 7.24011C42.3465 6.97695 42.2908 6.69494 42.2912 6.41023V6.42279ZM45.4461 42.5235C45.3457 42.5786 45.2407 42.6248 45.1322 42.6616C44.9169 42.7298 44.6925 42.7647 44.4667 42.7652C43.8925 42.7644 43.342 42.5359 42.936 42.1299C42.5299 41.7239 42.3015 41.1734 42.3006 40.5992C42.3011 40.3734 42.336 40.1489 42.4042 39.9337C42.5453 39.4975 42.8209 39.1171 43.1913 38.847C43.5618 38.5769 44.0082 38.4309 44.4667 38.43C44.811 38.4295 45.1503 38.5125 45.4555 38.6717C45.8103 38.8531 46.1081 39.1288 46.316 39.4687C46.524 39.8085 46.634 40.1992 46.634 40.5976C46.634 40.996 46.524 41.3867 46.316 41.7265C46.1081 42.0664 45.8103 42.3422 45.4555 42.5235H45.4461Z" fill="#B860AC"/>
  <path d="M12.4375 9.96066L17.0615 14.5847C17.0615 14.4466 17.0615 14.3053 17.0615 14.164C17.0542 13.4379 17.1226 12.7131 17.2656 12.0011L13.8125 8.56372C14.2643 7.81581 14.4683 6.94429 14.3954 6.07354C14.3225 5.20279 13.9764 4.37732 13.4066 3.71493C12.8367 3.05254 12.0722 2.58709 11.2221 2.385C10.3719 2.18292 9.47973 2.25453 8.67274 2.58961C7.86575 2.92469 7.18523 3.50612 6.7283 4.25092C6.27136 4.99572 6.06137 5.86583 6.1283 6.73705C6.19522 7.60828 6.53563 8.4361 7.10095 9.10238C7.66628 9.76865 8.42762 10.2393 9.27632 10.4472V36.5653C8.31475 36.8028 7.47237 37.3819 6.90623 38.1946C6.47016 38.8152 6.21253 39.5435 6.16134 40.3003C6.11014 41.0571 6.26734 41.8134 6.61585 42.4871C6.96435 43.1608 7.49084 43.7262 8.1381 44.1217C8.78535 44.5171 9.52862 44.7277 10.2871 44.7304C10.5283 44.7301 10.7689 44.708 11.006 44.6644C11.942 44.4994 12.7929 44.0179 13.4163 43.3005C14.0397 42.583 14.3977 41.6732 14.4304 40.7234C14.4632 39.7735 14.1686 38.8412 13.5961 38.0826C13.0236 37.3239 12.2078 36.785 11.2854 36.5559V10.441C11.692 10.3416 12.0807 10.1796 12.4375 9.96066ZM11.5397 38.8098C11.7725 38.9736 11.9708 39.1817 12.1232 39.4221C12.2756 39.6625 12.3791 39.9307 12.4278 40.2111C12.4765 40.4916 12.4694 40.7789 12.4069 41.0567C12.3445 41.3344 12.228 41.5971 12.0639 41.8298C11.8639 42.1173 11.5952 42.3504 11.2823 42.5078C10.9765 42.6674 10.6367 42.7507 10.2918 42.7507C9.94697 42.7507 9.60719 42.6674 9.30143 42.5078C9.21149 42.4638 9.12539 42.4123 9.04402 42.354C8.73927 42.139 8.4951 41.8491 8.33507 41.5123C8.17504 41.1754 8.10457 40.803 8.13044 40.431C8.15632 40.0589 8.27767 39.6998 8.48279 39.3884C8.68791 39.0769 8.96986 38.8236 9.30143 38.6529C9.60911 38.4944 9.95048 38.4126 10.2966 38.4143C10.6398 38.4142 10.978 38.4971 11.2823 38.656C11.3718 38.7008 11.4579 38.7522 11.5397 38.8098ZM10.284 8.58255C9.80226 8.57738 9.336 8.41175 8.95895 8.11186C8.58191 7.81197 8.3156 7.39494 8.20215 6.92672C8.0887 6.45851 8.13458 5.96583 8.33253 5.52662C8.53049 5.0874 8.86922 4.72672 9.29515 4.5016C9.39537 4.44611 9.50045 4.39988 9.60907 4.36348C9.82326 4.29527 10.0467 4.26033 10.2714 4.25989C10.8462 4.25988 11.3975 4.48799 11.8042 4.89411C12.2109 5.30024 12.4398 5.85117 12.4406 6.42593C12.4401 6.65277 12.4052 6.87822 12.337 7.09458C12.1941 7.52532 11.9198 7.90048 11.5527 8.16735C11.1856 8.43423 10.7441 8.57943 10.2903 8.58255H10.284Z" fill="#B860AC"/>
</svg>