<svg width="214" height="43" viewBox="0 0 214 43" fill="none" xmlns="http://www.w3.org/2000/svg">
<path d="M113.497 28.94L121.596 23.389C122.811 22.5572 123.805 21.8333 124.58 21.2154C125.354 20.5995 125.961 20.0476 126.403 19.5637C126.843 19.0798 127.148 18.6419 127.314 18.25C127.48 17.858 127.564 17.4661 127.564 17.0742C127.564 16.6243 127.47 16.2023 127.284 15.8104C127.098 15.4185 126.805 15.0765 126.409 14.7826C126.013 14.4886 125.503 14.2587 124.88 14.0927C124.258 13.9268 123.515 13.8428 122.653 13.8428C121.398 13.8428 120.149 14.0187 118.904 14.3707C117.66 14.7226 116.391 15.2865 115.098 16.0604L112.953 12.535C114.394 11.6452 115.953 10.9493 117.634 10.4494C119.315 9.94948 121.08 9.69952 122.933 9.69952C124.55 9.69952 125.953 9.89349 127.144 10.2794C128.334 10.6673 129.319 11.1932 130.097 11.8591C130.876 12.525 131.456 13.2989 131.838 14.1787C132.221 15.0605 132.411 15.9944 132.411 16.9842C132.411 17.7481 132.283 18.4779 132.029 19.1718C131.774 19.8677 131.328 20.5875 130.692 21.3314C130.055 22.0753 129.195 22.8751 128.112 23.733C127.029 24.5888 125.665 25.5606 124.02 26.6484L120.669 28.852H133.251V32.9353H113.497V28.94Z" fill="url(#paint0_linear_1_1664)" style=""/>
<path d="M137.292 21.4054C137.292 19.5557 137.572 17.896 138.13 16.4263C138.689 14.9586 139.483 13.7128 140.512 12.689C141.541 11.6652 142.789 10.8853 144.26 10.3474C145.729 9.8095 147.376 9.53955 149.199 9.53955C151.022 9.53955 152.668 9.8095 154.138 10.3474C155.607 10.8853 156.858 11.6672 157.887 12.689C158.915 13.7128 159.71 14.9586 160.268 16.4263C160.827 17.894 161.107 19.5537 161.107 21.4054C161.107 23.257 160.827 24.9147 160.268 26.3845C159.71 27.8522 158.915 29.096 157.887 30.1138C156.858 31.1316 155.609 31.9095 154.138 32.4494C152.67 32.9873 151.022 33.2572 149.199 33.2572C147.376 33.2572 145.731 32.9873 144.26 32.4494C142.791 31.9115 141.541 31.1336 140.512 30.1138C139.483 29.096 138.689 27.8522 138.13 26.3845C137.572 24.9167 137.292 23.257 137.292 21.4054ZM141.951 21.3914C141.951 22.6452 142.119 23.751 142.457 24.7108C142.795 25.6706 143.278 26.4765 143.904 27.1263C144.53 27.7782 145.291 28.2721 146.181 28.6101C147.072 28.948 148.077 29.116 149.195 29.116C150.314 29.116 151.317 28.948 152.209 28.6101C153.1 28.2721 153.86 27.7782 154.487 27.1263C155.113 26.4745 155.595 25.6706 155.934 24.7108C156.272 23.751 156.44 22.6452 156.44 21.3914C156.44 20.1376 156.272 19.0498 155.934 18.094C155.595 17.1402 155.113 16.3343 154.487 15.6784C153.86 15.0225 153.1 14.5246 152.209 14.1887C151.317 13.8508 150.314 13.6828 149.195 13.6828C148.077 13.6828 147.074 13.8508 146.181 14.1887C145.289 14.5266 144.53 15.0245 143.904 15.6784C143.278 16.3343 142.793 17.1402 142.457 18.094C142.119 19.0478 141.951 20.1476 141.951 21.3914Z" fill="url(#paint1_linear_1_1664)" style=""/>
<path d="M166.246 28.94L174.345 23.389C175.56 22.5572 176.555 21.8333 177.329 21.2154C178.104 20.5995 178.71 20.0476 179.152 19.5637C179.592 19.0798 179.897 18.6419 180.063 18.25C180.229 17.858 180.313 17.4661 180.313 17.0742C180.313 16.6243 180.219 16.2023 180.033 15.8104C179.847 15.4185 179.554 15.0765 179.158 14.7826C178.762 14.4886 178.252 14.2587 177.629 14.0927C177.007 13.9268 176.264 13.8428 175.402 13.8428C174.147 13.8428 172.898 14.0187 171.654 14.3707C170.409 14.7226 169.14 15.2865 167.847 16.0604L165.702 12.535C167.143 11.6452 168.702 10.9493 170.383 10.4494C172.064 9.94948 173.829 9.69952 175.682 9.69952C177.299 9.69952 178.702 9.89349 179.893 10.2794C181.083 10.6673 182.068 11.1932 182.847 11.8591C183.625 12.525 184.205 13.2989 184.588 14.1787C184.97 15.0605 185.16 15.9944 185.16 16.9842C185.16 17.7481 185.032 18.4779 184.778 19.1718C184.524 19.8677 184.077 20.5875 183.441 21.3314C182.805 22.0753 181.944 22.8751 180.861 23.733C179.779 24.5888 178.414 25.5606 176.769 26.6484L173.419 28.852H186.001V32.9353H166.246V28.94Z" fill="url(#paint2_linear_1_1664)" style=""/>
<path d="M190.954 23.947L204.388 9.98151H209.047V23.947H214V28.0302H209.047V32.9353H204.388V28.0302H190.926L190.956 23.947H190.954ZM204.388 23.947V15.8704L196.539 23.947H204.388Z" fill="url(#paint3_linear_1_1664)" style=""/>
<g clip-path="url(#clip0_1_1664)">
<path d="M47.6316 16.9885V20.9318C47.6316 23.5333 45.9755 24.8431 42.6612 24.861H37.7449C34.5365 24.8431 32.8804 23.6113 32.7745 21.1657V18.4082H37.4991V19.718C37.5351 20.6558 38.1983 21.1237 39.4949 21.1237H40.8953C42.2597 21.1237 42.9249 20.5958 42.891 19.538V17.7603C42.855 16.6305 41.3447 15.7107 38.3582 15.0028C34.7303 14.341 32.8644 12.5953 32.7585 9.7638V6.89632C32.7585 4.2948 34.4147 2.98504 37.7289 2.96704H42.6453C45.9575 2.98504 47.6156 4.2948 47.6156 6.89632V9.39187H42.891V8.0961C42.855 7.15828 42.1918 6.69036 40.8953 6.69036H39.4949C38.1304 6.69036 37.4652 7.21827 37.4991 8.27607V9.03393C37.5351 10.3477 39.0334 11.3275 41.996 11.9694C45.7178 12.4653 47.5956 14.139 47.6296 16.9865L47.6316 16.9885Z" fill="#F5E9FF" style="fill:#F5E9FF;fill:color(display-p3 0.9608 0.9137 1.0000);fill-opacity:1;"/>
<path d="M64.3086 8.2481L69.8023 24.8591H64.3945L63.1339 20.6678H57.0089L55.6964 24.8591H50.4644L57.6561 3.03705H57.6921L64.3066 8.2481H64.3086ZM62.0871 17.1125L60.1453 10.6197L58.1156 17.1125H62.0871Z" fill="#F5E9FF" style="fill:#F5E9FF;fill:color(display-p3 0.9608 0.9137 1.0000);fill-opacity:1;"/>
<path d="M83.7503 6.64835H80.0066V24.873H75.3519V6.64835H69.7703V2.98102H79.0976L83.7523 6.64835H83.7503Z" fill="#F5E9FF" style="fill:#F5E9FF;fill:color(display-p3 0.9608 0.9137 1.0000);fill-opacity:1;"/>
<path d="M103.786 16.9885V20.9318C103.786 23.5333 102.129 24.8431 98.8152 24.861H93.8988C90.6904 24.8431 89.0343 23.6113 88.9285 21.1657V18.4082H93.6531V19.718C93.689 20.6558 94.3523 21.1237 95.6488 21.1237H97.0492C98.4136 21.1237 99.0789 20.5958 99.0449 19.538V17.7603C99.009 16.6305 97.4987 15.7107 94.5121 15.0028C90.8842 14.341 89.0184 12.5953 88.9125 9.7638V6.89632C88.9125 4.2948 90.5686 2.98504 93.8828 2.96704H98.7992C102.111 2.98504 103.77 4.2948 103.77 6.89632V9.39187H99.0449V8.0961C99.009 7.15828 98.3457 6.69036 97.0492 6.69036H95.6488C94.2843 6.69036 93.6191 7.21827 93.6531 8.27607V9.03393C93.689 10.3477 95.1873 11.3275 98.1499 11.9694C101.872 12.4653 103.75 14.139 103.784 16.9865L103.786 16.9885Z" fill="#F5E9FF" style="fill:#F5E9FF;fill:color(display-p3 0.9608 0.9137 1.0000);fill-opacity:1;"/>
<path d="M39.2571 42.2199C38.0126 42.2199 36.9518 42.0039 36.0748 41.568C35.1978 41.1341 34.4826 40.5622 33.9292 39.8523C33.3759 39.1424 32.9683 38.3746 32.7066 37.5507C32.4449 36.7269 32.3151 35.925 32.3151 35.1472V34.7312C32.3151 33.8774 32.4489 33.0335 32.7166 32.2037C32.9843 31.3738 33.3938 30.62 33.9492 29.9401C34.5026 29.2622 35.2118 28.7183 36.0768 28.3084C36.9418 27.9005 37.9646 27.6945 39.1473 27.6945C40.3299 27.6945 41.4546 27.9205 42.3756 28.3744C43.2965 28.8263 44.0297 29.4562 44.5771 30.2601C45.1244 31.0639 45.4541 32.0077 45.5659 33.0895H42.879C42.7911 32.4616 42.5774 31.9337 42.2357 31.5058C41.8941 31.0779 41.4586 30.752 40.9292 30.526C40.3998 30.3 39.8065 30.1861 39.1473 30.1861C38.488 30.1861 37.8967 30.306 37.3753 30.544C36.8519 30.784 36.4164 31.1159 36.0688 31.5438C35.7212 31.9717 35.4555 32.4736 35.2757 33.0535C35.0959 33.6314 35.006 34.2673 35.006 34.9592C35.006 35.6511 35.0959 36.267 35.2757 36.8448C35.4555 37.4227 35.7272 37.9287 36.0868 38.3626C36.4483 38.7965 36.8918 39.1324 37.4212 39.3724C37.9506 39.6103 38.5619 39.7303 39.2591 39.7303C40.28 39.7303 41.137 39.4764 41.8342 38.9665C42.5314 38.4566 42.9549 37.7447 43.1028 36.8249H45.7897C45.6658 37.8067 45.3362 38.7045 44.8008 39.5224C44.2654 40.3402 43.5323 40.9941 42.5993 41.484C41.6664 41.9739 40.5517 42.2199 39.2591 42.2199H39.2571Z" fill="#F5E9FF" style="fill:#F5E9FF;fill:color(display-p3 0.9608 0.9137 1.0000);fill-opacity:1;"/>
<path d="M59.4501 42.2199C58.2175 42.2199 57.1507 42.0039 56.2497 41.568C55.3468 41.1341 54.6016 40.5582 54.0103 39.8423C53.419 39.1264 52.9815 38.3566 52.6938 37.5327C52.4081 36.7089 52.2643 35.915 52.2643 35.1472V34.7312C52.2643 33.8894 52.4141 33.0495 52.7118 32.2137C53.0094 31.3778 53.4609 30.62 54.0642 29.9401C54.6675 29.2622 55.4167 28.7183 56.3137 28.3084C57.2086 27.9005 58.2554 27.6945 59.4501 27.6945C60.6447 27.6945 61.6915 27.8985 62.5945 28.3084C63.4975 28.7163 64.2486 29.2602 64.8519 29.9401C65.4552 30.62 65.9067 31.3758 66.2044 32.2137C66.502 33.0495 66.6519 33.8894 66.6519 34.7312V35.1472C66.6519 35.915 66.506 36.7089 66.2124 37.5327C65.9207 38.3566 65.4772 39.1264 64.8879 39.8423C64.2965 40.5582 63.5494 41.1341 62.6484 41.568C61.7455 42.0019 60.6787 42.2199 59.4481 42.2199H59.4501ZM59.4501 39.7303C60.1473 39.7303 60.7746 39.6043 61.3359 39.3524C61.8953 39.1004 62.3707 38.7525 62.7643 38.3046C63.1558 37.8587 63.4555 37.3488 63.6593 36.7769C63.865 36.205 63.9669 35.5991 63.9669 34.9572C63.9669 34.2773 63.861 33.6494 63.6493 33.0715C63.4375 32.4936 63.1359 31.9877 62.7443 31.5538C62.3528 31.1199 61.8793 30.784 61.3259 30.544C60.7726 30.306 60.1473 30.1861 59.4501 30.1861C58.7529 30.1861 58.1436 30.306 57.5842 30.544C57.0248 30.784 56.5494 31.1199 56.1558 31.5538C55.7643 31.9877 55.4646 32.4936 55.2609 33.0715C55.0551 33.6494 54.9532 34.2793 54.9532 34.9572C54.9532 35.5991 55.0551 36.205 55.2609 36.7769C55.4666 37.3488 55.7643 37.8587 56.1558 38.3046C56.5474 38.7505 57.0229 39.1004 57.5842 39.3524C58.1436 39.6043 58.7669 39.7303 59.4501 39.7303Z" fill="#F5E9FF" style="fill:#F5E9FF;fill:color(display-p3 0.9608 0.9137 1.0000);fill-opacity:1;"/>
<path d="M74.2292 41.8619V28.0944H78.5783L84.2898 39.6363H84.925L84.5515 39.9763V28.0944H87.0526V41.8619H82.6676L76.9561 30.32H76.3209L76.6944 29.9801V41.8619H74.2312H74.2292Z" fill="#F5E9FF" style="fill:#F5E9FF;fill:color(display-p3 0.9608 0.9137 1.0000);fill-opacity:1;"/>
<path d="M95.449 41.8619V28.0944H98.0999V41.8619H95.449ZM97.7264 30.358V28.0944H103.438V30.358H97.7264ZM97.7264 36.129V33.8654L103.176 33.8474V36.129H97.7264Z" fill="#F5E9FF" style="fill:#F5E9FF;fill:color(display-p3 0.9608 0.9137 1.0000);fill-opacity:1;"/>
<path d="M14.9594 38.8459C5.34038 35.6265 0.140323 25.0885 3.34866 15.3162C6.52304 5.648 16.9491 0.378962 26.5502 3.58838C29.1592 4.46022 31.4446 5.86796 33.3284 7.64963C33.2765 7.3137 33.2485 6.96176 33.2485 6.59383C33.2485 5.88596 33.3464 5.24207 33.5382 4.65618C31.7143 3.22244 29.6227 2.07265 27.3013 1.29479C16.4197 -2.34654 4.67115 3.61637 1.06527 14.6104C-2.55061 25.6324 3.34866 37.5062 14.2522 41.1515C21.1763 43.4671 28.442 41.8994 33.744 37.6242C33.2585 36.9363 32.8849 36.2044 32.6272 35.4246C27.8986 39.4398 21.2662 40.9556 14.9614 38.8459H14.9594Z" fill="#F5E9FF" style="fill:#F5E9FF;fill:color(display-p3 0.9608 0.9137 1.0000);fill-opacity:1;"/>
<path d="M26.6837 15.1688C25.9905 14.5929 25.1854 14.267 24.4802 14.025L25.1714 11.9114C25.2293 11.7354 25.1334 11.5455 24.9576 11.4855L22.9999 10.8316C22.914 10.8036 22.8221 10.8096 22.7422 10.8496C22.6623 10.8896 22.6003 10.9616 22.5724 11.0455L21.8851 13.1432L21.0261 12.8552L21.7113 10.7596C21.7693 10.5836 21.6734 10.3937 21.4976 10.3337L19.5298 9.6758C19.4439 9.6478 19.352 9.6538 19.2721 9.6938C19.1922 9.73379 19.1303 9.80578 19.1023 9.88976L18.4131 11.9934L14.967 10.8416C14.8811 10.8136 14.7892 10.8196 14.7093 10.8596C14.6294 10.8996 14.5675 10.9716 14.5395 11.0555L13.8343 13.2092C13.7764 13.3851 13.8723 13.5751 14.0481 13.6351L14.4536 13.7691C14.7493 13.867 15.039 13.963 15.3306 14.063C15.7322 14.201 15.9619 14.5649 15.92 14.9908C15.912 15.0748 15.884 15.1648 15.856 15.2528C15.6003 16.0346 15.3446 16.8165 15.0869 17.5984C14.5076 19.364 13.9083 21.1897 13.3309 22.9914C13.241 23.2713 13.0592 23.4893 12.8195 23.6013C12.5978 23.7052 12.356 23.7092 12.1163 23.6133C11.8666 23.5133 11.6109 23.4333 11.3652 23.3533C11.2613 23.3213 11.1574 23.2873 11.0535 23.2533C11.0156 23.2413 10.9756 23.2313 10.9356 23.2213L10.8957 23.2113C10.7239 23.1673 10.5441 23.2633 10.4882 23.4333L9.78496 25.5829C9.72703 25.7589 9.82292 25.9488 9.99872 26.0088L13.4628 27.1666L12.7656 29.2962C12.7076 29.4722 12.8035 29.6621 12.9793 29.7221L14.9431 30.378C15.029 30.406 15.1209 30.4 15.2008 30.36C15.2807 30.32 15.3426 30.248 15.3706 30.1641L16.0638 28.0464L16.9188 28.3324L16.2236 30.454C16.1657 30.63 16.2616 30.8199 16.4374 30.8799L18.3971 31.5358C18.4311 31.5478 18.4671 31.5538 18.505 31.5538C18.5569 31.5538 18.6089 31.5418 18.6568 31.5178C18.7367 31.4778 18.7987 31.4058 18.8266 31.3218L19.5238 29.1902C19.5238 29.1902 19.5338 29.1942 19.5378 29.1962C20.5746 29.5502 21.6294 29.7341 22.6762 29.7361C23.6691 29.7301 24.4302 29.4962 25.0795 28.9703C26.0664 28.1704 26.6797 27.1446 26.9014 25.9228C27.1451 24.5851 26.8015 23.4533 25.8786 22.5554C25.7387 22.4195 25.5929 22.2875 25.4471 22.1615C26.8954 21.6996 27.8064 20.6658 28.0941 19.1461C28.3937 17.5604 27.9063 16.1846 26.6837 15.1708V15.1688ZM18.1614 21.6596C18.3871 21.7336 18.6109 21.8076 18.8366 21.8816C19.5238 22.1075 20.233 22.3395 20.9203 22.5874C21.5455 22.8134 21.999 23.2213 22.2667 23.8032C22.4645 24.2291 22.4845 24.6851 22.3266 25.087C22.1648 25.4969 21.8292 25.8249 21.3797 26.0068C20.8503 26.2228 20.299 26.2408 19.7416 26.0608C19.0604 25.8408 18.3831 25.6129 17.7059 25.3849L17.0167 25.153L18.1614 21.6576V21.6596ZM22.4265 19.772C22.1349 19.9239 21.8612 19.9479 21.5675 19.8479C20.9342 19.632 20.301 19.42 19.6657 19.2101L19.0324 18.9981L20.1232 15.6667L20.7544 15.8787C21.3817 16.0886 22.007 16.2986 22.6363 16.5046C22.9479 16.6065 23.1617 16.7965 23.3075 17.1024C23.735 17.9963 23.2995 19.32 22.4285 19.774L22.4265 19.772Z" fill="#F5E9FF" style="fill:#F5E9FF;fill:color(display-p3 0.9608 0.9137 1.0000);fill-opacity:1;"/>
</g>
<defs>
<linearGradient id="paint0_linear_1_1664" x1="107.117" y1="21.3174" x2="217.498" y2="21.3174" gradientUnits="userSpaceOnUse">
<stop stop-color="#A53AD8" style="stop-color:#A53AD8;stop-color:color(display-p3 0.6471 0.2275 0.8471);stop-opacity:1;"/>
<stop offset="1" stop-color="#FFB54A" style="stop-color:#FFB54A;stop-color:color(display-p3 1.0000 0.7098 0.2902);stop-opacity:1;"/>
</linearGradient>
<linearGradient id="paint1_linear_1_1664" x1="107.117" y1="21.3974" x2="217.498" y2="21.3974" gradientUnits="userSpaceOnUse">
<stop stop-color="#A53AD8" style="stop-color:#A53AD8;stop-color:color(display-p3 0.6471 0.2275 0.8471);stop-opacity:1;"/>
<stop offset="1" stop-color="#FFB54A" style="stop-color:#FFB54A;stop-color:color(display-p3 1.0000 0.7098 0.2902);stop-opacity:1;"/>
</linearGradient>
<linearGradient id="paint2_linear_1_1664" x1="107.117" y1="-42.7289" x2="217.498" y2="-42.7289" gradientUnits="userSpaceOnUse">
<stop stop-color="#A53AD8" style="stop-color:#A53AD8;stop-color:color(display-p3 0.6471 0.2275 0.8471);stop-opacity:1;"/>
<stop offset="1" stop-color="#FFB54A" style="stop-color:#FFB54A;stop-color:color(display-p3 1.0000 0.7098 0.2902);stop-opacity:1;"/>
</linearGradient>
<linearGradient id="paint3_linear_1_1664" x1="107.117" y1="21.4574" x2="217.498" y2="21.4574" gradientUnits="userSpaceOnUse">
<stop stop-color="#A53AD8" style="stop-color:#A53AD8;stop-color:color(display-p3 0.6471 0.2275 0.8471);stop-opacity:1;"/>
<stop offset="1" stop-color="#FFB54A" style="stop-color:#FFB54A;stop-color:color(display-p3 1.0000 0.7098 0.2902);stop-opacity:1;"/>
</linearGradient>
<clipPath id="clip0_1_1664">
<rect width="105.226" height="42.0904" fill="white" style="fill:white;fill-opacity:1;" transform="translate(0 0.227539)"/>
</clipPath>
</defs>
</svg>
