<svg width="178" height="93" viewBox="0 0 178 93" fill="none" xmlns="http://www.w3.org/2000/svg">
<path d="M69.8891 20.4938C65.0089 16.6183 59.1863 14.1095 53.0176 13.2246C46.8488 12.3397 40.5558 13.1103 34.7829 15.4576C29.01 17.8049 23.9648 21.6445 20.164 26.5832C16.3632 31.5218 13.9435 37.382 13.1526 43.5634C12.3617 49.7449 13.2281 56.0255 15.6631 61.762C18.098 67.4985 22.014 72.4846 27.01 76.2097C32.006 79.9349 37.9023 82.2651 44.0951 82.9617C50.2879 83.6583 56.5546 82.6964 62.2533 80.1743L58.7064 72.1599C54.4283 74.0532 49.7238 74.7754 45.0748 74.2524C40.4258 73.7294 35.9994 71.9801 32.2489 69.1836C28.4983 66.3871 25.5586 62.644 23.7306 58.3376C21.9026 54.0311 21.2522 49.3162 21.8459 44.6757C22.4397 40.0352 24.2562 35.6359 27.1095 31.9284C29.9628 28.2209 33.7503 25.3385 38.084 23.5764C42.4178 21.8142 47.1421 21.2357 51.773 21.9C56.4039 22.5643 60.775 24.4477 64.4386 27.3571L69.8891 20.4938Z" fill="url(#paint0_linear_1_2475)" style=""/>
<path d="M80.6834 44.1041V50.6915C80.6834 55.0375 77.9168 57.2255 72.3803 57.2555H64.1672C58.8076 57.2255 56.041 55.1677 55.8641 51.0823V46.4758H63.7568V48.6638C63.8168 50.2305 64.9248 51.0122 67.0907 51.0122H69.4301C71.7095 51.0122 72.8208 50.1303 72.7641 48.3632V45.3935C72.704 43.5061 70.181 41.9695 65.1918 40.787C59.1313 39.6813 56.0143 36.7651 55.8374 32.0349V27.2447C55.8374 22.8987 58.604 20.7107 64.1405 20.6807H72.3536C77.8868 20.7107 80.6567 22.8987 80.6567 27.2447V31.4136H72.7641V29.249C72.704 27.6823 71.596 26.9006 69.4301 26.9006H67.0907C64.8113 26.9006 63.7 27.7825 63.7568 29.5496V30.8157C63.8168 33.0104 66.3198 34.6472 71.269 35.7195C77.4863 36.5479 80.6234 39.3439 80.6801 44.1007L80.6834 44.1041Z" fill="#F5E9FF" style="fill:#F5E9FF;fill:color(display-p3 0.9608 0.9137 1.0000);fill-opacity:1;"/>
<path d="M108.543 29.5026L117.72 57.252H108.686L106.581 50.2503H96.3486L94.156 57.252H85.4156L97.4298 20.7974H97.4899L108.54 29.5026H108.543ZM104.832 44.311L101.588 33.4644L98.1974 44.311H104.832Z" fill="#F5E9FF" style="fill:#F5E9FF;fill:color(display-p3 0.9608 0.9137 1.0000);fill-opacity:1;"/>
<path d="M141.021 26.8305H134.767V57.2756H126.992V26.8305H117.667V20.7041H133.249L141.025 26.8305H141.021Z" fill="#F5E9FF" style="fill:#F5E9FF;fill:color(display-p3 0.9608 0.9137 1.0000);fill-opacity:1;"/>
<path d="M174.491 44.1041V50.6915C174.491 55.0375 171.724 57.2255 166.188 57.2555H157.975C152.615 57.2255 149.848 55.1677 149.672 51.0823V46.4758H157.564V48.6638C157.624 50.2305 158.732 51.0122 160.898 51.0122H163.238C165.517 51.0122 166.628 50.1303 166.572 48.3632V45.3935C166.511 43.5061 163.989 41.9695 158.999 40.787C152.939 39.6813 149.822 36.7651 149.645 32.0349V27.2447C149.645 22.8987 152.412 20.7107 157.948 20.6807H166.161C171.694 20.7107 174.464 22.8987 174.464 27.2447V31.4136H166.572V29.249C166.511 27.6823 165.404 26.9006 163.238 26.9006H160.898C158.619 26.9006 157.508 27.7825 157.564 29.5496V30.8157C157.624 33.0104 160.127 34.6472 165.076 35.7195C171.294 36.5479 174.431 39.3439 174.488 44.1007L174.491 44.1041Z" fill="#F5E9FF" style="fill:#F5E9FF;fill:color(display-p3 0.9608 0.9137 1.0000);fill-opacity:1;"/>
<path d="M152.648 66.7754H157.77V79.8461L171.099 66.7754H177.659L165.218 78.8283L177.659 92.0282H170.84L161.534 82.3989L157.77 86.0341V92.0282H152.648V66.7754Z" fill="#F5E9FF" style="fill:#F5E9FF;fill:color(display-p3 0.9608 0.9137 1.0000);fill-opacity:1;"/>
<path d="M125.117 66.7754H146.622V71.2669H130.239V76.3078H144.748V80.5247H130.239V87.5528H146.961V92.0282H125.117V66.7754Z" fill="#F5E9FF" style="fill:#F5E9FF;fill:color(display-p3 0.9608 0.9137 1.0000);fill-opacity:1;"/>
<path d="M97.5862 66.7754H119.091V71.2669H102.708V76.3078H117.217V80.5247H102.708V87.5528H119.43V92.0282H97.5862V66.7754Z" fill="#F5E9FF" style="fill:#F5E9FF;fill:color(display-p3 0.9608 0.9137 1.0000);fill-opacity:1;"/>
<path d="M53.0585 66.7754H58.6487L65.4991 83.0774L67.0824 87.0197L68.3265 83.0774L70.8469 77.1318L66.3069 66.7754H71.574L73.432 71.7032L75.1608 66.7754H80.4278L75.8878 77.1318L78.4567 83.2067L80.0078 87.0197L81.2034 83.1421L88.0861 66.7754H93.6763L82.5282 92.0282H77.455L75.2092 87.0197L73.3835 82.1565L71.5578 87.0197L69.2797 92.0282H64.2066L53.0585 66.7754Z" fill="#F5E9FF" style="fill:#F5E9FF;fill:color(display-p3 0.9608 0.9137 1.0000);fill-opacity:1;"/>
<defs>
<linearGradient id="paint0_linear_1_2475" x1="65.6036" y1="17.5784" x2="30.4467" y2="78.4719" gradientUnits="userSpaceOnUse">
<stop stop-color="#FFB54A" style="stop-color:#FFB54A;stop-color:color(display-p3 1.0000 0.7098 0.2902);stop-opacity:1;"/>
<stop offset="1" stop-color="#A53AD8" style="stop-color:#A53AD8;stop-color:color(display-p3 0.6471 0.2275 0.8471);stop-opacity:1;"/>
</linearGradient>
</defs>
</svg>
