<svg width="226" height="45" viewBox="0 0 226 45" fill="none" xmlns="http://www.w3.org/2000/svg">
<path d="M119.861 30.3228L128.414 24.4605C129.697 23.5821 130.748 22.8176 131.566 22.1651C132.384 21.5146 133.024 20.9318 133.491 20.4207C133.956 19.9097 134.277 19.4472 134.453 19.0333C134.628 18.6194 134.717 18.2055 134.717 17.7916C134.717 17.3165 134.618 16.8709 134.421 16.457C134.224 16.0431 133.916 15.6819 133.497 15.3715C133.079 15.0611 132.54 14.8182 131.883 14.643C131.225 14.4677 130.441 14.379 129.53 14.379C128.205 14.379 126.886 14.5648 125.572 14.9365C124.257 15.3082 122.917 15.9037 121.552 16.7209L119.286 12.9979C120.808 12.0582 122.454 11.3233 124.23 10.7953C126.005 10.2674 127.869 10.0034 129.826 10.0034C131.534 10.0034 133.016 10.2083 134.273 10.6158C135.531 11.0255 136.57 11.5809 137.393 12.2841C138.215 12.9873 138.828 13.8046 139.231 14.7338C139.635 15.6651 139.836 16.6512 139.836 17.6966C139.836 18.5033 139.7 19.2741 139.432 20.0068C139.164 20.7417 138.692 21.502 138.02 22.2875C137.348 23.0731 136.439 23.9178 135.296 24.8238C134.153 25.7276 132.711 26.7539 130.974 27.9027L127.436 30.2299H140.723V34.5421H119.861V30.3228Z" fill="url(#paint0_linear_1_2435)" style=""/>
<path d="M144.99 22.3657C144.99 20.4123 145.286 18.6595 145.876 17.1074C146.466 15.5573 147.305 14.2417 148.391 13.1605C149.477 12.0793 150.796 11.2557 152.35 10.6876C153.901 10.1196 155.64 9.83447 157.566 9.83447C159.491 9.83447 161.228 10.1196 162.782 10.6876C164.333 11.2557 165.654 12.0814 166.74 13.1605C167.827 14.2417 168.666 15.5573 169.255 17.1074C169.845 18.6574 170.141 20.4102 170.141 22.3657C170.141 24.3212 169.845 26.0718 169.255 27.624C168.666 29.174 167.827 30.4875 166.74 31.5624C165.654 32.6373 164.335 33.4588 162.782 34.0289C161.23 34.597 159.491 34.8821 157.566 34.8821C155.64 34.8821 153.903 34.597 152.35 34.0289C150.798 33.4609 149.477 32.6394 148.391 31.5624C147.305 30.4875 146.466 29.174 145.876 27.624C145.286 26.0739 144.99 24.3212 144.99 22.3657ZM149.911 22.3509C149.911 23.675 150.088 24.8428 150.445 25.8564C150.803 26.8701 151.312 27.7211 151.973 28.4074C152.635 29.0959 153.438 29.6175 154.379 29.9744C155.319 30.3312 156.38 30.5086 157.561 30.5086C158.743 30.5086 159.802 30.3312 160.744 29.9744C161.685 29.6175 162.488 29.0959 163.149 28.4074C163.811 27.719 164.32 26.8701 164.677 25.8564C165.035 24.8428 165.212 23.675 165.212 22.3509C165.212 21.0268 165.035 19.878 164.677 18.8686C164.32 17.8613 163.811 17.0102 163.149 16.3176C162.488 15.6249 161.685 15.0991 160.744 14.7443C159.802 14.3874 158.743 14.21 157.561 14.21C156.38 14.21 155.321 14.3874 154.379 14.7443C153.436 15.1012 152.635 15.627 151.973 16.3176C151.312 17.0102 150.8 17.8613 150.445 18.8686C150.088 19.8759 149.911 21.0374 149.911 22.3509Z" fill="url(#paint1_linear_1_2435)" style=""/>
<path d="M175.568 30.3228L184.122 24.4605C185.404 23.5821 186.455 22.8176 187.273 22.1651C188.091 21.5146 188.731 20.9318 189.198 20.4207C189.663 19.9097 189.984 19.4472 190.16 19.0333C190.335 18.6194 190.424 18.2055 190.424 17.7916C190.424 17.3165 190.325 16.8709 190.128 16.457C189.931 16.0431 189.623 15.6819 189.204 15.3715C188.786 15.0611 188.247 14.8182 187.59 14.643C186.932 14.4677 186.148 14.379 185.237 14.379C183.912 14.379 182.593 14.5648 181.279 14.9365C179.964 15.3082 178.624 15.9037 177.259 16.7209L174.993 12.9979C176.515 12.0582 178.162 11.3233 179.937 10.7953C181.712 10.2674 183.576 10.0034 185.533 10.0034C187.241 10.0034 188.723 10.2083 189.98 10.6158C191.238 11.0255 192.277 11.5809 193.1 12.2841C193.922 12.9873 194.535 13.8046 194.938 14.7338C195.342 15.6651 195.543 16.6512 195.543 17.6966C195.543 18.5033 195.407 19.2741 195.139 20.0068C194.871 20.7417 194.399 21.502 193.727 22.2875C193.055 23.0731 192.146 23.9178 191.003 24.8238C189.86 25.7276 188.418 26.7539 186.681 27.9027L183.143 30.2299H196.43V34.5421H175.568V30.3228Z" fill="url(#paint2_linear_1_2435)" style=""/>
<path d="M201.661 25.0498L215.849 10.3013H220.769V25.0498H226V29.362H220.769V34.5422H215.849V29.362H201.632L201.663 25.0498H201.661ZM215.849 25.0498V16.5204L207.56 25.0498H215.849Z" fill="url(#paint3_linear_1_2435)" style=""/>
<g clip-path="url(#clip0_1_2435)">
<path d="M50.3022 17.7008V21.8652C50.3022 24.6126 48.5533 25.9958 45.0532 26.0148H39.8611C36.4729 25.9958 34.7239 24.6949 34.6121 22.1122V19.2001H39.6016V20.5833C39.6396 21.5737 40.34 22.0679 41.7093 22.0679H43.1882C44.6291 22.0679 45.3317 21.5104 45.2958 20.3933V18.5159C45.2578 17.3228 43.6629 16.3513 40.5088 15.6038C36.6775 14.9048 34.707 13.0612 34.5952 10.071V7.04268C34.5952 4.29528 36.3442 2.91207 39.8443 2.89307H45.0363C48.5343 2.91207 50.2854 4.29528 50.2854 7.04268V9.67816H45.2958V8.30974C45.2578 7.31932 44.5574 6.82517 43.1882 6.82517H41.7093C40.2683 6.82517 39.5658 7.38268 39.6016 8.4998V9.30016C39.6396 10.6876 41.2219 11.7224 44.3507 12.4002C48.2811 12.9239 50.2643 14.6915 50.3001 17.6986L50.3022 17.7008Z" fill="#F5E9FF" style="fill:#F5E9FF;fill:color(display-p3 0.9608 0.9137 1.0000);fill-opacity:1;"/>
<path d="M67.9145 8.47005L73.7162 26.0125H68.0052L66.6739 21.5862H60.2055L58.8194 26.0125H53.2939L60.889 2.9668H60.927L67.9123 8.47005H67.9145ZM65.5684 17.8315L63.5178 10.9746L61.3743 17.8315H65.5684Z" fill="#F5E9FF" style="fill:#F5E9FF;fill:color(display-p3 0.9608 0.9137 1.0000);fill-opacity:1;"/>
<path d="M88.4463 6.78069H84.4927V26.0273H79.577V6.78069H73.6824V2.90771H83.5328L88.4484 6.78069H88.4463Z" fill="#F5E9FF" style="fill:#F5E9FF;fill:color(display-p3 0.9608 0.9137 1.0000);fill-opacity:1;"/>
<path d="M109.605 17.7008V21.8652C109.605 24.6126 107.856 25.9958 104.356 26.0148H99.1639C95.7756 25.9958 94.0266 24.6949 93.9148 22.1122V19.2001H98.9044V20.5833C98.9423 21.5737 99.6428 22.0679 101.012 22.0679H102.491C103.932 22.0679 104.634 21.5104 104.599 20.3933V18.5159C104.561 17.3228 102.966 16.3513 99.8116 15.6038C95.9803 14.9048 94.0098 13.0612 93.8979 10.071V7.04268C93.8979 4.29528 95.6469 2.91207 99.147 2.89307H104.339C107.837 2.91207 109.588 4.29528 109.588 7.04268V9.67816H104.599V8.30974C104.561 7.31932 103.86 6.82517 102.491 6.82517H101.012C99.571 6.82517 98.8685 7.38268 98.9044 8.4998V9.30016C98.9423 10.6876 100.525 11.7224 103.653 12.4002C107.584 12.9239 109.567 14.6915 109.603 17.6986L109.605 17.7008Z" fill="#F5E9FF" style="fill:#F5E9FF;fill:color(display-p3 0.9608 0.9137 1.0000);fill-opacity:1;"/>
<path d="M41.4583 44.3472C40.1439 44.3472 39.0237 44.1191 38.0975 43.6587C37.1713 43.2005 36.416 42.5965 35.8316 41.8468C35.2472 41.0972 34.8168 40.2863 34.5405 39.4162C34.2641 38.5462 34.127 37.6993 34.127 36.8779V36.4386C34.127 35.5369 34.2683 34.6457 34.551 33.7694C34.8337 32.893 35.2662 32.0968 35.8527 31.3788C36.4371 30.6629 37.1861 30.0885 38.0996 29.6556C39.0131 29.2248 40.0933 29.0073 41.3423 29.0073C42.5912 29.0073 43.779 29.246 44.7516 29.7253C45.7242 30.2026 46.4985 30.8678 47.0765 31.7167C47.6546 32.5656 48.0027 33.5624 48.1209 34.7049H45.2833C45.1904 34.0418 44.9647 33.4843 44.6039 33.0323C44.2432 32.5804 43.7832 32.2362 43.2242 31.9976C42.6651 31.759 42.0385 31.6386 41.3423 31.6386C40.6461 31.6386 40.0216 31.7653 39.4709 32.0166C38.9182 32.27 38.4583 32.6206 38.0912 33.0725C37.7241 33.5244 37.4435 34.0544 37.2536 34.6669C37.0637 35.2772 36.9688 35.9487 36.9688 36.6794C36.9688 37.41 37.0637 38.0605 37.2536 38.6708C37.4435 39.2811 37.7304 39.8153 38.1101 40.2736C38.492 40.7318 38.9604 41.0866 39.5195 41.34C40.0785 41.5913 40.7241 41.718 41.4604 41.718C42.5385 41.718 43.4436 41.4498 44.1799 40.9113C44.9162 40.3728 45.3634 39.621 45.5196 38.6496H48.3572C48.2264 39.6865 47.8782 40.6347 47.3128 41.4984C46.7474 42.3621 45.9732 43.0527 44.9879 43.5701C44.0027 44.0874 42.8254 44.3472 41.4604 44.3472H41.4583Z" fill="#F5E9FF" style="fill:#F5E9FF;fill:color(display-p3 0.9608 0.9137 1.0000);fill-opacity:1;"/>
<path d="M62.7836 44.3472C61.4819 44.3472 60.3553 44.1191 59.4038 43.6587C58.4502 43.2005 57.6632 42.5923 57.0387 41.8363C56.4143 41.0803 55.9522 40.2672 55.6484 39.3972C55.3467 38.5272 55.1948 37.6888 55.1948 36.8779V36.4386C55.1948 35.5496 55.3531 34.6626 55.6674 33.7799C55.9818 32.8972 56.4586 32.0968 57.0957 31.3788C57.7328 30.6629 58.524 30.0885 59.4713 29.6556C60.4164 29.2248 61.5219 29.0073 62.7836 29.0073C64.0452 29.0073 65.1507 29.2227 66.1043 29.6556C67.0579 30.0864 67.8512 30.6608 68.4883 31.3788C69.1254 32.0968 69.6022 32.8951 69.9166 33.7799C70.2309 34.6626 70.3892 35.5496 70.3892 36.4386V36.8779C70.3892 37.6888 70.2352 38.5272 69.925 39.3972C69.617 40.2672 69.1487 41.0803 68.5263 41.8363C67.9018 42.5923 67.1128 43.2005 66.1613 43.6587C65.2077 44.117 64.0811 44.3472 62.7815 44.3472H62.7836ZM62.7836 41.718C63.5199 41.718 64.1823 41.585 64.7752 41.3189C65.3659 41.0528 65.868 40.6854 66.2836 40.2123C66.6971 39.7414 67.0136 39.2029 67.2288 38.599C67.4461 37.995 67.5537 37.3551 67.5537 36.6772C67.5537 35.9592 67.4419 35.2962 67.2182 34.6859C66.9946 34.0756 66.676 33.5413 66.2625 33.083C65.849 32.6248 65.349 32.27 64.7646 32.0166C64.1802 31.7653 63.5199 31.6386 62.7836 31.6386C62.0473 31.6386 61.4038 31.7653 60.8131 32.0166C60.2223 32.27 59.7202 32.6248 59.3046 33.083C58.8911 33.5413 58.5746 34.0756 58.3594 34.6859C58.1421 35.2962 58.0345 35.9614 58.0345 36.6772C58.0345 37.3551 58.1421 37.995 58.3594 38.599C58.5767 39.2029 58.8911 39.7414 59.3046 40.2123C59.7181 40.6833 60.2202 41.0528 60.8131 41.3189C61.4038 41.585 62.062 41.718 62.7836 41.718Z" fill="#F5E9FF" style="fill:#F5E9FF;fill:color(display-p3 0.9608 0.9137 1.0000);fill-opacity:1;"/>
<path d="M78.3915 43.9692V29.4297H82.9844L89.0161 41.6188H89.687L89.2925 41.9778V29.4297H91.9339V43.9692H87.303L81.2713 31.7801H80.6004L80.9949 31.4211V43.9692H78.3936H78.3915Z" fill="#F5E9FF" style="fill:#F5E9FF;fill:color(display-p3 0.9608 0.9137 1.0000);fill-opacity:1;"/>
<path d="M100.801 43.9692V29.4297H103.601V43.9692H100.801ZM103.206 31.8202V29.4297H109.238V31.8202H103.206ZM103.206 37.9148V35.5242L108.961 35.5052V37.9148H103.206Z" fill="#F5E9FF" style="fill:#F5E9FF;fill:color(display-p3 0.9608 0.9137 1.0000);fill-opacity:1;"/>
<path d="M15.7984 40.7837C5.64001 37.3838 0.148354 26.2548 3.5366 15.9346C6.88898 5.7242 17.8997 0.159701 28.0391 3.54908C30.7945 4.46981 33.208 5.95649 35.1975 7.83807C35.1426 7.4833 35.1131 7.11163 35.1131 6.72306C35.1131 5.9755 35.2165 5.29551 35.419 4.67676C33.4928 3.16263 31.2839 1.94836 28.8324 1.12689C17.3406 -2.71863 4.93325 3.57865 1.12516 15.1891C-2.69347 26.8292 3.5366 39.3688 15.0516 43.2186C22.3639 45.664 30.0371 44.0084 35.6363 39.4934C35.1236 38.767 34.7291 37.9941 34.457 37.1705C29.4632 41.4109 22.4589 43.0116 15.8005 40.7837H15.7984Z" fill="#F5E9FF" style="fill:#F5E9FF;fill:color(display-p3 0.9608 0.9137 1.0000);fill-opacity:1;"/>
<path d="M28.1798 15.7792C27.4477 15.171 26.5975 14.8268 25.8528 14.5713L26.5827 12.3392C26.6439 12.1533 26.5427 11.9527 26.357 11.8894L24.2895 11.1988C24.1987 11.1693 24.1017 11.1756 24.0173 11.2178C23.9329 11.2601 23.8675 11.3361 23.838 11.4248L23.1122 13.64L22.205 13.3359L22.9287 11.1228C22.9899 10.937 22.8886 10.7363 22.7029 10.673L20.6248 9.97822C20.5341 9.94866 20.4371 9.95499 20.3527 9.99723C20.2683 10.0395 20.2029 10.1155 20.1733 10.2042L19.4455 12.4258L15.8062 11.2094C15.7155 11.1798 15.6184 11.1862 15.534 11.2284C15.4496 11.2706 15.3842 11.3466 15.3547 11.4353L14.61 13.7097C14.5488 13.8955 14.65 14.0962 14.8357 14.1595L15.264 14.301C15.5762 14.4045 15.8821 14.5058 16.1902 14.6114C16.6142 14.7571 16.8568 15.1415 16.8125 15.5913C16.8041 15.68 16.7746 15.775 16.745 15.8679C16.475 16.6936 16.2049 17.5193 15.9328 18.345C15.3209 20.2097 14.688 22.1378 14.0783 24.0405C13.9834 24.3361 13.7914 24.5663 13.5382 24.6845C13.304 24.7944 13.0488 24.7986 12.7956 24.6972C12.5319 24.5916 12.2618 24.5072 12.0023 24.4227C11.8926 24.3889 11.7829 24.353 11.6732 24.3171C11.6331 24.3044 11.5909 24.2939 11.5487 24.2833L11.5065 24.2728C11.3251 24.2263 11.1352 24.3277 11.0761 24.5072L10.3335 26.7773C10.2723 26.9631 10.3736 27.1638 10.5593 27.2271L14.2175 28.4498L13.4813 30.6988C13.4201 30.8847 13.5213 31.0853 13.707 31.1487L15.7809 31.8413C15.8716 31.8709 15.9686 31.8645 16.053 31.8223C16.1374 31.7801 16.2028 31.7041 16.2324 31.6154L16.9644 29.379L17.8674 29.681L17.1332 31.9216C17.072 32.1074 17.1733 32.308 17.359 32.3714L19.4286 33.064C19.4645 33.0767 19.5024 33.083 19.5425 33.083C19.5974 33.083 19.6522 33.0704 19.7029 33.045C19.7873 33.0028 19.8527 32.9268 19.8822 32.8381L20.6185 30.5869C20.6185 30.5869 20.6291 30.5911 20.6333 30.5933C21.7282 30.967 22.8422 31.1613 23.9477 31.1634C24.9962 31.1571 25.8 30.91 26.4857 30.3546C27.5279 29.5099 28.1756 28.4266 28.4098 27.1363C28.6672 25.7235 28.3043 24.5283 27.3296 23.5801C27.1819 23.4365 27.0279 23.2971 26.8739 23.1641C28.4034 22.6763 29.3655 21.5845 29.6693 19.9795C29.9858 18.3049 29.471 16.852 28.1798 15.7813V15.7792ZM19.1797 22.634C19.4181 22.7122 19.6544 22.7903 19.8928 22.8684C20.6185 23.1071 21.3675 23.352 22.0932 23.6139C22.7536 23.8525 23.2325 24.2833 23.5152 24.8978C23.724 25.3476 23.7451 25.8291 23.5785 26.2536C23.4076 26.6865 23.0531 27.0328 22.5785 27.225C22.0194 27.4531 21.4371 27.4721 20.8485 27.282C20.129 27.0497 19.4138 26.809 18.6986 26.5682L17.9708 26.3233L19.1797 22.6319V22.634ZM23.684 20.6405C23.3759 20.801 23.0869 20.8264 22.7768 20.7208C22.108 20.4927 21.4392 20.2688 20.7683 20.0471L20.0995 19.8233L21.2514 16.3051L21.9181 16.5289C22.5806 16.7506 23.2409 16.9724 23.9055 17.1899C24.2346 17.2976 24.4603 17.4982 24.6144 17.8213C25.0658 18.7653 24.6059 20.1633 23.6861 20.6426L23.684 20.6405Z" fill="#F5E9FF" style="fill:#F5E9FF;fill:color(display-p3 0.9608 0.9137 1.0000);fill-opacity:1;"/>
</g>
<defs>
<linearGradient id="paint0_linear_1_2435" x1="113.123" y1="22.2728" x2="229.694" y2="22.2728" gradientUnits="userSpaceOnUse">
<stop stop-color="#A53AD8" style="stop-color:#A53AD8;stop-color:color(display-p3 0.6471 0.2275 0.8471);stop-opacity:1;"/>
<stop offset="1" stop-color="#FFB54A" style="stop-color:#FFB54A;stop-color:color(display-p3 1.0000 0.7098 0.2902);stop-opacity:1;"/>
</linearGradient>
<linearGradient id="paint1_linear_1_2435" x1="113.124" y1="22.3572" x2="229.694" y2="22.3572" gradientUnits="userSpaceOnUse">
<stop stop-color="#A53AD8" style="stop-color:#A53AD8;stop-color:color(display-p3 0.6471 0.2275 0.8471);stop-opacity:1;"/>
<stop offset="1" stop-color="#FFB54A" style="stop-color:#FFB54A;stop-color:color(display-p3 1.0000 0.7098 0.2902);stop-opacity:1;"/>
</linearGradient>
<linearGradient id="paint2_linear_1_2435" x1="113.124" y1="-45.3649" x2="229.694" y2="-45.3649" gradientUnits="userSpaceOnUse">
<stop stop-color="#A53AD8" style="stop-color:#A53AD8;stop-color:color(display-p3 0.6471 0.2275 0.8471);stop-opacity:1;"/>
<stop offset="1" stop-color="#FFB54A" style="stop-color:#FFB54A;stop-color:color(display-p3 1.0000 0.7098 0.2902);stop-opacity:1;"/>
</linearGradient>
<linearGradient id="paint3_linear_1_2435" x1="113.123" y1="22.4207" x2="229.694" y2="22.4207" gradientUnits="userSpaceOnUse">
<stop stop-color="#A53AD8" style="stop-color:#A53AD8;stop-color:color(display-p3 0.6471 0.2275 0.8471);stop-opacity:1;"/>
<stop offset="1" stop-color="#FFB54A" style="stop-color:#FFB54A;stop-color:color(display-p3 1.0000 0.7098 0.2902);stop-opacity:1;"/>
</linearGradient>
<clipPath id="clip0_1_2435">
<rect width="111.126" height="44.4506" fill="white" style="fill:white;fill-opacity:1;"/>
</clipPath>
</defs>
</svg>
