<svg width="314" height="79" viewBox="0 0 314 79" fill="none" xmlns="http://www.w3.org/2000/svg">
<g clip-path="url(#clip0_163_412)">
<path d="M74.5868 33.2461V39.4209C74.5868 43.4947 71.9935 45.5456 66.8037 45.5738H59.1051C54.0811 45.5456 51.4878 43.6168 51.322 39.7873V35.4693H58.7203V37.5202C58.7766 38.9888 59.8152 39.7215 61.8454 39.7215H64.0383C66.1749 39.7215 67.2166 38.8949 67.1635 37.2384V34.4548C67.1072 32.6856 64.7422 31.2452 60.0655 30.1368C54.3846 29.1003 51.4628 26.3667 51.297 21.9329V17.4427C51.297 13.3689 53.8903 11.318 59.0801 11.2898H66.7787C71.9653 11.318 74.5618 13.3689 74.5618 17.4427V21.3505H67.1635V19.3214C67.1072 17.8529 66.0686 17.1202 64.0383 17.1202H61.8454C59.7089 17.1202 58.6671 17.9468 58.7203 19.6033V20.79C58.7766 22.8472 61.1228 24.3815 65.762 25.3867C71.5899 26.1632 74.5305 28.7841 74.5837 33.243L74.5868 33.2461Z" fill="#F5E9FF" style="fill:#F5E9FF;fill:color(display-p3 0.9608 0.9137 1.0000);fill-opacity:1;"/>
<path d="M100.701 19.5594L109.304 45.5707H100.836L98.862 39.0076H89.2708L87.2156 45.5707H79.0227L90.2844 11.3994H90.3407L100.698 19.5594H100.701ZM97.2228 33.4403L94.1822 23.2731L91.0039 33.4403H97.2228Z" fill="#F5E9FF" style="fill:#F5E9FF;fill:color(display-p3 0.9608 0.9137 1.0000);fill-opacity:1;"/>
<path d="M131.145 17.0545H125.283V45.5926H117.994V17.0545H109.254V11.3118H123.86L131.148 17.0545H131.145Z" fill="#F5E9FF" style="fill:#F5E9FF;fill:color(display-p3 0.9608 0.9137 1.0000);fill-opacity:1;"/>
<path d="M162.519 33.2461V39.4209C162.519 43.4947 159.925 45.5456 154.736 45.5738H147.037C142.013 45.5456 139.42 43.6168 139.254 39.7873V35.4693H146.652V37.5202C146.709 38.9888 147.747 39.7215 149.777 39.7215H151.97C154.107 39.7215 155.149 38.8949 155.095 37.2384V34.4548C155.039 32.6856 152.674 31.2452 147.997 30.1368C142.316 29.1003 139.395 26.3667 139.229 21.9329V17.4427C139.229 13.3689 141.822 11.318 147.012 11.2898H154.711C159.897 11.318 162.494 13.3689 162.494 17.4427V21.3505H155.095V19.3214C155.039 17.8529 154 17.1202 151.97 17.1202H149.777C147.641 17.1202 146.599 17.9468 146.652 19.6033V20.79C146.709 22.8472 149.055 24.3815 153.694 25.3867C159.522 26.1632 162.462 28.7841 162.516 33.243L162.519 33.2461Z" fill="#F5E9FF" style="fill:#F5E9FF;fill:color(display-p3 0.9608 0.9137 1.0000);fill-opacity:1;"/>
<path d="M61.4732 72.7561C59.5243 72.7561 57.8632 72.4179 56.4899 71.7353C55.1166 71.0558 53.9967 70.1603 53.1302 69.0487C52.2636 67.9371 51.6255 66.7347 51.2157 65.4446C50.8059 64.1546 50.6025 62.8989 50.6025 61.6809V61.0296C50.6025 59.6926 50.8121 58.3712 51.2313 57.0717C51.6505 55.7722 52.2918 54.5918 53.1614 53.5271C54.028 52.4656 55.1385 51.6139 56.493 50.972C57.8476 50.3333 59.4492 50.0107 61.3011 50.0107C63.1531 50.0107 64.9143 50.3646 66.3564 51.0754C67.7985 51.783 68.9466 52.7694 69.8037 54.0281C70.6609 55.2869 71.177 56.7648 71.3522 58.4588H67.1447C67.0071 57.4756 66.6723 56.649 66.1374 55.9789C65.6025 55.3088 64.9205 54.7984 64.0915 54.4446C63.2626 54.0908 62.3335 53.9123 61.3011 53.9123C60.2688 53.9123 59.3429 54.1001 58.5264 54.4728C57.7068 54.8485 57.0248 55.3683 56.4805 56.0384C55.9362 56.7085 55.5201 57.4944 55.2386 58.4025C54.9571 59.3074 54.8163 60.3031 54.8163 61.3866C54.8163 62.47 54.9571 63.4344 55.2386 64.3393C55.5201 65.2442 55.9456 66.0365 56.5087 66.7159C57.0749 67.3954 57.7694 67.9215 58.5983 68.2972C59.4273 68.6698 60.3846 68.8577 61.4763 68.8577C63.0749 68.8577 64.4169 68.46 65.5086 67.6616C66.6004 66.8631 67.2636 65.7484 67.4951 64.308H71.7026C71.5086 65.8455 70.9925 67.2514 70.1541 68.5321C69.3157 69.8127 68.1676 70.8367 66.7068 71.6038C65.2459 72.371 63.5003 72.7561 61.4763 72.7561H61.4732Z" fill="#F5E9FF" style="fill:#F5E9FF;fill:color(display-p3 0.9608 0.9137 1.0000);fill-opacity:1;"/>
<path d="M93.0935 72.7561C91.1634 72.7561 89.4929 72.4179 88.082 71.7353C86.6681 71.0558 85.5012 70.154 84.5753 69.0331C83.6493 67.9121 82.9642 66.7065 82.5138 65.4165C82.0664 64.1264 81.8412 62.8833 81.8412 61.6809V61.0296C81.8412 59.7113 82.0758 58.3962 82.5419 57.0874C83.008 55.7785 83.715 54.5918 84.6597 53.5271C85.6045 52.4656 86.7776 51.6139 88.1821 50.972C89.5836 50.3333 91.2228 50.0107 93.0935 50.0107C94.9642 50.0107 96.6034 50.3301 98.0173 50.972C99.4313 51.6108 100.608 52.4625 101.552 53.5271C102.497 54.5918 103.204 55.7754 103.67 57.0874C104.136 58.3962 104.371 59.7113 104.371 61.0296V61.6809C104.371 62.8833 104.142 64.1264 103.683 65.4165C103.226 66.7065 102.531 67.9121 101.609 69.0331C100.683 70.154 99.5127 71.0558 98.1018 71.7353C96.6878 72.4148 95.0174 72.7561 93.0904 72.7561H93.0935ZM93.0935 68.8577C94.1852 68.8577 95.1675 68.6604 96.0466 68.2659C96.9225 67.8714 97.667 67.3265 98.2832 66.6251C98.8964 65.9269 99.3656 65.1284 99.6847 64.2329C100.007 63.3373 100.166 62.3886 100.166 61.3834C100.166 60.3188 100.001 59.3356 99.6691 58.4307C99.3375 57.5257 98.8651 56.7335 98.252 56.054C97.6388 55.3746 96.8974 54.8485 96.0309 54.4728C95.1644 54.1001 94.1852 53.9123 93.0935 53.9123C92.0017 53.9123 91.0476 54.1001 90.1717 54.4728C89.2958 54.8485 88.5513 55.3746 87.935 56.054C87.3219 56.7335 86.8526 57.5257 86.5336 58.4307C86.2113 59.3356 86.0518 60.3219 86.0518 61.3834C86.0518 62.3886 86.2113 63.3373 86.5336 64.2329C86.8558 65.1284 87.3219 65.9269 87.935 66.6251C88.5482 67.3234 89.2927 67.8714 90.1717 68.2659C91.0476 68.6604 92.0236 68.8577 93.0935 68.8577Z" fill="#F5E9FF" style="fill:#F5E9FF;fill:color(display-p3 0.9608 0.9137 1.0000);fill-opacity:1;"/>
<path d="M116.236 72.1956V50.637H123.047L131.99 68.7105H132.985L132.4 69.2428V50.637H136.317V72.1956H129.45L120.506 54.122H119.512L120.097 53.5897V72.1956H116.239H116.236Z" fill="#F5E9FF" style="fill:#F5E9FF;fill:color(display-p3 0.9608 0.9137 1.0000);fill-opacity:1;"/>
<path d="M149.464 72.1956V50.637H153.616V72.1956H149.464ZM153.031 54.1815V50.637H161.974V54.1815H153.031ZM153.031 63.2183V59.6737L161.565 59.6456V63.2183H153.031Z" fill="#F5E9FF" style="fill:#F5E9FF;fill:color(display-p3 0.9608 0.9137 1.0000);fill-opacity:1;"/>
<path d="M23.4253 67.4725C8.36283 62.4312 0.220003 45.9296 5.24397 30.6272C10.2147 15.4876 26.5411 7.23676 41.5754 12.2624C45.6609 13.6276 49.2396 15.832 52.1896 18.622C52.1082 18.0959 52.0644 17.5448 52.0644 16.9687C52.0644 15.8602 52.2177 14.852 52.518 13.9345C49.6619 11.6894 46.3867 9.88893 42.7516 8.67087C25.7121 2.96888 7.31487 12.3063 1.66838 29.5218C-3.99375 46.7813 5.24396 65.3746 22.3179 71.0829C33.1604 74.7088 44.5379 72.254 52.8402 65.5593C52.0801 64.4822 51.4951 63.3362 51.0915 62.115C43.687 68.4025 33.3012 70.776 23.4285 67.4725H23.4253Z" fill="#F5E9FF" style="fill:#F5E9FF;fill:color(display-p3 0.9608 0.9137 1.0000);fill-opacity:1;"/>
<path d="M41.7841 30.3964C40.6986 29.4946 39.4379 28.9842 38.3336 28.6054L39.416 25.2956C39.5067 25.0201 39.3565 24.7226 39.0813 24.6287L36.0156 23.6048C35.8811 23.5609 35.7372 23.5703 35.612 23.6329C35.4869 23.6956 35.3899 23.8083 35.3461 23.9398L34.27 27.2245L32.9249 26.7736L33.9979 23.492C34.0886 23.2165 33.9384 22.919 33.6631 22.8251L30.5818 21.7949C30.4473 21.7511 30.3034 21.7605 30.1783 21.8231C30.0531 21.8857 29.9562 21.9984 29.9124 22.1299L28.8331 25.424L23.4369 23.6204C23.3024 23.5766 23.1585 23.586 23.0334 23.6486C22.9082 23.7112 22.8113 23.8239 22.7675 23.9555L21.6632 27.3278C21.5725 27.6034 21.7226 27.9008 21.9979 27.9948L22.6329 28.2046C23.0959 28.358 23.5495 28.5083 24.0062 28.6649C24.635 28.8809 24.9948 29.4508 24.9291 30.1177C24.9166 30.2493 24.8728 30.3902 24.829 30.5279C24.4286 31.7523 24.0281 32.9766 23.6246 34.2009C22.7174 36.9658 21.7789 39.8246 20.8749 42.6459C20.7341 43.0842 20.4494 43.4255 20.074 43.6009C19.7268 43.7637 19.3483 43.77 18.9729 43.6197C18.5819 43.4631 18.1814 43.3379 17.7967 43.2126C17.634 43.1625 17.4713 43.1093 17.3087 43.0561C17.2492 43.0373 17.1867 43.0216 17.1241 43.006L17.0615 42.9903C16.7925 42.9214 16.511 43.0717 16.4234 43.3379L15.3222 46.704C15.2315 46.9795 15.3817 47.277 15.657 47.3709L21.0813 49.1839L19.9896 52.5187C19.8989 52.7942 20.049 53.0917 20.3243 53.1856L23.3994 54.2127C23.5339 54.2565 23.6778 54.2471 23.8029 54.1845C23.928 54.1219 24.025 54.0092 24.0688 53.8776L25.1543 50.5616L26.4932 51.0094L25.4046 54.3317C25.3139 54.6072 25.464 54.9047 25.7393 54.9986L28.8081 56.0257C28.8613 56.0445 28.9176 56.0539 28.977 56.0539C29.0584 56.0539 29.1397 56.0351 29.2148 55.9975C29.3399 55.9349 29.4369 55.8221 29.4807 55.6906L30.5724 52.3527C30.5724 52.3527 30.5881 52.359 30.5943 52.3621C32.2179 52.9163 33.8696 53.2044 35.5088 53.2076C37.0635 53.1982 38.2554 52.8318 39.2721 52.0083C40.8174 50.7558 41.7778 49.1495 42.125 47.2363C42.5067 45.1415 41.9686 43.3692 40.5234 41.9633C40.3044 41.7503 40.076 41.5437 39.8477 41.3464C42.1157 40.6231 43.5421 39.0042 43.9926 36.6245C44.4618 34.1414 43.6986 31.9871 41.7841 30.3996V30.3964ZM28.439 40.5605C28.7925 40.6763 29.1428 40.7922 29.4963 40.908C30.5724 41.2619 31.683 41.6251 32.7591 42.0133C33.7382 42.3672 34.4483 43.006 34.8675 43.9171C35.1772 44.5841 35.2085 45.298 34.9614 45.9274C34.708 46.5693 34.1824 47.0828 33.4786 47.3678C32.6496 47.706 31.7862 47.7341 30.9134 47.4523C29.8467 47.1079 28.7862 46.7509 27.7257 46.394L26.6465 46.0307L28.439 40.5573V40.5605ZM35.1178 37.6046C34.6611 37.8425 34.2325 37.8801 33.7726 37.7235C32.781 37.3854 31.7893 37.0535 30.7945 36.7247L29.8029 36.3928L31.5109 31.1761L32.4994 31.508C33.4817 31.8368 34.4608 32.1656 35.4462 32.4881C35.9342 32.6478 36.269 32.9453 36.4973 33.4243C37.1668 34.824 36.4848 36.8969 35.1209 37.6077L35.1178 37.6046Z" fill="#F5E9FF" style="fill:#F5E9FF;fill:color(display-p3 0.9608 0.9137 1.0000);fill-opacity:1;"/>
</g>
<path d="M182.4 14.9194H193.197L208.301 51.5874L223.405 14.9194H234.203L213.131 63H203.472L182.4 14.9194ZM240.201 14.9194H250.014V63H240.201V14.9194ZM262.473 14.9194H287.82C291.512 14.9194 294.711 15.3193 297.418 16.1191C300.125 16.9189 302.371 18.0776 304.155 19.5952C305.939 21.0923 307.262 22.9277 308.123 25.1016C309.005 27.2754 309.446 29.7261 309.446 32.4536C309.446 35.0171 309.015 37.3857 308.154 39.5596C307.292 41.7334 305.97 43.6201 304.186 45.2197C302.422 46.7988 300.187 48.0396 297.479 48.9419C294.772 49.8237 291.573 50.2646 287.882 50.2646L272.224 50.2339V63H262.473V14.9194ZM288.066 41.8052C289.912 41.8052 291.522 41.5898 292.896 41.1592C294.291 40.708 295.449 40.0825 296.372 39.2827C297.315 38.4624 298.013 37.478 298.464 36.3296C298.936 35.1606 299.171 33.8687 299.171 32.4536C299.171 29.603 298.238 27.3882 296.372 25.8091C294.526 24.2095 291.758 23.4097 288.066 23.4097H272.224V41.8052H288.066Z" fill="url(#paint0_linear_163_412)" style=""/>
<defs>
<linearGradient id="paint0_linear_163_412" x1="-297.436" y1="39.4966" x2="334.012" y2="39.4966" gradientUnits="userSpaceOnUse">
<stop stop-color="#A53AD8" style="stop-color:#A53AD8;stop-color:color(display-p3 0.6471 0.2275 0.8471);stop-opacity:1;"/>
<stop offset="1" stop-color="#FFB54A" style="stop-color:#FFB54A;stop-color:color(display-p3 1.0000 0.7098 0.2902);stop-opacity:1;"/>
</linearGradient>
<clipPath id="clip0_163_412">
<rect width="164.774" height="65.9096" fill="white" style="fill:white;fill-opacity:1;" transform="translate(0 7)"/>
</clipPath>
</defs>
</svg>
