<svg width="179" height="90" viewBox="0 0 179 90" fill="none" xmlns="http://www.w3.org/2000/svg">
<path d="M119.098 73.6827C124.694 76.4256 130.918 77.6318 137.134 77.1778C143.349 76.7238 149.332 74.6259 154.47 71.099C159.607 67.572 163.715 62.7428 166.373 57.1059C169.03 51.469 170.141 45.2271 169.593 39.0194C169.044 32.8117 166.855 26.8614 163.25 21.778C159.646 16.6945 154.754 12.6606 149.078 10.0894C143.401 7.5182 137.143 6.50212 130.944 7.14522C124.746 7.78832 118.829 10.0675 113.801 13.7493L118.979 20.8204C122.754 18.0564 127.195 16.3454 131.849 15.8627C136.502 15.3799 141.2 16.1427 145.462 18.0729C149.723 20.0031 153.395 23.0314 156.101 26.8476C158.807 30.6638 160.451 35.1308 160.862 39.7909C161.274 44.4511 160.44 49.137 158.445 53.3687C156.45 57.6003 153.366 61.2257 149.509 63.8734C145.652 66.5211 141.161 68.0961 136.495 68.4369C131.829 68.7777 127.156 67.8722 122.956 65.8131L119.098 73.6827Z" fill="url(#paint0_linear_1_2486)" style=""/>
<path d="M28.6834 36.9083V43.4957C28.6834 47.8417 25.9168 50.0297 20.3803 50.0597H12.1672C6.80758 50.0297 4.04098 47.9719 3.8641 43.8865V39.28H11.7568V41.468C11.8168 43.0347 12.9248 43.8164 15.0907 43.8164H17.4301C19.7095 43.8164 20.8208 42.9345 20.7641 41.1674V38.1977C20.704 36.3103 18.181 34.7737 13.1918 33.5912C7.13129 32.4855 4.01428 29.5693 3.8374 24.8391V20.0489C3.8374 15.7029 6.60401 13.5149 12.1405 13.4849H20.3536C25.8868 13.5149 28.6567 15.7029 28.6567 20.0489V24.2178H20.7641V22.0532C20.704 20.4865 19.596 19.7048 17.4301 19.7048H15.0907C12.8113 19.7048 11.7 20.5867 11.7568 22.3538V23.6199C11.8168 25.8146 14.3198 27.4514 19.269 28.5237C25.4863 29.3521 28.6234 32.1481 28.6801 36.9049L28.6834 36.9083Z" fill="#F5E9FF" style="fill:#F5E9FF;fill:color(display-p3 0.9608 0.9137 1.0000);fill-opacity:1;"/>
<path d="M56.543 22.3068L65.7205 50.0562H56.6865L54.5807 43.0545H44.3486L42.156 50.0562H33.4156L45.4298 13.6016H45.4899L56.5396 22.3068H56.543ZM52.8319 37.1152L49.5881 26.2686L46.1974 37.1152H52.8319Z" fill="#F5E9FF" style="fill:#F5E9FF;fill:color(display-p3 0.9608 0.9137 1.0000);fill-opacity:1;"/>
<path d="M89.0214 19.6347H82.7673V50.0798H74.9915V19.6347H65.6671V13.5083H81.2489L89.0247 19.6347H89.0214Z" fill="#F5E9FF" style="fill:#F5E9FF;fill:color(display-p3 0.9608 0.9137 1.0000);fill-opacity:1;"/>
<path d="M122.491 36.9083V43.4957C122.491 47.8417 119.724 50.0297 114.188 50.0597H105.975C100.615 50.0297 97.8485 47.9719 97.6716 43.8865V39.28H105.564V41.468C105.624 43.0347 106.732 43.8164 108.898 43.8164H111.238C113.517 43.8164 114.628 42.9345 114.572 41.1674V38.1977C114.511 36.3103 111.989 34.7737 106.999 33.5912C100.939 32.4855 97.8218 29.5693 97.6449 24.8391V20.0489C97.6449 15.7029 100.412 13.5149 105.948 13.4849H114.161C119.694 13.5149 122.464 15.7029 122.464 20.0489V24.2178H114.572V22.0532C114.511 20.4865 113.404 19.7048 111.238 19.7048H108.898C106.619 19.7048 105.508 20.5867 105.564 22.3538V23.6199C105.624 25.8146 108.127 27.4514 113.076 28.5237C119.294 29.3521 122.431 32.1481 122.488 36.9049L122.491 36.9083Z" fill="#F5E9FF" style="fill:#F5E9FF;fill:color(display-p3 0.9608 0.9137 1.0000);fill-opacity:1;"/>
<path d="M3.14355 60.6719H14.8115C16.5107 60.6719 17.9834 60.856 19.2295 61.2241C20.4756 61.5923 21.5093 62.1257 22.3306 62.8242C23.1519 63.5133 23.7607 64.3582 24.1572 65.3589C24.5632 66.3595 24.7661 67.4876 24.7661 68.7432C24.7661 69.9232 24.5679 71.0135 24.1714 72.0142C23.7749 73.0148 23.166 73.8833 22.3447 74.6196C21.5329 75.3465 20.5039 75.9176 19.2578 76.333C18.0117 76.7389 16.5391 76.9419 14.8398 76.9419L7.63232 76.9277V82.8042H3.14355V60.6719ZM14.9248 73.0479C15.7744 73.0479 16.5155 72.9487 17.1479 72.7505C17.7899 72.5428 18.3232 72.2549 18.748 71.8867C19.1823 71.5091 19.5033 71.056 19.7109 70.5273C19.9281 69.9893 20.0366 69.3945 20.0366 68.7432C20.0366 67.431 19.6071 66.4115 18.748 65.6846C17.8984 64.9482 16.624 64.5801 14.9248 64.5801H7.63232V73.0479H14.9248ZM37.2271 60.6719H41.9849L52.6899 82.8042H47.9746L46.2046 79.0801H33.2764L31.563 82.8042H26.8335L37.2271 60.6719ZM44.4346 75.3843L39.6484 65.3306L34.9897 75.3843H44.4346ZM56.1309 60.6719H67.3882C69.0874 60.6719 70.5601 60.8512 71.8062 61.21C73.0522 61.5592 74.0859 62.069 74.9072 62.7393C75.7285 63.4095 76.3374 64.2261 76.7339 65.189C77.1398 66.1519 77.3428 67.2422 77.3428 68.46C77.3428 69.2812 77.2437 70.0648 77.0454 70.8105C76.8472 71.5469 76.5404 72.2266 76.125 72.8496C75.7191 73.4727 75.2046 74.0296 74.5815 74.5205C73.9585 75.002 73.2269 75.4032 72.3867 75.7241L77.2012 82.8042H71.707L67.5439 76.5171H67.4165L60.6196 76.5029V82.8042H56.1309V60.6719ZM67.5015 72.623C68.3511 72.623 69.0921 72.5239 69.7246 72.3257C70.3665 72.1274 70.8999 71.849 71.3247 71.4902C71.759 71.1315 72.0799 70.6973 72.2876 70.1875C72.5047 69.6683 72.6133 69.0924 72.6133 68.46C72.6133 67.2233 72.1885 66.2699 71.3389 65.5996C70.4893 64.9199 69.2101 64.5801 67.5015 64.5801H60.6196V72.623H67.5015ZM89.3364 64.6084H81.166V60.6719H101.996V64.6084H93.8252V82.8042H89.3364V64.6084ZM113.579 77.3242L103.907 60.6719H108.991L115.802 73.2603L122.528 60.6719H127.611L118.067 77.2959V82.8042H113.579V77.3242Z" fill="#F5E9FF" style="fill:#F5E9FF;fill:color(display-p3 0.9608 0.9137 1.0000);fill-opacity:1;"/>
<defs>
<linearGradient id="paint0_linear_1_2486" x1="123.908" y1="75.6147" x2="145.237" y2="8.61407" gradientUnits="userSpaceOnUse">
<stop stop-color="#FFB54A" style="stop-color:#FFB54A;stop-color:color(display-p3 1.0000 0.7098 0.2902);stop-opacity:1;"/>
<stop offset="1" stop-color="#A53AD8" style="stop-color:#A53AD8;stop-color:color(display-p3 0.6471 0.2275 0.8471);stop-opacity:1;"/>
</linearGradient>
</defs>
</svg>
