<svg width="212" height="122" viewBox="0 0 212 122" fill="none" xmlns="http://www.w3.org/2000/svg">
<path fill-rule="evenodd" clip-rule="evenodd" d="M51.5255 93.4196C51.5255 91.6979 50.1202 90.2926 48.3986 90.2926H36.6927C34.1543 90.2926 32.0942 88.2325 32.0942 85.6941V36.7074C32.0942 34.169 34.1543 32.1015 36.6927 32.1015H48.3986C50.1202 32.1015 51.5255 30.6962 51.5255 28.9746V14.127C51.5255 12.4053 50.1202 11 48.3986 11H33.5583C31.8367 11 30.4314 12.4053 30.4314 14.127V26.2302C30.4314 28.7612 28.3712 30.8287 25.8329 30.8287H14.127C12.4053 30.8287 11 32.234 11 33.9556V88.4458C11 90.1675 12.4053 91.5728 14.127 91.5728H25.8329C28.3712 91.5728 30.4314 93.6403 30.4314 96.1787V108.275C30.4314 109.996 31.8367 111.401 33.5583 111.401H48.3986C50.1202 111.401 51.5255 109.996 51.5255 108.275V93.4196Z" fill="white"/>
<path d="M60.2517 89.1448C60.2517 90.5133 61.3627 91.6317 62.7386 91.6317H76.5781C77.9467 91.6317 79.065 90.5207 79.065 89.1448V36.9943C79.065 35.6258 77.954 34.5074 76.5781 34.5074H62.7386C61.37 34.5074 60.2517 35.6184 60.2517 36.9943V89.1448Z" fill="white"/>
<path fill-rule="evenodd" clip-rule="evenodd" d="M152.788 53.0927C152.788 51.7242 151.677 50.6058 150.301 50.6058H139.39C137.808 50.6058 136.388 49.6641 135.762 48.2146L130.48 36.001C130.09 35.0961 129.192 34.5074 128.199 34.5074H95.5754C94.2069 34.5074 93.0885 35.6184 93.0885 36.9943V89.1522C93.0885 90.5207 94.1995 91.639 95.5754 91.639H109.422C110.791 91.639 111.909 90.528 111.909 89.1522V55.6678C111.909 53.49 113.682 51.7095 115.868 51.7095H130.031C132.209 51.7095 133.989 53.4826 133.989 55.6678V89.1522C133.989 90.5207 135.1 91.639 136.476 91.639H150.316C151.684 91.639 152.803 90.528 152.803 89.1522V53.0927H152.788Z" fill="white"/>
<path fill-rule="evenodd" clip-rule="evenodd" d="M163.824 111.394H178.672C180.393 111.394 181.799 109.989 181.799 108.267V96.1713C181.799 93.6329 183.859 91.5655 186.397 91.5655H198.103C199.825 91.5655 201.23 90.1602 201.23 88.4385V33.9556C201.23 32.234 199.825 30.8287 198.103 30.8287H186.397C183.859 30.8287 181.799 28.7685 181.799 26.2302V14.127C181.799 12.4053 180.393 11 178.672 11H163.824C162.103 11 160.697 12.4053 160.697 14.127V28.9746C160.697 30.6962 162.103 32.1015 163.824 32.1015H175.53C178.069 32.1015 180.129 34.169 180.129 36.7074V85.7015C180.129 88.2325 178.069 90.3 175.53 90.3H163.824C162.103 90.3 160.697 91.7053 160.697 93.4269V108.275C160.697 109.989 162.103 111.394 163.824 111.394Z" fill="white"/>
</svg>
