<?xml version="1.0" encoding="utf-8"?>
<!-- Generator: Adobe Illustrator 27.2.0, SVG Export Plug-In . SVG Version: 6.00 Build 0)  -->
<svg version="1.1" id="Layer_1" xmlns="http://www.w3.org/2000/svg" xmlns:xlink="http://www.w3.org/1999/xlink" x="0px" y="0px"
	 viewBox="0 0 788.48 166.3" style="enable-background:new 0 0 788.48 166.3;" xml:space="preserve">
<style type="text/css">
	.st0{fill:#F06522;}
</style>
<g>
	<g>
		<path class="st0" d="M5.65,83.95c0-43.14,32.46-72.25,74.56-72.25c30.58,0,48.38,16.54,58.22,34.14L112.88,58.4
			c-5.86-11.31-18.43-20.32-32.67-20.32c-25.55,0-43.98,19.48-43.98,45.87c0,26.39,18.43,45.86,43.98,45.86
			c14.24,0,26.81-9.01,32.67-20.31l25.55,12.36c-9.84,17.38-27.64,34.35-58.22,34.35C38.11,156.2,5.65,126.88,5.65,83.95z"/>
		<path class="st0" d="M149.11,103.01c0-28.69,20.11-52.99,53.4-52.99c33.51,0,53.61,24.29,53.61,52.99s-20.11,53.2-53.61,53.2
			C169.21,156.2,149.11,131.7,149.11,103.01z M228.48,103.01c0-15.71-9.22-29.32-25.97-29.32c-16.55,0-25.76,13.61-25.76,29.32
			c0,15.92,9.21,29.53,25.76,29.53C219.27,132.54,228.48,118.93,228.48,103.01z"/>
		<path class="st0" d="M273.51,25.73c0-8.8,7.12-15.71,15.71-15.71c8.8,0,15.92,6.91,15.92,15.71c0,8.79-7.12,15.92-15.92,15.92
			C280.63,41.65,273.51,34.52,273.51,25.73z M276.02,153.69V52.54h26.6v101.15H276.02z"/>
		<path class="st0" d="M397.28,153.69V92.54c0-14.03-7.33-18.85-18.64-18.85c-10.47,0-18.43,5.86-23.04,11.73v68.27H329V52.54h26.6
			v12.98c6.49-7.54,19.06-15.5,35.39-15.5c22.41,0,33.09,12.57,33.09,32.25v71.41H397.28z"/>
		<path class="st0" d="M515.81,153.69L489,114.74l-12.15,12.99v25.97h-26.6V14h26.6v83.56l38.33-45.03h32.67l-40,45.86l41.26,55.29
			H515.81z"/>
		<path class="st0" d="M560,25.73c0-8.8,7.12-15.71,15.71-15.71c8.8,0,15.92,6.91,15.92,15.71c0,8.79-7.12,15.92-15.92,15.92
			C567.12,41.65,560,34.52,560,25.73z M562.51,153.69V52.54h26.6v101.15H562.51z"/>
		<path class="st0" d="M620.94,128.35V75.78h-16.75V52.54h16.75V24.89h26.6v27.65h20.52v23.25h-20.52v45.45
			c0,6.49,3.35,11.31,9.21,11.31c3.98,0,7.75-1.47,9.21-3.14l5.65,20.31c-3.98,3.56-11.1,6.49-22.2,6.49
			C630.78,156.2,620.94,146.57,620.94,128.35z"/>
		<path class="st0" d="M679.79,103.01c0-29.32,21.78-52.99,52.36-52.99c30.37,0,50.68,22.62,50.68,55.5v6.28h-75.19
			c1.89,12.36,11.94,22.62,29.11,22.62c8.59,0,20.31-3.56,26.81-9.84l11.94,17.59c-10.05,9.21-25.97,14.03-41.68,14.03
			C703.03,156.2,679.79,135.47,679.79,103.01z M732.14,71.8c-16.55,0-23.66,11.52-24.71,21.57h49.85
			C756.44,83.74,749.74,71.8,732.14,71.8z"/>
	</g>
	<g>
		<path class="st0" d="M780.37,151.16c0,2.87-2.25,5.13-5.19,5.13c-2.9,0-5.22-2.25-5.22-5.13c0-2.81,2.32-5.06,5.22-5.06
			C778.11,146.09,780.37,148.34,780.37,151.16z M771.25,151.16c0,2.25,1.67,4.05,3.95,4.05c2.22,0,3.86-1.79,3.86-4.01
			c0-2.25-1.64-4.08-3.89-4.08S771.25,148.93,771.25,151.16z M774.37,153.81h-1.17v-5.06c0.46-0.09,1.11-0.15,1.95-0.15
			c0.96,0,1.39,0.15,1.76,0.37c0.28,0.22,0.49,0.62,0.49,1.11c0,0.56-0.43,0.99-1.05,1.17v0.06c0.49,0.19,0.77,0.56,0.93,1.24
			c0.15,0.77,0.25,1.08,0.37,1.27h-1.27c-0.16-0.19-0.25-0.65-0.4-1.24c-0.09-0.56-0.4-0.8-1.05-0.8h-0.56V153.81z M774.41,150.94
			h0.55c0.65,0,1.18-0.22,1.18-0.74c0-0.46-0.34-0.77-1.08-0.77c-0.31,0-0.52,0.03-0.65,0.06V150.94z"/>
	</g>
</g>
</svg>
