<svg xmlns="http://www.w3.org/2000/svg" width="238" height="56" fill="none"><g clip-path="url(#a)"><path fill="#fff" d="m35.08 40.748-10.086 4.335v-.434c-1.945.492-4.099.776-6.14.867-9.484-.091-17.012-4.998-17.1-10.837V32.51c3.115 4.478 9.457 7.478 17.1 7.37 2.587.108 5.232-.296 7.455-.867l.877-2.168c-2.636.778-5.514 1.319-8.331 1.3-9.485.019-17.013-4.888-17.1-10.836v-1.734c3.114 4.14 9.442 7.14 17.1 6.936 3.445.205 6.814-.512 9.646-1.735l.44-2.167c-2.768 1.443-6.355 2.281-10.086 2.167-9.485.114-17.013-4.793-17.1-10.836v-1.735c3.114 4.236 9.456 7.237 17.1 7.37 4.344-.133 8.463-1.268 11.84-3.035l.438-2.601c-3.064 2.245-7.538 3.692-12.278 3.901-9.485-.209-17.012-5.117-17.1-11.27.087-5.852 7.615-10.76 17.1-10.837 5.654.078 10.905 2.038 14.032 5.202l.305.501 2.21.01-.322-.511C31.97 2.758 25.75 0 18.855 0 8.36 0 0 5.718 0 12.571v22.541c.369 6.69 8.538 12.137 18.855 12.137 6.814 0 12.938-2.649 16.225-6.5"/><path fill="#FABF2C" d="m30.977 56 3.54-14.875L24.34 45.5l6.196-25.812h-11.95L21.683 7h38.059l-3.098 12.688h-12.39l-2.656 7L55.316 21zm6.196-17.938-1.77 8.75 14.603-21.874-11.949 5.25 5.311-12.25h11.948l2.213-9.188H23.01l-2.213 9.188h11.95l-5.754 24.5 10.179-4.374zM78.306 15.337q-.161 2.26-1.644 3.56-1.482 1.297-3.906 1.297-2.652 0-4.171-1.813t-1.52-4.977v-.857q0-2.019.7-3.559.702-1.538 2.003-2.36 1.302-.824 3.026-.823 2.386 0 3.845 1.299 1.458 1.297 1.686 3.645h-2.841q-.105-1.356-.743-1.967-.64-.61-1.947-.61-1.42 0-2.126 1.033-.705 1.035-.725 3.208v1.058q.001 2.27.677 3.318.678 1.05 2.137 1.049 1.316 0 1.964-.61.649-.612.744-1.89zm14.67-2.02q0 2.07-.72 3.626-.72 1.559-2.06 2.405t-3.073.846q-1.713 0-3.059-.836-1.344-.838-2.083-2.39t-.748-3.575v-.692q0-2.068.734-3.64t2.074-2.415q1.34-.84 3.064-.841 1.723 0 3.063.841 1.34.843 2.074 2.415t.734 3.63zm-2.879-.635q0-2.203-.776-3.347-.777-1.145-2.216-1.145-1.431 0-2.208 1.13-.776 1.13-.785 3.315v.683q0 2.145.776 3.327.776 1.184 2.235 1.184 1.43 0 2.198-1.14.767-1.14.776-3.324zm9.441 7.32h-2.84V5.997h2.84zm15.325 0h-2.842l-5.531-9.214v9.214h-2.841V5.997h2.841l5.541 9.234V5.997h2.832zm14.064-11.667h-4.223v11.667h-2.841V8.335h-4.168V5.997h11.232zm11.394 5.598h-5.455v3.751h6.402v2.318h-9.244V5.997h9.225v2.338h-6.383v3.337h5.455zm6.932 3.751h6.033v2.318h-8.874V5.997h2.841zm17.436-3.752h-5.455v3.752h6.402v2.318h-9.243V5.997h9.224v2.338h-6.383v3.337h5.455zm15.002 4.3q-.767.933-2.169 1.447-1.4.516-3.106.516-1.79 0-3.14-.794-1.349-.794-2.083-2.304t-.753-3.549v-.953q0-2.097.696-3.63.697-1.534 2.007-2.347 1.312-.813 3.074-.813 2.453 0 3.836 1.188 1.382 1.188 1.638 3.458h-2.766q-.189-1.203-.838-1.76-.649-.558-1.785-.558-1.449 0-2.207 1.106t-.767 3.29v.894q0 2.203.824 3.328t2.415 1.125q1.602 0 2.282-.692V14.77h-2.585v-2.126h5.427zm8.883-3.356h-2.262v5.126h-2.842V5.997h5.124q2.443 0 3.768 1.107 1.327 1.105 1.326 3.125 0 1.434-.61 2.39-.611.958-1.852 1.525l2.983 5.723v.135h-3.049zm-2.262-2.338h2.29q1.07 0 1.658-.553.587-.554.587-1.525 0-.99-.554-1.558-.553-.567-1.699-.567h-2.283zm18.799 4.578h-4.982l-.947 2.886h-3.021l5.133-14.005h2.633l5.161 14.005h-3.021zm-4.215-2.336h3.447l-1.733-5.244zm13.799.288v4.934h-2.841V5.997h5.379q1.553 0 2.732.578 1.18.576 1.814 1.64.634 1.062.634 2.419.001 2.058-1.387 3.245-1.388 1.19-3.84 1.189zm0-2.338h2.538q1.127 0 1.719-.538.592-.54.592-1.539 0-1.03-.597-1.665-.596-.633-1.648-.653h-2.604zm22.369 7.272h-2.841V14h-5.539v6.002h-2.842V5.997h2.842v5.675h5.539V5.997h2.841z"/><path fill="#fff" d="M102.714 40.66V30.497h-1.601V40.66zM98.732 33.501v7.159h-1.6V33.5zM97.025 31.622q0-.363.238-.602.246-.245.675-.245.424 0 .669.245.244.239.244.602a.8.8 0 0 1-.244.596q-.245.237-.669.238-.429 0-.675-.239a.8.8 0 0 1-.238-.595"/><path fill="#fff" fill-rule="evenodd" d="M72.94 35.646q.139-.057.264-.127.555-.31.84-.8.285-.497.285-1.092 0-.675-.232-1.165a2 2 0 0 0-.668-.807 2.9 2.9 0 0 0-1.065-.476 6 6 0 0 0-1.416-.152h-3.269v9.633h3.54q1.051 0 1.8-.318.747-.324 1.144-.946.404-.622.404-1.541 0-.596-.252-1.112a2.03 2.03 0 0 0-.767-.84 2.1 2.1 0 0 0-.608-.257m-3.6.66h1.952q.574 0 .933.192.357.186.522.536.165.344.166.814 0 .45-.192.787-.185.33-.563.523-.376.185-.94.185H69.34zm0-1.21V32.35h1.608q.588 0 .966.139.383.138.569.443.185.304.185.787 0 .436-.199.748-.198.305-.582.47-.377.159-.92.159z" clip-rule="evenodd"/><path fill="#fff" d="M78.211 35.767v4.893h-1.594V33.5h1.522l.044.841.013-.021.015-.026q.272-.436.675-.681.412-.246.946-.245.146 0 .311.026.172.027.258.06l-.013 1.482a4.157 4.157 0 0 0-.648-.053q-.41 0-.721.119a1.36 1.36 0 0 0-.523.33 1.4 1.4 0 0 0-.285.434"/><path fill="#fff" fill-rule="evenodd" d="M85.574 40.157q.11-.1.205-.204l.007.052q.066.397.179.655h1.634v-.106a2.8 2.8 0 0 1-.205-.668 5.3 5.3 0 0 1-.066-.88v-3.183q0-.82-.364-1.363a2.17 2.17 0 0 0-.986-.82q-.622-.27-1.43-.271-.675 0-1.216.178-.543.18-.933.49-.391.31-.596.708a1.8 1.8 0 0 0-.205.82h1.588q0-.285.159-.51.159-.224.443-.356.285-.133.675-.133.423 0 .701.152.285.153.424.43.139.279.139.662v.496h-1.02q-.78 0-1.389.16-.609.15-1.032.449-.417.298-.635.741a2.3 2.3 0 0 0-.212 1.006q0 .61.311 1.091.31.477.86.761.55.278 1.25.278a2.5 2.5 0 0 0 1.714-.635m.033-1.323q.07-.099.12-.195v-1.347h-.9q-.444 0-.781.086a1.6 1.6 0 0 0-.562.238q-.225.159-.338.384-.112.225-.112.51 0 .284.132.522a.93.93 0 0 0 .384.364q.258.132.622.132.489 0 .853-.198.37-.205.582-.496" clip-rule="evenodd"/><path fill="#fff" d="M93.42 38.291q.12.192.12.43 0 .258-.153.463-.152.2-.443.318a2 2 0 0 1-.721.112q-.357 0-.695-.112a1.3 1.3 0 0 1-.556-.377q-.218-.266-.244-.708h-1.542q0 .589.344 1.138.351.543 1.025.893.675.344 1.648.344.662 0 1.19-.159.537-.158.92-.443.384-.291.583-.681.204-.397.205-.874 0-.642-.318-1.058-.317-.424-.913-.688a6.6 6.6 0 0 0-1.409-.444 7 7 0 0 1-.728-.192 2 2 0 0 1-.45-.211.8.8 0 0 1-.238-.258.845.845 0 0 1 .06-.774.93.93 0 0 1 .397-.331 1.55 1.55 0 0 1 .681-.133q.43 0 .715.16.284.15.423.403.146.245.146.53h1.594a2 2 0 0 0-.344-1.152q-.345-.516-.992-.814-.642-.304-1.542-.304-.635 0-1.151.172-.51.172-.867.47a2.1 2.1 0 0 0-.549.688 1.85 1.85 0 0 0-.192.827q0 .45.185.794.186.343.523.595t.807.43a8 8 0 0 0 1.046.298q.648.132.979.29.337.16.456.358"/></g><defs><clipPath id="a"><path fill="#fff" d="M0 0h238v56H0z"/></clipPath></defs></svg>