<svg data-v-423bf9ae="" xmlns="http://www.w3.org/2000/svg" viewBox="0 0 303 112" class="iconLeftSlogan"><!----><!----><!----><g data-v-423bf9ae="" id="adb5fe03-1722-4876-8baf-135a5fe94a31" fill="white" transform="matrix(5.769230980844901,0,0,5.769230980844901,110.7399304808949,-9.5367431640625e-7)"><path d="M6.54 10.26L6.54 9.58L2.09 9.58L2.09 6.34L6.54 6.34L6.54 5.66L2.09 5.66L2.09 2.55L6.54 2.55L6.54 1.86L1.02 1.86L1.30 2.66L1.30 10.26ZM14.84 10.26L14.84 9.56C14.64 9.63 14.42 9.70 14.18 9.70C13.86 9.70 13.72 9.52 13.72 9.23L13.72 3.72L12.95 3.72L12.95 9.41C12.49 9.59 11.96 9.70 11.38 9.70C10.12 9.70 9.53 9.17 9.53 8.02L9.53 3.72L8.76 3.72L8.76 8.02C8.76 9.58 9.70 10.40 11.38 10.40C12.03 10.40 12.66 10.26 13.19 10.04C13.37 10.28 13.69 10.40 13.97 10.40C14.29 10.40 14.60 10.33 14.84 10.26ZM18.42 10.26L18.42 9.95L17.37 9.60L17.37 0L16.60 0L16.60 10.26ZM25.37 7C25.37 4.79 24.21 3.58 22.43 3.58C20.65 3.58 19.45 4.79 19.45 7C19.45 9.28 20.79 10.40 22.89 10.40C23.48 10.40 24.32 10.26 24.85 10.08L24.85 9.38C24.32 9.56 23.48 9.70 22.89 9.70C21.34 9.70 20.33 8.96 20.24 7.22L25.37 7.22C25.37 7.15 25.37 7.07 25.37 7ZM24.60 6.55L20.26 6.55C20.40 5.07 21.22 4.28 22.43 4.28C23.56 4.28 24.46 5.07 24.60 6.55ZM33.32 10.26L33.32 9.95L32.28 9.60L32.28 5.96C32.28 4.41 31.35 3.58 29.67 3.58C28.95 3.58 27.99 3.78 27.27 3.98L27.08 4.03L27.33 4.80L27.33 10.26L28.10 10.26L28.10 4.51C28.62 4.37 29.15 4.28 29.67 4.28C30.93 4.28 31.51 4.82 31.51 5.96L31.51 10.26Z"></path></g><!----><g data-v-423bf9ae="" id="a7df7a1e-fa1c-4437-aed4-0b83fc5f1fa2" transform="matrix(1.111566670735677,0,0,1.111566670735677,-7.056084564405076,0.398879142932131)" stroke="none" fill="white"><switch><g><path d="M93.569 60.932V.035l-.857.008v.136c0 10.148-4.383 19.692-12.35 26.885-4.23 3.819-9.205 6.722-14.623 8.624-.94.246-1.859.534-2.748.872a47.019 47.019 0 0 1-12.698 1.733c-11.334 0-22.028-3.981-30.112-11.209C12.112 19.868 7.562 10.249 7.367 0l-.7.043v64.255C7.393 76.333 17.464 85.9 29.678 85.9c1.938 0 3.82-.245 5.62-.699.165-.042 14.849 14.84 14.849 14.84L65 85.191s3.503.709 5.625.709c12.684 0 22.944-10.318 22.944-23.003 0-.662.055-1.318 0-1.965zM29.674 80.86c-9.894 0-17.944-8.05-17.944-17.945 0-1.239.126-2.45.367-3.619 1.672-8.174 8.919-14.342 17.581-14.342 9.893 0 17.942 8.046 17.945 17.939v.01c0 1.239-.127 2.45-.369 3.619-1.675 8.173-8.921 14.338-17.58 14.338zm20.472 12.029l-9.682-9.682a23.158 23.158 0 0 0 9.687-9.844 23.142 23.142 0 0 0 9.679 9.84c-2.512 2.514-7.705 7.708-9.684 9.686zM70.621 80.86c-9.895 0-17.944-8.05-17.944-17.945 0-1.384.158-2.731.456-4.026 1.285-5.609 5.209-10.224 10.39-12.466.78-.249 1.549-.522 2.313-.814a17.89 17.89 0 0 1 4.789-.654c9.289 0 16.951 7.094 17.854 16.151 0 1.095.091 1.765.091 1.792 0 1.241-.127 2.453-.368 3.624-1.674 8.172-8.92 14.338-17.581 14.338z"></path></g></switch></g><!----><g data-v-423bf9ae="" id="297656d9-fe6b-4f50-87cc-568824acb89c" fill="white" transform="matrix(0.7061316934891855,0,0,0.7061316934891855,117.71501152731734,59.504943972710834)"><path d="M2.56 7.89L2.56 7.89Q2.45 7.90 1.55 7.84L1.55 7.84L1.55 7.84Q1.96 6.63 2.42 5.57L2.42 5.57L2.42 5.57Q2.58 5.18 3.13 3.95L3.13 3.95L3.13 3.95Q3.11 4.61 2.93 7.85L2.93 7.85L2.93 7.85Q2.75 7.87 2.56 7.89L2.56 7.89ZM4.37 1.18L4.37 1.18Q4.18 1.09 3.80 1.16L3.80 1.16L3.80 1.16Q3.16 1.27 2.95 1.55L2.95 1.55L2.95 1.55Q2.75 1.80 1.97 3.58L1.97 3.58L1.97 3.58Q1.83 3.90 1.47 4.70L1.47 4.70L1.47 4.70Q1.16 5.42 0.98 5.83L0.98 5.83L0.98 5.83Q0.56 6.79 0.18 7.86L0.18 7.86L0.18 7.86Q-0.74 7.97-1.39 8.37L-1.39 8.37L-1.39 8.37Q-1.57 8.48-1.54 8.58L-1.54 8.58L-1.54 8.58Q-1.51 8.67-1.31 8.68L-1.31 8.68L-1.31 8.68Q-0.79 8.70-0.31 8.43L-0.31 8.43L-0.31 8.43Q-0.17 8.41-0.12 8.41L-0.12 8.41L-0.12 8.41Q-0.06 8.41 0 8.41L0 8.41L0 8.41Q-0.32 9.39-0.64 10.53L-0.64 10.53L-0.64 10.53Q-0.71 10.79-0.05 10.67L-0.05 10.67L-0.05 10.67Q0.25 10.62 0.50 10.49L0.50 10.49L0.50 10.49Q0.77 10.37 0.80 10.27L0.80 10.27L0.80 10.27Q1.07 9.32 1.34 8.48L1.34 8.48L1.34 8.48Q1.63 8.50 1.83 8.47L1.83 8.47L1.83 8.47Q2.54 8.39 2.89 8.46L2.89 8.46L2.89 8.46Q2.78 10.55 2.78 12.02L2.78 12.02L2.78 12.02Q2.78 12.10 3.01 12.11L3.01 12.11L3.01 12.11Q3.23 12.12 3.51 12.06L3.51 12.06L3.51 12.06Q4.25 11.91 4.25 11.62L4.25 11.62L4.25 11.62Q4.25 9.90 4.45 6.45L4.45 6.45L4.45 6.45Q4.65 3.00 4.65 1.27L4.65 1.27L4.65 1.27Q4.65 1.18 4.37 1.18L4.37 1.18ZM17.22 1.54L17.22 1.54Q16.79 0.91 15.61 1.20L15.61 1.20L15.61 1.20Q14.65 1.43 14.01 2.14L14.01 2.14L14.01 2.14Q13.00 3.26 12.56 5.40L12.56 5.40L12.56 5.40Q12.27 6.86 12.17 8.67L12.17 8.67L12.17 8.67Q12.16 9.98 12.30 10.47L12.30 10.47L12.30 10.47Q12.57 11.44 13.66 11.50L13.66 11.50L13.66 11.50Q14.28 11.53 14.87 11.27L14.87 11.27L14.87 11.27Q15.46 10.99 15.83 10.51L15.83 10.51L15.83 10.51Q16.21 10.02 16.54 8.89L16.54 8.89L16.54 8.89Q16.62 8.64 15.96 8.76L15.96 8.76L15.96 8.76Q15.66 8.81 15.41 8.93L15.41 8.93L15.41 8.93Q15.13 9.06 15.11 9.15L15.11 9.15L15.11 9.15Q14.86 9.99 14.59 10.48L14.59 10.48L14.59 10.48Q14.47 10.68 14.34 10.83L14.34 10.83L14.34 10.83Q13.77 10.58 13.65 9.66L13.65 9.66L13.65 9.66Q13.62 9.42 13.64 8.20L13.64 8.20L13.64 8.20Q13.73 6.41 14.05 4.92L14.05 4.92L14.05 4.92Q14.51 2.75 15.54 1.80L15.54 1.80L15.54 1.80Q15.56 1.79 15.59 1.76L15.59 1.76L15.59 1.76Q15.95 2.01 16.04 2.75L16.04 2.75L16.04 2.75Q16.12 3.36 15.91 4.29L15.91 4.29L15.91 4.29Q15.57 5.76 15.57 5.80L15.57 5.80L15.57 5.80Q15.54 5.92 15.93 5.89L15.93 5.89L15.93 5.89Q16.19 5.87 16.35 5.82L16.35 5.82L16.35 5.82Q16.99 5.65 17.03 5.41L17.03 5.41L17.03 5.41Q17.08 5.07 17.23 4.41L17.23 4.41L17.23 4.41Q17.40 3.74 17.45 3.40L17.45 3.40L17.45 3.40Q17.64 2.17 17.22 1.54L17.22 1.54ZM29.29 1.31L29.29 1.31Q28.98 1.36 28.72 1.48L28.72 1.48L28.72 1.48Q28.44 1.61 28.42 1.70L28.42 1.70L28.42 1.70Q28.23 2.55 27.77 4.25L27.77 4.25L27.77 4.25Q27.32 5.94 27.13 6.80L27.13 6.80L27.13 6.80Q26.48 6.88 25.80 7.03L25.80 7.03L25.80 7.03Q26.00 6.04 26.41 4.31L26.41 4.31L26.41 4.31Q26.88 2.37 27.04 1.59L27.04 1.59L27.04 1.59Q27.10 1.34 26.46 1.46L26.46 1.46L26.46 1.46Q26.16 1.51 25.91 1.63L25.91 1.63L25.91 1.63Q25.63 1.76 25.61 1.85L25.61 1.85L25.61 1.85Q25.44 2.61 24.96 4.64L24.96 4.64L24.96 4.64Q24.54 6.41 24.33 7.44L24.33 7.44L24.33 7.44Q24.19 7.49 24.16 7.50L24.16 7.50L24.16 7.50Q24.00 7.55 23.84 7.66L23.84 7.66L23.84 7.66Q23.58 7.82 23.72 7.91L23.72 7.91L23.72 7.91Q23.89 8.01 24.23 7.94L24.23 7.94L24.23 7.94Q23.91 9.65 23.78 11.08L23.78 11.08L23.78 11.08Q23.78 11.15 24.00 11.16L24.00 11.16L24.00 11.16Q24.21 11.17 24.49 11.12L24.49 11.12L24.49 11.12Q25.22 10.98 25.24 10.69L25.24 10.69L25.24 10.69Q25.36 9.26 25.70 7.53L25.70 7.53L25.70 7.53Q25.90 7.49 26.25 7.42L26.25 7.42L26.25 7.42Q26.63 7.36 27.00 7.33L27.00 7.33L27.00 7.33Q26.54 9.44 26.45 11.13L26.45 11.13L26.45 11.13Q26.45 11.20 26.67 11.21L26.67 11.21L26.67 11.21Q26.89 11.22 27.17 11.17L27.17 11.17L27.17 11.17Q27.90 11.03 27.91 10.74L27.91 10.74L27.91 10.74Q27.99 9.17 28.40 7.25L28.40 7.25L28.40 7.25Q28.74 7.18 29.00 7.02L29.00 7.02L29.00 7.02Q29.18 6.91 29.15 6.82L29.15 6.82L29.15 6.82Q29.12 6.72 28.92 6.71L28.92 6.71L28.92 6.71Q28.75 6.71 28.52 6.71L28.52 6.71L28.52 6.71Q28.73 5.79 29.19 4.07L29.19 4.07L29.19 4.07Q29.67 2.28 29.87 1.44L29.87 1.44L29.87 1.44Q29.92 1.19 29.29 1.31L29.29 1.31ZM37.79 2.53L37.79 2.53Q37.54 3.62 36.93 6.79L36.93 6.79L36.93 6.79Q36.69 8.03 36.50 8.93L36.50 8.93L36.50 8.93Q36.11 10.78 36.10 10.91L36.10 10.91L36.10 10.91Q36.10 10.99 36.33 11.00L36.33 11.00L36.33 11.00Q36.54 11.01 36.83 10.96L36.83 10.96L36.83 10.96Q37.56 10.81 37.56 10.52L37.56 10.52L37.56 10.52Q37.57 10.23 37.73 9.62L37.73 9.62L37.73 9.62Q37.80 9.32 37.96 8.57L37.96 8.57L37.96 8.57Q38.13 7.77 38.39 6.44L38.39 6.44L38.39 6.44Q38.99 3.36 39.23 2.27L39.23 2.27L39.23 2.27Q39.29 2.02 38.64 2.13L38.64 2.13L38.64 2.13Q38.34 2.19 38.09 2.31L38.09 2.31L38.09 2.31Q37.81 2.44 37.79 2.53L37.79 2.53ZM50.58 1.42L50.58 1.42Q49.87 1.19 48.69 1.57L48.69 1.57L48.69 1.57Q47.17 2.06 46.61 3.77L46.61 3.77L46.61 3.77Q46.27 4.83 46.44 6.11L46.44 6.11L46.44 6.11Q46.53 6.76 46.80 7.16L46.80 7.16L46.80 7.16Q46.38 7.38 46.09 7.70L46.09 7.70L46.09 7.70Q45.09 8.80 45.20 10.01L45.20 10.01L45.20 10.01Q45.27 10.70 45.75 11.11L45.75 11.11L45.75 11.11Q46.14 11.44 46.97 11.42L46.97 11.42L46.97 11.42Q47.80 11.39 48.51 10.95L48.51 10.95L48.51 10.95Q49.26 10.49 49.56 9.76L49.56 9.76L49.56 9.76Q49.62 9.61 49.34 9.60L49.34 9.60L49.34 9.60Q49.17 9.59 48.98 9.63L48.98 9.63L48.98 9.63Q48.23 9.76 48.13 10.02L48.13 10.02L48.13 10.02Q47.93 10.51 47.58 10.80L47.58 10.80L47.58 10.80Q47.56 10.81 47.55 10.82L47.55 10.82L47.55 10.82Q47.50 10.81 47.50 10.81L47.50 10.81L47.50 10.81Q47.43 10.79 47.35 10.75L47.35 10.75L47.35 10.75Q47.18 10.68 47.02 10.52L47.02 10.52L47.02 10.52Q46.74 10.23 46.66 9.63L46.66 9.63L46.66 9.63Q46.57 8.83 47.20 7.86L47.20 7.86L47.20 7.86Q47.28 7.74 47.38 7.62L47.38 7.62L47.38 7.62Q47.59 7.70 47.87 7.72L47.87 7.72L47.87 7.72Q48.27 7.74 48.76 7.51L48.76 7.51L48.76 7.51Q49.18 7.32 49.03 7.18L49.03 7.18L49.03 7.18Q48.74 6.90 48.32 6.84L48.32 6.84L48.32 6.84Q48.28 6.79 48.24 6.75L48.24 6.75L48.24 6.75Q48.04 6.45 47.93 5.89L47.93 5.89L47.93 5.89Q47.74 4.89 47.92 4.00L47.92 4.00L47.92 4.00Q48.19 2.70 48.95 2.04L48.95 2.04L48.95 2.04Q49.01 2.00 49.10 1.93L49.10 1.93L49.10 1.93Q49.11 1.93 49.11 1.93L49.11 1.93L49.11 1.93Q49.24 1.94 49.22 1.93L49.22 1.93L49.22 1.93Q49.80 2.02 49.68 2.62L49.68 2.62L49.68 2.62Q49.64 2.86 50.26 2.75L50.26 2.75L50.26 2.75Q50.57 2.69 50.83 2.58L50.83 2.58L50.83 2.58Q51.11 2.45 51.13 2.36L51.13 2.36L51.13 2.36Q51.26 1.63 50.58 1.42L50.58 1.42ZM62.32 2.13L62.32 2.13Q62.28 1.90 61.54 2.08L61.54 2.08L61.54 2.08Q60.81 2.27 60.86 2.52L60.86 2.52L60.86 2.52Q60.96 3.04 60.79 3.73L60.79 3.73L60.79 3.73Q60.74 3.96 60.62 4.33L60.62 4.33L60.62 4.33Q60.48 4.77 60.44 4.92L60.44 4.92L60.44 4.92Q60.07 6.24 59.83 6.97L59.83 6.97L59.83 6.97Q59.49 7.99 59.19 8.65L59.19 8.65L59.19 8.65Q59.21 2.78 59.19 2.18L59.19 2.18L59.19 2.18Q59.19 2.09 58.96 2.08L58.96 2.08L58.96 2.08Q58.74 2.07 58.45 2.13L58.45 2.13L58.45 2.13Q57.72 2.29 57.73 2.58L57.73 2.58L57.73 2.58Q57.78 4.06 57.75 6.67L57.75 6.67L57.75 6.67Q57.71 9.59 57.73 10.75L57.73 10.75L57.73 10.75Q57.73 10.93 58.32 10.82L58.32 10.82L58.32 10.82Q58.87 10.72 59.12 10.50L59.12 10.50L59.12 10.50Q60.36 9.40 61.26 6.77L61.26 6.77L61.26 6.77Q61.49 6.07 61.89 4.65L61.89 4.65L61.89 4.65Q62.43 2.69 62.32 2.13L62.32 2.13ZM73.40 1.42L73.40 1.42Q72.69 1.19 71.51 1.57L71.51 1.57L71.51 1.57Q70 2.06 69.44 3.77L69.44 3.77L69.44 3.77Q69.09 4.83 69.27 6.11L69.27 6.11L69.27 6.11Q69.36 6.76 69.62 7.16L69.62 7.16L69.62 7.16Q69.21 7.38 68.91 7.70L68.91 7.70L68.91 7.70Q67.92 8.80 68.02 10.01L68.02 10.01L68.02 10.01Q68.09 10.70 68.57 11.11L68.57 11.11L68.57 11.11Q68.97 11.44 69.79 11.42L69.79 11.42L69.79 11.42Q70.63 11.39 71.33 10.95L71.33 10.95L71.33 10.95Q72.08 10.49 72.39 9.76L72.39 9.76L72.39 9.76Q72.45 9.61 72.17 9.60L72.17 9.60L72.17 9.60Q72.00 9.59 71.80 9.63L71.80 9.63L71.80 9.63Q71.05 9.76 70.95 10.02L70.95 10.02L70.95 10.02Q70.75 10.51 70.40 10.80L70.40 10.80L70.40 10.80Q70.39 10.81 70.38 10.82L70.38 10.82L70.38 10.82Q70.33 10.81 70.32 10.81L70.32 10.81L70.32 10.81Q70.25 10.79 70.17 10.75L70.17 10.75L70.17 10.75Q70.01 10.68 69.85 10.52L69.85 10.52L69.85 10.52Q69.56 10.23 69.49 9.63L69.49 9.63L69.49 9.63Q69.39 8.83 70.02 7.86L70.02 7.86L70.02 7.86Q70.10 7.74 70.21 7.62L70.21 7.62L70.21 7.62Q70.42 7.70 70.69 7.72L70.69 7.72L70.69 7.72Q71.09 7.74 71.59 7.51L71.59 7.51L71.59 7.51Q72.00 7.32 71.85 7.18L71.85 7.18L71.85 7.18Q71.57 6.90 71.14 6.84L71.14 6.84L71.14 6.84Q71.10 6.79 71.07 6.75L71.07 6.75L71.07 6.75Q70.86 6.45 70.75 5.89L70.75 5.89L70.75 5.89Q70.56 4.89 70.75 4.00L70.75 4.00L70.75 4.00Q71.01 2.70 71.78 2.04L71.78 2.04L71.78 2.04Q71.83 2.00 71.93 1.93L71.93 1.93L71.93 1.93Q71.93 1.93 71.93 1.93L71.93 1.93L71.93 1.93Q72.06 1.94 72.04 1.93L72.04 1.93L72.04 1.93Q72.63 2.02 72.51 2.62L72.51 2.62L72.51 2.62Q72.46 2.86 73.09 2.75L73.09 2.75L73.09 2.75Q73.40 2.69 73.65 2.58L73.65 2.58L73.65 2.58Q73.93 2.45 73.95 2.36L73.95 2.36L73.95 2.36Q74.09 1.63 73.40 1.42L73.40 1.42ZM94.86 5.50L94.86 5.50Q95.31 4.74 95.52 3.53L95.52 3.53L95.52 3.53Q95.76 2.15 95.26 1.57L95.26 1.57L95.26 1.57Q94.97 1.22 94.22 1.27L94.22 1.27L94.22 1.27Q93.28 1.33 92.39 1.85L92.39 1.85L92.39 1.85Q91.14 2.59 90.53 4.34L90.53 4.34L90.53 4.34Q89.91 6.10 90.53 7.18L90.53 7.18L90.53 7.18Q90.82 7.68 92.20 8.17L92.20 8.17L92.20 8.17Q92.76 8.37 92.97 8.48L92.97 8.48L92.97 8.48Q93.41 8.74 93.50 9.11L93.50 9.11L93.50 9.11Q93.59 9.50 93.25 10.17L93.25 10.17L93.25 10.17Q93.07 10.51 92.79 10.76L92.79 10.76L92.79 10.76Q92.67 10.87 92.52 10.97L92.52 10.97L92.52 10.97Q92.44 11.02 92.42 11.03L92.42 11.03L92.42 11.03Q92.36 11.07 92.30 11.09L92.30 11.09L92.30 11.09Q92.39 11.05 92.27 11.10L92.27 11.10L92.27 11.10Q92.28 11.10 92.34 11.09L92.34 11.09L92.34 11.09Q92.30 11.09 92.25 11.09L92.25 11.09L92.25 11.09Q92.24 11.10 92.15 11.09L92.15 11.09L92.15 11.09Q92.10 11.09 91.95 11.05L91.95 11.05L91.95 11.05Q91.59 10.97 91.29 10.64L91.29 10.64L91.29 10.64Q91.08 10.39 90.99 9.93L90.99 9.93L90.99 9.93Q90.88 9.44 91.11 9.28L91.11 9.28L91.11 9.28Q91.31 9.13 91.29 9.06L91.29 9.06L91.29 9.06Q91.26 8.97 91.03 8.96L91.03 8.96L91.03 8.96Q90.41 8.95 90.00 9.24L90.00 9.24L90.00 9.24Q89.61 9.53 89.53 9.86L89.53 9.86L89.53 9.86Q89.45 10.20 89.61 10.62L89.61 10.62L89.61 10.62Q89.88 11.36 90.75 11.61L90.75 11.61L90.75 11.61Q91.64 11.87 92.91 11.37L92.91 11.37L92.91 11.37Q93.92 10.96 94.49 10.24L94.49 10.24L94.49 10.24Q94.86 9.76 94.95 9.24L94.95 9.24L94.95 9.24Q95.05 8.62 94.67 8.23L94.67 8.23L94.67 8.23Q94.40 7.96 93.84 7.75L93.84 7.75L93.84 7.75Q93.69 7.70 93.38 7.59L93.38 7.59L93.38 7.59Q93.08 7.50 92.96 7.44L92.96 7.44L92.96 7.44Q92.42 7.23 92.14 6.97L92.14 6.97L92.14 6.97Q91.84 6.69 91.74 5.96L91.74 5.96L91.74 5.96Q91.54 4.53 92.49 2.97L92.49 2.97L92.49 2.97Q92.91 2.29 93.41 1.95L93.41 1.95L93.41 1.95Q93.46 1.91 93.56 1.86L93.56 1.86L93.56 1.86Q93.55 1.86 93.60 1.84L93.60 1.84L93.60 1.84Q93.59 1.84 93.63 1.83L93.63 1.83L93.63 1.83Q93.60 1.84 93.65 1.83L93.65 1.83L93.65 1.83Q93.57 1.85 93.50 1.85L93.50 1.85L93.50 1.85Q93.52 1.85 93.50 1.85L93.50 1.85L93.52 1.85L93.52 1.85Q93.58 1.86 93.66 1.89L93.66 1.89L93.66 1.89Q93.67 1.89 93.77 1.96L93.77 1.96L93.77 1.96Q93.84 2.01 93.88 2.06L93.88 2.06L93.88 2.06Q93.99 2.20 94.06 2.45L94.06 2.45L94.06 2.45Q94.18 2.84 94.12 3.49L94.12 3.49L94.12 3.49Q93.99 4.81 93.42 5.76L93.42 5.76L93.42 5.76Q93.33 5.90 93.64 5.91L93.64 5.91L93.64 5.91Q93.84 5.92 94.00 5.89L94.00 5.89L94.00 5.89Q94.70 5.76 94.86 5.50L94.86 5.50ZM105.33 5.20L105.33 5.20Q105.21 6.64 104.95 7.92L104.95 7.92L104.95 7.92Q104.54 9.88 103.76 10.64L103.76 10.64L103.76 10.64Q103.67 10.55 103.60 10.38L103.60 10.38L103.60 10.38Q103.41 9.97 103.43 9.03L103.43 9.03L103.43 9.03Q103.46 7.34 104.03 5.48L104.03 5.48L104.03 5.48Q104.53 3.85 105.23 3.01L105.23 3.01L105.23 3.01Q105.30 3.25 105.35 3.62L105.35 3.62L105.35 3.62Q105.42 4.21 105.33 5.20L105.33 5.20ZM106.26 1.96L106.26 1.96Q106.06 1.79 105.32 2.05L105.32 2.05L105.32 2.05Q104.82 2.24 104.84 2.39L104.84 2.39L104.84 2.39Q104.59 2.48 104.41 2.63L104.41 2.63L104.41 2.63Q103.43 3.40 102.76 5.22L102.76 5.22L102.76 5.22Q102.22 6.70 102.03 8.50L102.03 8.50L102.03 8.50Q101.94 9.28 101.97 9.92L101.97 9.92L101.97 9.92Q102.01 10.77 102.38 11.13L102.38 11.13L102.38 11.13Q102.56 11.31 102.99 11.33L102.99 11.33L102.99 11.33Q103.53 11.36 104.36 11.02L104.36 11.02L104.36 11.02Q105.04 10.74 105.56 9.94L105.56 9.94L105.56 9.94Q106.03 9.21 106.35 7.85L106.35 7.85L106.35 7.85Q106.56 6.94 106.68 5.84L106.68 5.84L106.68 5.84Q106.85 4.44 106.85 3.78L106.85 3.78L106.85 3.78Q106.83 2.45 106.26 1.96L106.26 1.96ZM119.08 2.13L119.08 2.13Q119.03 1.90 118.30 2.08L118.30 2.08L118.30 2.08Q117.56 2.27 117.61 2.52L117.61 2.52L117.61 2.52Q117.71 3.04 117.54 3.73L117.54 3.73L117.54 3.73Q117.49 3.96 117.37 4.33L117.37 4.33L117.37 4.33Q117.24 4.77 117.20 4.92L117.20 4.92L117.20 4.92Q116.83 6.24 116.59 6.97L116.59 6.97L116.59 6.97Q116.25 7.99 115.94 8.65L115.94 8.65L115.94 8.65Q115.96 2.78 115.94 2.18L115.94 2.18L115.94 2.18Q115.94 2.09 115.71 2.08L115.71 2.08L115.71 2.08Q115.49 2.07 115.21 2.13L115.21 2.13L115.21 2.13Q114.47 2.29 114.48 2.58L114.48 2.58L114.48 2.58Q114.54 4.06 114.50 6.67L114.50 6.67L114.50 6.67Q114.46 9.59 114.48 10.75L114.48 10.75L114.48 10.75Q114.48 10.93 115.08 10.82L115.08 10.82L115.08 10.82Q115.62 10.72 115.88 10.50L115.88 10.50L115.88 10.50Q117.11 9.40 118.01 6.77L118.01 6.77L118.01 6.77Q118.24 6.07 118.64 4.65L118.64 4.65L118.64 4.65Q119.18 2.69 119.08 2.13L119.08 2.13ZM130.16 1.42L130.16 1.42Q129.45 1.19 128.26 1.57L128.26 1.57L128.26 1.57Q126.75 2.06 126.19 3.77L126.19 3.77L126.19 3.77Q125.84 4.83 126.02 6.11L126.02 6.11L126.02 6.11Q126.11 6.76 126.38 7.16L126.38 7.16L126.38 7.16Q125.96 7.38 125.67 7.70L125.67 7.70L125.67 7.70Q124.67 8.80 124.78 10.01L124.78 10.01L124.78 10.01Q124.84 10.70 125.32 11.11L125.32 11.11L125.32 11.11Q125.72 11.44 126.55 11.42L126.55 11.42L126.55 11.42Q127.38 11.39 128.08 10.95L128.08 10.95L128.08 10.95Q128.84 10.49 129.14 9.76L129.14 9.76L129.14 9.76Q129.20 9.61 128.92 9.60L128.92 9.60L128.92 9.60Q128.75 9.59 128.56 9.63L128.56 9.63L128.56 9.63Q127.80 9.76 127.70 10.02L127.70 10.02L127.70 10.02Q127.50 10.51 127.16 10.80L127.16 10.80L127.16 10.80Q127.14 10.81 127.13 10.82L127.13 10.82L127.13 10.82Q127.08 10.81 127.07 10.81L127.07 10.81L127.07 10.81Q127.00 10.79 126.92 10.75L126.92 10.75L126.92 10.75Q126.76 10.68 126.60 10.52L126.60 10.52L126.60 10.52Q126.31 10.23 126.24 9.63L126.24 9.63L126.24 9.63Q126.14 8.83 126.77 7.86L126.77 7.86L126.77 7.86Q126.85 7.74 126.96 7.62L126.96 7.62L126.96 7.62Q127.17 7.70 127.44 7.72L127.44 7.72L127.44 7.72Q127.85 7.74 128.34 7.51L128.34 7.51L128.34 7.51Q128.75 7.32 128.60 7.18L128.60 7.18L128.60 7.18Q128.32 6.90 127.89 6.84L127.89 6.84L127.89 6.84Q127.85 6.79 127.82 6.75L127.82 6.75L127.82 6.75Q127.61 6.45 127.50 5.89L127.50 5.89L127.50 5.89Q127.31 4.89 127.50 4.00L127.50 4.00L127.50 4.00Q127.76 2.70 128.53 2.04L128.53 2.04L128.53 2.04Q128.58 2.00 128.68 1.93L128.68 1.93L128.68 1.93Q128.69 1.93 128.69 1.93L128.69 1.93L128.69 1.93Q128.82 1.94 128.80 1.93L128.80 1.93L128.80 1.93Q129.38 2.02 129.26 2.62L129.26 2.62L129.26 2.62Q129.21 2.86 129.84 2.75L129.84 2.75L129.84 2.75Q130.15 2.69 130.40 2.58L130.40 2.58L130.40 2.58Q130.68 2.45 130.70 2.36L130.70 2.36L130.70 2.36Q130.84 1.63 130.16 1.42L130.16 1.42ZM140.41 5.31L140.41 5.31Q140.26 6.24 139.36 7.18L139.36 7.18L139.36 7.18Q139.17 7.38 138.93 7.58L138.93 7.58L138.93 7.58Q138.87 7.63 138.81 7.68L138.81 7.68L138.81 7.68Q138.59 7.59 138.34 7.58L138.34 7.58L138.34 7.58Q138.90 4.74 139.04 2.66L139.04 2.66L139.04 2.66Q139.31 2.80 139.55 2.99L139.55 2.99L139.55 2.99Q140.06 3.39 140.29 4.03L140.29 4.03L140.29 4.03Q140.52 4.65 140.41 5.31L140.41 5.31ZM137.44 2.40L137.44 2.40Q137.44 2.40 137.45 2.39L137.45 2.39L137.45 2.39Q137.44 2.40 137.44 2.40L137.44 2.40ZM142.37 11.42L142.37 11.42Q141.64 10.88 140.11 8.99L140.11 8.99L140.11 8.99Q139.44 8.17 139.32 8.05L139.32 8.05L139.32 8.05Q139.78 7.84 140.21 7.50L140.21 7.50L140.21 7.50Q141.42 6.56 141.77 5.41L141.77 5.41L141.77 5.41Q142.02 4.60 141.81 3.84L141.81 3.84L141.81 3.84Q141.60 3.07 140.98 2.53L140.98 2.53L140.98 2.53Q139.73 1.46 137.66 1.88L137.66 1.88L137.66 1.88Q137.53 1.91 137.33 1.96L137.33 1.96L137.33 1.96Q136.60 2.14 136.66 2.37L136.66 2.37L136.66 2.37Q136.72 2.58 137.43 2.40L137.43 2.40L137.43 2.40Q137.50 2.39 137.55 2.38L137.55 2.38L137.55 2.38Q137.59 2.37 137.62 2.37L137.62 2.37L137.62 2.37Q137.50 5.11 136.27 10.79L136.27 10.79L136.27 10.79Q136.21 11.04 136.85 10.92L136.85 10.92L136.85 10.92Q137.16 10.87 137.41 10.75L137.41 10.75L137.41 10.75Q137.69 10.62 137.71 10.53L137.71 10.53L137.71 10.53Q138.00 9.17 138.10 8.72L138.10 8.72L138.10 8.72Q138.11 8.72 138.11 8.72L138.11 8.72L138.11 8.72Q138.11 8.72 138.11 8.72L138.11 8.72L138.11 8.72Q138.22 8.85 138.91 9.70L138.91 9.70L138.91 9.70Q140.23 11.34 140.99 11.92L140.99 11.92L140.99 11.92Q141.22 12.09 141.93 11.83L141.93 11.83L141.93 11.83Q142.12 11.76 142.26 11.67L142.26 11.67L142.26 11.67Q142.51 11.52 142.37 11.42L142.37 11.42ZM153.47 1.42L153.47 1.42Q152.76 1.19 151.57 1.57L151.57 1.57L151.57 1.57Q150.06 2.06 149.50 3.77L149.50 3.77L149.50 3.77Q149.15 4.83 149.33 6.11L149.33 6.11L149.33 6.11Q149.42 6.76 149.69 7.16L149.69 7.16L149.69 7.16Q149.27 7.38 148.98 7.70L148.98 7.70L148.98 7.70Q147.98 8.80 148.09 10.01L148.09 10.01L148.09 10.01Q148.16 10.70 148.63 11.11L148.63 11.11L148.63 11.11Q149.03 11.44 149.86 11.42L149.86 11.42L149.86 11.42Q150.69 11.39 151.40 10.95L151.40 10.95L151.40 10.95Q152.15 10.49 152.45 9.76L152.45 9.76L152.45 9.76Q152.51 9.61 152.23 9.60L152.23 9.60L152.23 9.60Q152.06 9.59 151.87 9.63L151.87 9.63L151.87 9.63Q151.12 9.76 151.01 10.02L151.01 10.02L151.01 10.02Q150.81 10.51 150.47 10.80L150.47 10.80L150.47 10.80Q150.45 10.81 150.44 10.82L150.44 10.82L150.44 10.82Q150.39 10.81 150.38 10.81L150.38 10.81L150.38 10.81Q150.32 10.79 150.23 10.75L150.23 10.75L150.23 10.75Q150.07 10.68 149.91 10.52L149.91 10.52L149.91 10.52Q149.63 10.23 149.55 9.63L149.55 9.63L149.55 9.63Q149.45 8.83 150.08 7.86L150.08 7.86L150.08 7.86Q150.17 7.74 150.27 7.62L150.27 7.62L150.27 7.62Q150.48 7.70 150.75 7.72L150.75 7.72L150.75 7.72Q151.16 7.74 151.65 7.51L151.65 7.51L151.65 7.51Q152.07 7.32 151.92 7.18L151.92 7.18L151.92 7.18Q151.63 6.90 151.20 6.84L151.20 6.84L151.20 6.84Q151.16 6.79 151.13 6.75L151.13 6.75L151.13 6.75Q150.92 6.45 150.81 5.89L150.81 5.89L150.81 5.89Q150.62 4.89 150.81 4.00L150.81 4.00L150.81 4.00Q151.07 2.70 151.84 2.04L151.84 2.04L151.84 2.04Q151.89 2.00 151.99 1.93L151.99 1.93L151.99 1.93Q152.00 1.93 152.00 1.93L152.00 1.93L152.00 1.93Q152.13 1.94 152.11 1.93L152.11 1.93L152.11 1.93Q152.69 2.02 152.57 2.62L152.57 2.62L152.57 2.62Q152.52 2.86 153.15 2.75L153.15 2.75L153.15 2.75Q153.46 2.69 153.71 2.58L153.71 2.58L153.71 2.58Q153.99 2.45 154.01 2.36L154.01 2.36L154.01 2.36Q154.15 1.63 153.47 1.42L153.47 1.42ZM161.18 2.53L161.18 2.53Q160.94 3.62 160.32 6.79L160.32 6.79L160.32 6.79Q160.08 8.03 159.89 8.93L159.89 8.93L159.89 8.93Q159.50 10.78 159.50 10.91L159.50 10.91L159.50 10.91Q159.50 10.99 159.72 11.00L159.72 11.00L159.72 11.00Q159.94 11.01 160.22 10.96L160.22 10.96L160.22 10.96Q160.95 10.81 160.96 10.52L160.96 10.52L160.96 10.52Q160.97 10.23 161.12 9.62L161.12 9.62L161.12 9.62Q161.20 9.32 161.36 8.57L161.36 8.57L161.36 8.57Q161.53 7.77 161.79 6.44L161.79 6.44L161.79 6.44Q162.38 3.36 162.63 2.27L162.63 2.27L162.63 2.27Q162.68 2.02 162.04 2.13L162.04 2.13L162.04 2.13Q161.74 2.19 161.49 2.31L161.49 2.31L161.49 2.31Q161.21 2.44 161.18 2.53L161.18 2.53ZM172.40 7.83L172.40 7.83L172.40 7.83Q172.42 7.83 172.44 7.81L172.44 7.81L172.44 7.81Q172.42 7.83 172.40 7.83L172.40 7.83ZM173.96 1.67L173.96 1.67Q173.58 0.90 172.23 1.50L172.23 1.50L172.23 1.50Q171.66 1.75 171.10 2.55L171.10 2.55L171.10 2.55Q170.63 3.20 170.21 4.06L170.21 4.06L170.21 4.06Q169.29 5.91 169.00 8.21L169.00 8.21L169.00 8.21Q168.89 9.15 168.88 9.80L168.88 9.80L168.88 9.80Q168.85 10.74 169.29 11.05L169.29 11.05L169.29 11.05Q169.74 11.39 170.88 11.00L170.88 11.00L170.88 11.00Q171.53 10.77 172.12 10.19L172.12 10.19L172.12 10.19Q172.63 9.71 172.95 8.87L172.95 8.87L172.95 8.87Q173.09 8.48 173.15 8.11L173.15 8.11L173.15 8.11Q173.21 7.72 173.11 7.57L173.11 7.57L173.11 7.57Q172.93 7.29 172.26 7.43L172.26 7.43L172.26 7.43Q171.53 7.58 170.92 8.07L170.92 8.07L170.92 8.07Q170.74 8.21 170.95 8.27L170.95 8.27L170.95 8.27Q171.10 8.31 171.26 8.30L171.26 8.30L171.26 8.30Q171.49 8.28 171.72 8.21L171.72 8.21L171.72 8.21Q171.73 8.48 171.54 9.04L171.54 9.04L171.54 9.04Q171.35 9.59 171.09 9.99L171.09 9.99L171.09 9.99Q171.04 10.06 171.01 10.08L171.01 10.08L171.01 10.08Q170.91 10.21 170.81 10.31L170.81 10.31L170.81 10.31Q170.72 10.40 170.59 10.51L170.59 10.51L170.59 10.51Q170.54 10.45 170.49 10.36L170.49 10.36L170.49 10.36Q170.37 10.13 170.34 9.65L170.34 9.65L170.34 9.65Q170.32 9.36 170.43 8.16L170.43 8.16L170.43 8.16Q170.62 5.98 171.57 3.95L171.57 3.95L171.57 3.95Q172.09 2.84 172.57 2.21L172.57 2.21L172.57 2.21Q172.69 2.51 172.70 2.81L172.70 2.81L172.70 2.81Q172.72 3.19 172.53 3.34L172.53 3.34L172.53 3.34Q172.35 3.47 172.56 3.53L172.56 3.53L172.56 3.53Q172.71 3.58 172.87 3.57L172.87 3.57L172.87 3.57Q173.47 3.51 173.84 3.22L173.84 3.22L173.84 3.22Q174.15 2.98 174.15 2.48L174.15 2.48L174.15 2.48Q174.15 2.06 173.96 1.67L173.96 1.67ZM186.53 0.74L186.53 0.74Q186.22 0.79 185.97 0.91L185.97 0.91L185.97 0.91Q185.70 1.04 185.67 1.13L185.67 1.13L185.67 1.13Q184.79 3.96 184.17 7.39L184.17 7.39L184.17 7.39Q184.08 6.88 183.97 6.21L183.97 6.21L183.97 6.21Q183.67 4.44 183.63 4.05L183.63 4.05L183.63 4.05Q183.48 2.77 183.29 2.37L183.29 2.37L183.29 2.37Q183.29 2.37 183.27 2.35L183.27 2.35L183.28 2.34L183.28 2.34Q183.28 2.34 183.28 2.33L183.28 2.33L183.28 2.33Q183.32 2.08 182.69 2.20L182.69 2.20L182.69 2.20Q182.39 2.26 182.14 2.37L182.14 2.37L182.14 2.37Q181.85 2.51 181.84 2.60L181.84 2.60L181.84 2.60Q181.65 3.71 181.01 6.73L181.01 6.73L181.01 6.73Q180.46 9.34 180.26 10.89L180.26 10.89L180.26 10.89Q180.24 11.01 180.63 10.98L180.63 10.98L180.63 10.98Q180.88 10.96 181.05 10.91L181.05 10.91L181.05 10.91Q181.69 10.74 181.72 10.50L181.72 10.50L181.72 10.50Q181.92 8.97 182.47 6.38L182.47 6.38L182.47 6.38Q182.50 6.54 182.51 6.61L182.51 6.61L182.51 6.61Q182.72 7.90 182.90 8.95L182.90 8.95L182.90 8.95Q183.16 10.45 183.39 11.09L183.39 11.09L183.39 11.09Q183.44 11.24 183.78 11.21L183.78 11.21L183.78 11.21Q184.10 11.18 184.43 11.05L184.43 11.05L184.43 11.05Q185.02 10.89 185.06 10.65L185.06 10.65L185.06 10.65Q185.83 5.00 187.11 0.87L187.11 0.87L187.11 0.87Q187.20 0.62 186.53 0.74L186.53 0.74ZM197.90 2.35L197.90 2.35Q196.94 2.17 195.94 2.15L195.94 2.15L195.94 2.15Q195.84 2.03 195.36 2.11L195.36 2.11L195.36 2.11Q195.27 2.13 195.15 2.16L195.15 2.16L195.15 2.16Q194.09 2.22 193.05 2.46L193.05 2.46L193.05 2.46Q192.31 2.63 192.38 2.88L192.38 2.88L192.38 2.88Q192.42 3.08 193.15 2.91L193.15 2.91L193.15 2.91Q193.16 2.91 193.17 2.90L193.17 2.90L193.17 2.90Q193.18 2.90 193.20 2.89L193.20 2.89L193.20 2.89Q193.27 2.88 193.43 2.85L193.43 2.85L193.43 2.85Q193.59 2.82 193.82 2.80L193.82 2.80L193.82 2.80Q194.11 2.76 194.43 2.75L194.43 2.75L194.43 2.75Q193.02 7.40 192.62 10.96L192.62 10.96L192.62 10.96Q192.62 11.02 192.84 11.03L192.84 11.03L192.84 11.03Q193.05 11.04 193.33 10.99L193.33 10.99L193.33 10.99Q194.06 10.86 194.09 10.56L194.09 10.56L194.09 10.56Q194.46 7.19 195.78 2.78L195.78 2.78L195.78 2.78Q196.25 2.82 196.69 2.91L196.69 2.91L196.69 2.91Q197.13 2.99 197.72 2.72L197.72 2.72L197.72 2.72Q197.87 2.65 197.97 2.54L197.97 2.54L197.97 2.54Q198.11 2.39 197.90 2.35L197.90 2.35ZM209.48 1.12L209.48 1.12Q209.45 0.90 208.71 1.07L208.71 1.07L208.71 1.07Q207.98 1.25 208.02 1.51L208.02 1.51L208.02 1.51Q208.20 2.73 207.98 4.12L207.98 4.12L207.98 4.12Q207.71 5.76 206.96 6.75L206.96 6.75L206.96 6.75Q206.81 6.95 206.55 7.16L206.55 7.16L206.55 7.16Q206.49 7.23 206.38 7.29L206.38 7.29L206.38 7.29Q206.38 7.29 206.30 7.34L206.30 7.34L206.29 7.34L206.29 7.34Q206.29 7.34 206.29 7.34L206.29 7.34L206.29 7.34Q206.22 7.36 206.15 7.38L206.15 7.38L206.14 7.37L206.14 7.37Q206.14 7.37 206.13 7.37L206.13 7.37L206.13 7.37Q206.10 7.36 206.03 7.35L206.03 7.35L206.03 7.35Q206.02 7.35 205.99 7.33L205.99 7.33L205.99 7.33Q205.99 7.33 205.97 7.33L205.97 7.33L205.97 7.33Q205.37 7.06 205.38 5.83L205.38 5.83L205.38 5.83Q205.38 4.47 206.34 1.59L206.34 1.59L206.34 1.59Q206.42 1.34 205.75 1.46L205.75 1.46L205.75 1.46Q204.98 1.60 204.90 1.85L204.90 1.85L204.90 1.85Q204.03 4.44 203.93 5.87L203.93 5.87L203.93 5.87Q203.83 7.12 204.35 7.65L204.35 7.65L204.35 7.65Q204.62 7.94 205.23 7.96L205.23 7.96L205.23 7.96Q205.37 7.97 205.53 7.96L205.53 7.96L205.53 7.96Q205.47 8.59 204.95 10.68L204.95 10.68L204.95 10.68Q204.89 10.94 205.53 10.82L205.53 10.82L205.53 10.82Q205.84 10.77 206.09 10.65L206.09 10.65L206.09 10.65Q206.37 10.52 206.39 10.42L206.39 10.42L206.39 10.42Q206.93 8.28 206.99 7.59L206.99 7.59L206.99 7.59Q207.03 7.57 207.04 7.57L207.04 7.57L207.04 7.57Q208.63 6.90 209.24 4.67L209.24 4.67L209.24 4.67Q209.75 2.84 209.48 1.12L209.48 1.12Z"></path></g></svg>