<?xml version="1.0" encoding="UTF-8"?>
<svg xmlns="http://www.w3.org/2000/svg" version="1.1" viewBox="0 0 1723.07 173.15">
  <defs>
    <style>
      .cls-1 {
        fill: #fff;
      }
    </style>
  </defs>
  <!-- Generator: Adobe Illustrator 28.7.2, SVG Export Plug-In . SVG Version: 1.2.0 Build 154)  -->
  <g>
    <g id="Camada_1">
      <g>
        <path id="path68-8" class="cls-1" d="M118.18,115.25v-.81c7.97,0,12.69-4.77,22.52-19.07l-13.7-20.16c-2.36-3.53-3.71-4.9-7.71-4.9v-.81h29.39v.81c-3.33,0-3.92,1.32-3.92,3,0,1.31.69,2.57,1.45,3.81l6.58,9.81c4.36-6.35,7.38-10.9,7.38-13.7,0-2.13-1.63-2.89-4.43-2.89v-.81h16.83v.81c-6.05,0-9.19,3.33-19.13,17.57l14.28,21.25c2.47,3.62,4.95,5.29,8.03,5.29v.81h-28.15v-.81c2.53,0,3.44-.95,3.44-2.52,0-1.05-.78-2.48-1.85-4.01l-7.87-11.57c-5.62,8.28-7.18,10.93-7.18,13.29,0,2.81,2.18,4.81,5.99,4.81v.81h-21.97ZM331.51,88.16c.4-13.36,2.92-16.93,5.94-16.93s6.03,2.91,5.91,16.93h-11.85ZM314.58,91.66c0,19.26,19.89,28.97,37.1,20.53l-.54-.54c-11.27,3.76-19.24-4.53-19.24-19.99v-2.07h27.54c0-13.48-7.77-21.75-21.25-21.75-12.75.01-23.6,10.79-23.6,23.83h0ZM233.3,74.42v-.77l21.02-4.96v7.28c4.66-3.43,9.63-7.25,14.94-7.25,5.64,0,9.38,2.63,10.77,7.6,4.8-3.51,9.92-7.6,15.42-7.6,7.28,0,11.39,4.36,11.38,12.53v27.81c0,3.81.81,4.54,3.52,4.54v.78h-22.89v-.78c2.44,0,3.34-1.16,3.34-4.01v-30.67c0-5.5-5.66-4.79-10.46-1.26.21,1.18.3,2.37.29,3.57v27.83c0,3.81.82,4.54,3.53,4.54v.78h-22.89v-.78c2.44,0,3.34-1.16,3.34-4.01v-30.68c0-5.45-5.51-4.81-10.28-1.39v32.87c0,2.5,1.54,3.21,3.52,3.21v.78h-24.52v-.78c3.34,0,4.96-2.4,4.96-6.05v-27.95c-.04-3.47-3.43-5.19-5-5.19h0ZM194.35,104.06c0-5.82,2.55-11.44,10.95-13.36l.06,13.92c-.26,3.59-2.99,5.59-5.59,5.55-3.04-.04-5.42-1.95-5.42-6.11h0ZM178.27,105.73c0,8.32,8.1,10.35,11.88,10.35,6.8,0,13.49-3.78,15.67-9.05.85,6.19,4.52,9.05,11.5,9.05,6.12,0,10.08-2.51,12.6-7.15l-.63-.4c-3.33,2.86-7.63.71-7.63-5.1v-21.32c0-10.75-13.79-16.29-26.33-11.92l.13.74c7.05.05,10.09,4.76,10.09,13.08l.03,5.45c-20.37,2.44-27.31,7.84-27.31,16.27h0ZM91.91,88.16c.4-13.36,2.91-16.93,5.93-16.93s6.03,2.91,5.91,16.93h-11.85ZM74.13,92.4c0,20.88,23.75,30.78,41.74,18.01l-.54-.54c-13.83,8.05-23.89.03-23.89-17.48v-2.06h27.54c0-13.42-7.77-21.65-21.25-21.65-12.75,0-23.59,10.75-23.59,23.71h0ZM189.28,85.64c3.67.07,6.71-2.86,6.77-6.53,0-.08,0-.16,0-.24,0-3.74-3.03-6.77-6.77-6.77-3.74,0-6.77,3.03-6.77,6.77,0,3.74,3.03,6.77,6.77,6.77h0ZM363.69,116.1c3.68.07,6.71-2.85,6.78-6.53,0-.08,0-.16,0-.24,0-3.74-3.03-6.77-6.77-6.77-3.74,0-6.77,3.03-6.77,6.77s3.03,6.77,6.77,6.77h-.01Z"/>
        <g>
          <path class="cls-1" d="M443.29,56.24v26.81h42.54v13.84h-42.54v33.73h-16.36V42.53h64.31v13.72h-47.95Z"/>
          <path class="cls-1" d="M502.57,92.24v-49.71h16.36v49.08c0,18.12,8.18,25.93,22.4,25.93s22.28-7.8,22.28-25.93v-49.08h16.11v49.71c0,25.68-14.47,39.65-38.51,39.65s-38.64-13.97-38.64-39.65Z"/>
          <path class="cls-1" d="M615.09,56.37h-29.2v-13.84h74.76v13.84h-29.2v74.26h-16.36V56.37Z"/>
          <path class="cls-1" d="M666.82,92.24v-49.71h16.36v49.08c0,18.12,8.18,25.93,22.4,25.93s22.28-7.8,22.28-25.93v-49.08h16.11v49.71c0,25.68-14.47,39.65-38.51,39.65s-38.64-13.97-38.64-39.65Z"/>
          <path class="cls-1" d="M820.74,130.63l-18-25.8c-1.13.13-2.27.13-3.4.13h-19.89v25.68h-16.36V42.53h36.25c23.16,0,37.51,11.83,37.51,31.34,0,13.34-6.8,23.16-18.75,27.81l20.26,28.95h-17.62ZM798.59,56.37h-19.13v35.11h19.13c14.35,0,21.77-6.54,21.77-17.62s-7.43-17.49-21.77-17.49Z"/>
          <path class="cls-1" d="M917.4,116.91v13.72h-66.08V42.53h64.31v13.72h-47.95v22.91h42.54v13.47h-42.54v24.29h49.71Z"/>
          <path class="cls-1" d="M956.55,86.58c0-26.05,20.14-45.31,47.45-45.31s47.45,19.13,47.45,45.31-20.14,45.31-47.45,45.31-47.45-19.26-47.45-45.31ZM1034.96,86.58c0-18-13.21-30.96-30.96-30.96s-30.96,12.96-30.96,30.96,13.22,30.96,30.96,30.96,30.96-12.96,30.96-30.96Z"/>
          <path class="cls-1" d="M1081.4,56.24v26.81h42.54v13.84h-42.54v33.73h-16.36V42.53h64.31v13.72h-47.95Z"/>
          <path class="cls-1" d="M1253.32,130.63l-.13-58.4-28.95,58.4h-7.3l-28.95-57.64v57.64h-15.61V42.53h13.47l34.99,68.47,34.36-68.47h13.47l.13,88.1h-15.48Z"/>
          <path class="cls-1" d="M1282.52,86.58c0-26.05,20.14-45.31,47.45-45.31s47.45,19.13,47.45,45.31-20.14,45.31-47.45,45.31-47.45-19.26-47.45-45.31ZM1360.93,86.58c0-18-13.21-30.96-30.96-30.96s-30.96,12.96-30.96,30.96,13.22,30.96,30.96,30.96,30.96-12.96,30.96-30.96Z"/>
          <path class="cls-1" d="M1469.3,42.53v88.1h-13.47l-48.58-59.66v59.66h-16.24V42.53h13.47l48.58,59.66v-59.66h16.24Z"/>
          <path class="cls-1" d="M1555.26,116.91v13.72h-66.08V42.53h64.31v13.72h-47.95v22.91h42.54v13.47h-42.54v24.29h49.71Z"/>
          <path class="cls-1" d="M1606.74,99.54v31.09h-16.36v-30.84l-34.61-57.27h17.49l25.8,42.92,26.05-42.92h16.11l-34.48,57.01Z"/>
        </g>
      </g>
    </g>
  </g>
</svg>