<svg width="369" height="81" viewBox="0 0 369 81" fill="none" xmlns="http://www.w3.org/2000/svg">
<path d="M60.4589 2.06005L61.7254 3.32055L54.5431 10.5415L53.9576 10.23C40.8706 3.25294 25.0312 5.6421 14.5503 16.1719C4.13138 26.6458 1.77854 42.4469 8.69635 55.491L9.00594 56.0742L4.47474 60.6265L3.20826 59.3654L6.8107 55.7428C-0.0958555 42.1167 2.46526 25.7859 13.2838 14.9102C24.17 3.97306 40.5329 1.37655 54.2109 8.34286L60.4589 2.06005Z" fill="#F68812"/>
<path d="M3.41953 59.3654L4.46676 60.4125L8.81323 56.0468L8.55988 55.5621C1.60667 42.4587 3.97129 26.5863 14.4377 16.0659C24.966 5.4869 40.8712 3.08703 54.0231 10.0967L54.5073 10.3554L61.5055 3.32206L60.4584 2.27543L54.2314 8.52926L54.1357 8.47967C40.5446 1.55458 24.1722 4.18326 13.3905 15.0187C2.66512 25.7944 0.0752659 42.1329 6.94402 55.6737L6.99466 55.7718L3.41953 59.3654ZM4.46676 60.8426L2.98605 59.3665L6.62309 55.7131C-0.240032 42.0743 2.3836 25.6473 13.1709 14.804C24.0202 3.90145 40.4826 1.23614 54.1751 8.15898L60.4527 1.8454L61.9391 3.3215L54.5692 10.7296L53.8824 10.3655C40.8486 3.42013 25.0899 5.79631 14.6516 16.2801C4.28094 26.7057 1.9388 42.435 8.82445 55.4201L9.1848 56.1026L4.46676 60.8426Z" fill="#F68812"/>
<path d="M74.4262 22.0451L75.6896 23.3075L71.3393 27.6785C76.0269 40.5161 72.8656 54.9829 63.2103 64.6868C53.5665 74.382 39.1379 77.6102 26.3043 72.9897L20.5306 78.7953L19.2615 77.5324L25.8527 70.9113L26.39 71.1156C38.7035 75.7784 52.6633 72.7568 61.9412 63.4255C71.2364 54.0827 74.1918 40.0891 69.47 27.7752L69.2642 27.2338L74.4262 22.0451Z" fill="#F68812"/>
<path d="M19.481 77.5312L20.5387 78.5809L26.2733 72.8128L26.3648 72.846C39.1204 77.4391 53.5454 74.1927 63.1106 64.5789C72.6873 54.9554 75.8663 40.4915 71.2066 27.7298L71.1722 27.6388L75.4775 23.3067L74.4312 22.2593L69.4456 27.2696L69.6171 27.7195C74.3626 40.0892 71.3952 54.1467 62.0587 63.5315C52.7278 72.9072 38.7087 75.9384 26.3476 71.2571L25.8959 71.0877L19.481 77.5312ZM20.5387 79.0085L19.0579 77.5312L25.8216 70.7334L26.4505 70.9721C38.703 75.6127 52.5963 72.6073 61.8414 63.3169C71.0979 54.0168 74.0367 40.0869 69.3369 27.8288L69.0911 27.1952L74.4312 21.8294L75.912 23.3055L71.5267 27.7161C76.1693 40.5654 72.9561 55.1099 63.3222 64.7936C53.6998 74.468 39.1946 77.7499 26.3476 73.1648L20.5387 79.0085Z" fill="#F68812"/>
<path d="M38.1937 8.97262C45.3224 8.95792 52.4624 11.416 58.2523 16.3848L63.7655 10.8415L64.9686 12.0403L58.3201 18.7202L57.7213 18.1779C46.2093 7.76873 28.6022 8.23921 17.6437 19.2569C6.69088 30.2621 6.28417 47.8782 16.7117 59.3618L17.2539 59.9596L4.10376 73.1746L2.90622 71.9758L14.921 59.899C4.43703 47.7391 5.04147 29.5145 16.4406 18.0581C22.4338 12.0352 30.3025 8.98959 38.1937 8.97262Z" fill="#F68812"/>
<path d="M3.12232 71.9755L4.10545 72.9591L17.044 59.9547L16.6033 59.4644C6.11687 47.9204 6.52929 30.2119 17.5299 19.1498C28.5474 8.07476 46.249 7.59966 57.8258 18.0656L58.3174 18.5101L64.7528 12.0413L63.7641 11.0561L58.2609 16.5922L58.1535 16.5C52.6109 11.7427 45.5484 9.12452 38.2542 9.12452C38.2373 9.12452 38.2147 9.12452 38.1977 9.12509C30.0165 9.14262 22.3324 12.3536 16.5468 18.1657C11.0663 23.6724 7.90225 30.9721 7.6254 38.7203C7.3542 46.4549 9.98712 53.9412 15.0382 59.8003L15.123 59.9072L15.0269 60.0068L3.12232 71.9755ZM4.11108 73.3895L2.68732 71.9766L14.7106 59.892C9.67073 53.9905 7.04913 46.4736 7.32033 38.709C7.59719 30.8844 10.7951 23.5129 16.3321 17.9513C22.1742 12.0815 29.9373 8.83888 38.192 8.82079C38.2146 8.82079 38.2373 8.82079 38.2542 8.82079C45.571 8.82079 52.6618 11.431 58.244 16.1776L63.7641 10.6268L65.1822 12.0402L58.323 18.9298L57.6225 18.2913C46.1642 7.93336 28.6491 8.40508 17.7503 19.3642C6.85701 30.312 6.45019 47.8361 16.8236 59.2596L17.4621 59.9638L4.11108 73.3895Z" fill="#F68812"/>
<path d="M72.9563 9.24781L74.16 10.4472L63.0807 21.5851C71.9978 33.739 70.7598 50.7857 60.057 61.5387C49.2972 72.3523 32.2218 73.6247 20.0243 64.6279L16.5043 68.166L15.3062 66.9666L19.8703 62.3731L20.4636 62.8334C32.0222 71.8 48.527 70.7274 58.859 60.3399C69.1338 50.013 70.1779 33.5409 61.2894 22.0266L60.833 21.4366L72.9563 9.24781Z" fill="#F68812"/>
<path d="M20.0086 64.4275L20.1113 64.5052C25.9889 68.8398 33.2532 70.9203 40.5688 70.3599C47.8959 69.8007 54.7778 66.6303 59.9535 61.4313C65.095 56.2615 68.2279 49.3883 68.7757 42.0757C69.3235 34.7757 67.2521 27.53 62.9551 21.6753L62.8809 21.5702L62.9722 21.4776L73.9457 10.4468L72.9585 9.46315L61.0321 21.4497L61.4087 21.9341C70.3449 33.5087 69.2949 50.0658 58.9663 60.4471C48.5807 70.8895 31.9864 71.9674 20.3739 62.9531L19.8888 62.5755L15.5177 66.9662L16.5049 67.951L20.0086 64.4275ZM38.2292 70.7535C31.6954 70.7535 25.3213 68.6879 20.0429 64.8274L16.5049 68.3806L15.084 66.9673L19.8603 62.1705L20.5622 62.7132C32.0549 71.6321 48.4722 70.5667 58.7495 60.2328C68.9697 49.9589 70.0082 33.5744 61.169 22.1197L60.6326 21.4239L72.9585 9.033L74.3736 10.4463L63.2803 21.5999C67.5659 27.4952 69.6259 34.7695 69.0781 42.0991C68.5246 49.4831 65.3632 56.4249 60.1704 61.6455C54.9433 66.8965 47.9929 70.0983 40.5917 70.6638C39.8042 70.7238 39.0167 70.7535 38.2292 70.7535Z" fill="#F68812"/>
<path d="M17.5805 77.7605C18.3174 77.012 19.5223 77.012 20.2646 77.7508C21.0069 78.4939 21.0123 79.6984 20.27 80.4421C19.533 81.1852 18.3281 81.1852 17.5858 80.4469C16.8435 79.7038 16.8381 78.5036 17.5805 77.7605Z" fill="#F68812"/>
<path d="M13.68 67.1033C14.419 66.3592 15.6239 66.3571 16.3629 67.0985C17.1127 67.8388 17.1127 69.0423 16.3737 69.7864C15.6347 70.53 14.4297 70.5326 13.6854 69.7918C12.9464 69.0509 12.9464 67.8474 13.68 67.1033Z" fill="#F68812"/>
<path d="M2.20511 74.5713C2.37402 74.5708 2.54295 74.5037 2.66435 74.3816C2.90716 74.1285 2.90713 73.72 2.65904 73.469C2.41623 73.2249 1.99394 73.2265 1.75113 73.4712C1.49776 73.7227 1.49776 74.1311 1.75113 74.3821C1.87254 74.5037 2.03092 74.5713 2.20511 74.5713ZM2.1998 71.7195C2.78571 71.7179 3.33996 71.9467 3.75696 72.3636C4.62263 73.2207 4.62266 74.621 3.76227 75.4823C2.93882 76.3177 1.48196 76.3225 0.647956 75.4918C-0.212438 74.6305 -0.217747 73.2313 0.642647 72.3689C1.05437 71.9514 1.60861 71.7205 2.1998 71.7195Z" fill="#F68812"/>
<path d="M1.43592 59.7562C2.17512 59.0125 3.37895 59.0098 4.11815 59.7514C4.86263 60.4914 4.86794 61.6955 4.12346 62.4391C3.38954 63.1828 2.18566 63.186 1.44118 62.445C0.696703 61.7034 0.696724 60.5004 1.43592 59.7562Z" fill="#F68812"/>
<path d="M74.7304 20.3078C75.4753 19.5644 76.6785 19.561 77.4176 20.3026C78.1625 21.0431 78.1625 22.2465 77.4233 22.991C76.6842 23.7343 75.481 23.7372 74.7419 22.9961C73.9913 22.2551 73.9913 21.0523 74.7304 20.3078Z" fill="#F68812"/>
<path d="M64.02 9.09722C64.762 8.35276 65.9628 8.3505 66.7104 9.09156C67.4524 9.83263 67.4523 11.0364 66.716 11.7803C65.9741 12.5242 64.7676 12.5264 64.0257 11.7859C63.2837 11.0449 63.2837 9.84112 64.02 9.09722Z" fill="#F68812"/>
<path d="M60.5333 0.559303C61.2725 -0.184612 62.4743 -0.186298 63.2191 0.553662C63.9583 1.29532 63.9639 2.49845 63.2191 3.24237C62.4856 3.98628 61.2781 3.98911 60.5389 3.24745C59.7941 2.50693 59.7885 1.30322 60.5333 0.559303Z" fill="#F68812"/>
<path d="M74.2478 9.56417C74.4137 9.5636 74.5738 9.50061 74.6997 9.37405C74.9571 9.12208 74.9571 8.71378 74.6997 8.46238C74.448 8.2127 74.0418 8.20984 73.7901 8.4641C73.5442 8.71664 73.5442 9.12609 73.7901 9.37691C73.916 9.50175 74.0819 9.56475 74.2478 9.56417ZM74.242 6.71406C74.8026 6.71234 75.3747 6.92709 75.8038 7.35601C76.6618 8.21499 76.6675 9.61399 75.8095 10.4764C74.9514 11.3383 73.5499 11.3394 72.6861 10.4827C71.828 9.62373 71.828 8.22415 72.6861 7.36287V7.36231C73.1151 6.93167 73.6757 6.7152 74.242 6.71406Z" fill="#F68812"/>
<path d="M19.3632 38.5183C19.487 38.4144 19.5784 38.2603 19.5946 38.0836C19.6322 37.7298 19.374 37.4125 19.0188 37.3759C18.6745 37.3376 18.3517 37.5929 18.314 37.9501C18.2763 38.3029 18.5346 38.6217 18.8897 38.6589C19.0673 38.6767 19.2287 38.6217 19.3632 38.5183ZM17.5661 36.3034C18.0073 35.9485 18.5776 35.7594 19.1803 35.8219C20.3963 35.9485 21.2734 37.0355 21.1496 38.2458C21.0205 39.4566 19.9336 40.3368 18.7229 40.2118C17.5176 40.0841 16.6406 38.9972 16.7644 37.789L16.759 37.7879C16.8289 37.183 17.1302 36.6595 17.5661 36.3034Z" fill="#F68812"/>
<path d="M21.0693 37.4988L19.7788 36.2087L31.8925 24.0831C35.6237 20.3469 41.9752 20.626 46.0487 24.7038L46.1497 24.8055C46.6097 25.2644 47.3055 26.0457 47.861 26.7893L57.0683 17.575C57.0683 17.575 57.5508 17.7963 57.7023 17.9541C58.1736 18.4237 58.7908 18.4338 58.7908 18.4338L47.5243 29.7123L46.9352 28.6631C46.5592 27.9913 45.5549 26.7932 44.8592 26.0956L44.7638 25.9945C41.3917 22.6278 36.2017 22.3487 33.183 25.3733L21.0693 37.4988Z" fill="#F68812"/>
<path d="M21.1792 63.5236C21.1792 63.5236 20.727 63.2757 20.4126 63.0328C20.0321 62.7369 19.7122 62.4145 19.7122 62.4145L32.3357 49.7765L28.3705 45.7531L40.5748 33.5396C41.0546 33.0588 41.3193 32.4167 41.3193 31.73C41.3193 31.0443 41.0546 30.4022 40.5748 29.9208C39.5767 28.9238 37.9553 28.9238 36.9626 29.9208L30.0691 36.8173L28.7841 35.526L35.6721 28.6306C37.3817 26.922 40.1557 26.922 41.8653 28.6306C42.687 29.4554 43.1447 30.5563 43.1447 31.73C43.1447 32.9037 42.687 34.005 41.8653 34.8298L30.9459 45.7624L34.9056 49.7859L21.1792 63.5236Z" fill="#F68812"/>
<path d="M37.4454 56.8971L36.1585 55.6065L49.3626 42.3878C49.8417 41.907 50.1091 41.2645 50.1091 40.5785C50.1091 39.8925 49.8417 39.25 49.3626 38.7693C48.3653 37.7715 46.7441 37.7715 45.7524 38.7687L38.8494 45.6751L40.6546 47.4849L39.3676 48.7749L36.2755 45.6751L44.4598 37.4792C46.1702 35.7698 48.9447 35.7698 50.6496 37.4787C52.36 39.1881 52.36 41.9689 50.6496 43.6784L37.4454 56.8971Z" fill="#F68812"/>
<path d="M35.8212 58.1433C35.9472 58.0396 36.035 57.8859 36.0569 57.7092C36.0953 57.3548 35.8376 57.0376 35.4813 57.0008C35.1305 56.963 34.8126 57.2187 34.7742 57.5754C34.7413 57.9287 34.999 58.247 35.3443 58.2843C35.5252 58.3019 35.6896 58.2476 35.8212 58.1433ZM34.0287 55.9286C34.4618 55.573 35.0428 55.3842 35.6403 55.4473C36.8517 55.5735 37.7343 56.66 37.6082 57.8711C37.4821 59.0822 36.3968 59.9618 35.1853 59.8367C33.9794 59.7094 33.0968 58.6218 33.2229 57.414V57.4135C33.2832 56.8082 33.5902 56.2853 34.0287 55.9286Z" fill="#F68812"/>
<path d="M30.5586 39.9057L27.4818 36.8289L29.1427 35.1701L30.4279 36.4604L30.063 36.8289L31.8492 38.6159L30.5586 39.9057Z" fill="#F68812"/>
<path d="M46.487 54.3783C46.5259 54.7318 46.8424 54.9898 47.1978 54.9536C47.5587 54.9164 47.8087 54.5967 47.7698 54.2449C47.7365 53.8907 47.4199 53.6339 47.0645 53.6706C46.8868 53.6878 46.7369 53.7779 46.6314 53.9058C46.5259 54.0342 46.4759 54.2021 46.487 54.3783ZM47.3588 56.5068C46.1538 56.6319 45.0654 55.7497 44.9432 54.5417C44.8155 53.3326 45.6929 52.2442 46.9035 52.1169C48.1085 51.9907 49.1969 52.8718 49.3247 54.0825C49.3857 54.6879 49.1969 55.2621 48.8415 55.7008C48.4861 56.1399 47.9641 56.4429 47.3588 56.5068Z" fill="#F68812"/>
<path d="M49.1233 53.6029L47.8396 52.3121L53.9668 46.1806C55.4076 44.7344 56.1475 42.7371 56.041 40.5575C55.9345 38.3442 54.9759 36.2251 53.3446 34.5904L53.2437 34.4888C52.4869 33.7059 52.0776 33.3636 51.2087 32.9388L52.0104 31.2996C53.1035 31.8378 53.6417 32.3114 54.5218 33.1902C54.5218 33.193 54.5274 33.1958 54.533 33.1981L54.6339 33.2997C56.5848 35.2565 57.734 37.8026 57.863 40.4694C57.9919 43.1704 57.0669 45.6564 55.2506 47.4708L49.1233 53.6029Z" fill="#F68812"/>
<path d="M50.1961 31.4355C50.2351 31.7882 50.5585 32.0455 50.9098 32.0098C51.2666 31.9735 51.5175 31.6531 51.4841 31.3009C51.445 30.947 51.1328 30.6897 50.776 30.7271C50.5975 30.745 50.447 30.8343 50.341 30.9627C50.2351 31.0905 50.1849 31.2585 50.1961 31.4355ZM51.0715 33.5627C49.8615 33.6883 48.7742 32.8069 48.6515 31.5979C48.5233 30.3889 49.4043 29.301 50.6087 29.1731C51.8242 29.0476 52.906 29.9295 53.0342 31.1391C53.0955 31.7441 52.9059 32.3185 52.5546 32.7567C52.1978 33.1965 51.6737 33.4996 51.0715 33.5627Z" fill="#F68812"/>
<path d="M17.417 60.0103C17.417 60.0103 16.8822 59.555 16.7148 59.389C16.5527 59.2235 16.1368 58.6417 16.1368 58.6417L23.375 51.3974L24.6984 52.7243L17.417 60.0103Z" fill="#F68812"/>
<path d="M25.5383 51.5594C25.6629 51.4558 25.755 51.3023 25.7713 51.1255C25.8092 50.7713 25.5546 50.454 25.1969 50.4176C24.8501 50.3802 24.5305 50.6346 24.4925 50.9915C24.4546 51.3446 24.7147 51.663 25.0669 51.7005C25.2457 51.7184 25.4082 51.6636 25.5383 51.5594ZM23.7447 49.3452C24.1836 48.9899 24.758 48.8012 25.3595 48.8641C26.5732 48.9899 27.451 50.0775 27.3264 51.2877C27.1964 52.4984 26.1126 53.3782 24.9043 53.254C23.696 53.1265 22.8182 52.0389 22.9428 50.8304L22.9374 50.8299C23.0078 50.2245 23.3058 49.7016 23.7447 49.3452Z" fill="#F68812"/>
<path d="M29.9795 26.9808L27.3728 24.3724L28.657 23.0824L31.2638 25.6902L29.9795 26.9808Z" fill="#F68812"/>
<path d="M26.1423 22.5636C26.1803 22.9168 26.5006 23.1744 26.8534 23.138C27.2063 23.1016 27.4614 22.7815 27.4234 22.4294C27.3854 22.0756 27.0705 21.8186 26.7177 21.8556C26.544 21.873 26.3866 21.9632 26.2834 22.0909C26.1803 22.2191 26.126 22.3865 26.1423 22.5636ZM27.0108 24.6916C25.8057 24.8171 24.7147 23.9352 24.5898 22.7267C24.4704 21.5176 25.3498 20.4291 26.5549 20.302C27.7654 20.1753 28.851 21.0573 28.9759 22.2669C29.041 22.8728 28.851 23.4472 28.4982 23.8857C28.1399 24.3248 27.6188 24.628 27.0108 24.6916Z" fill="#F68812"/>
<path d="M101.793 42.131C103.157 41.0069 103.836 39.4194 103.836 37.3673C103.836 35.2674 103.157 33.6551 101.793 32.5298C100.435 31.4057 98.4753 30.8436 95.9071 30.8436H89.0231V43.8178H95.9071C98.4753 43.8178 100.435 43.2563 101.793 42.131ZM103.759 30.8436C105.637 32.4252 106.576 34.6002 106.576 37.3673C106.576 40.1363 105.637 42.3042 103.759 43.8734C101.882 45.4425 99.29 46.2274 95.9838 46.2274H89.0231V54.4196H86.2836V28.4712H95.9838C99.29 28.4712 101.882 29.262 103.759 30.8436Z" fill="white"/>
<path d="M122.024 51.3254C123.129 50.6951 123.986 49.799 124.602 48.6375C125.218 47.476 125.526 46.1538 125.526 44.6715C125.526 43.1885 125.218 41.8669 124.602 40.7054C123.986 39.5434 123.129 38.6472 122.024 38.0169C120.932 37.3872 119.688 37.0724 118.306 37.0724C116.923 37.0724 115.686 37.3872 114.581 38.0169C113.483 38.6472 112.619 39.5434 111.991 40.7054C111.364 41.8669 111.05 43.1885 111.05 44.6715C111.05 46.1538 111.364 47.476 111.991 48.6375C112.619 49.799 113.483 50.6951 114.581 51.3254C115.686 51.9551 116.923 52.2706 118.306 52.2706C119.688 52.2706 120.932 51.9551 122.024 51.3254ZM113.235 53.3269C111.726 52.4742 110.537 51.2946 109.673 49.7869C108.81 48.2791 108.382 46.5744 108.382 44.6715C108.382 42.7685 108.81 41.0632 109.673 39.5554C110.537 38.0483 111.726 36.8741 113.235 36.0342C114.738 35.1942 116.428 34.7736 118.306 34.7736C120.183 34.7736 121.873 35.1942 123.383 36.0342C124.886 36.8741 126.063 38.0483 126.92 39.5554C127.765 41.0632 128.194 42.7685 128.194 44.6715C128.194 46.5744 127.765 48.2791 126.92 49.7869C126.063 51.2946 124.886 52.4742 123.383 53.3269C121.873 54.1795 120.183 54.6062 118.306 54.6062C116.428 54.6062 114.738 54.1795 113.235 53.3269Z" fill="white"/>
<path d="M137.359 35.7744C138.577 35.1072 140.094 34.7733 141.894 34.7733V37.3314L141.264 37.2946C139.213 37.2946 137.61 37.9251 136.447 39.1848C135.29 40.4446 134.714 42.2129 134.714 44.486V54.4206H132.083V34.9215H134.598V38.74C135.216 37.4306 136.141 36.4417 137.359 35.7744Z" fill="white"/>
<path d="M154.748 53.2336C154.252 53.6785 153.65 54.0186 152.931 54.2532C152.218 54.4878 151.462 54.6057 150.675 54.6057C148.846 54.6057 147.439 54.1111 146.453 53.1225C145.467 52.1345 144.971 50.7381 144.971 48.9334V30.6583H147.6V34.9212H153.489V37.1449H147.6V48.7844C147.6 49.9474 147.885 50.8306 148.455 51.4357C149.019 52.042 149.844 52.3442 150.935 52.3442C152.119 52.3442 153.086 52.011 153.818 51.3432L154.748 53.2336Z" fill="white"/>
<path d="M168.988 51.3247C170.088 50.6941 170.955 49.7983 171.581 48.6371C172.207 47.4754 172.523 46.1534 172.523 44.6706C172.523 43.1879 172.207 41.8659 171.581 40.7041C170.955 39.5424 170.088 38.6465 168.988 38.0159C167.887 37.3866 166.66 37.0713 165.307 37.0713C163.922 37.0713 162.682 37.3866 161.582 38.0159C160.488 38.6465 159.621 39.5424 158.989 40.7041C158.356 41.8659 158.046 43.1879 158.046 44.6706C158.046 46.1534 158.356 47.4754 158.989 48.6371C159.621 49.7983 160.488 50.6941 161.582 51.3247C162.682 51.9547 163.922 52.27 165.307 52.27C166.66 52.27 167.887 51.9547 168.988 51.3247ZM175.116 34.9212V54.42H172.599V50.5643C171.809 51.8749 170.765 52.8752 169.469 53.5672C168.172 54.2599 166.711 54.6055 165.079 54.6055C163.258 54.6055 161.601 54.1852 160.121 53.345C158.635 52.5055 157.477 51.331 156.643 49.823C155.795 48.3161 155.378 46.5978 155.378 44.6706C155.378 42.7434 155.795 41.0258 156.643 39.517C157.477 38.0109 158.635 36.8427 160.121 36.0146C161.601 35.1871 163.258 34.7725 165.079 34.7725C166.66 34.7725 168.09 35.1004 169.361 35.7551C170.632 36.4103 171.669 37.3676 172.492 38.6281V34.9212H175.116Z" fill="white"/>
<path d="M182.395 53.1221C181.447 52.1342 180.972 50.7632 180.972 49.0073V26.9136H183.6V48.7847C183.6 49.9472 183.869 50.8299 184.414 51.4355C184.952 52.0418 185.766 52.344 186.856 52.344C187.548 52.344 188.144 52.233 188.637 52.0104L188.817 54.198C188.054 54.4694 187.266 54.6054 186.445 54.6054C184.696 54.6054 183.344 54.1107 182.395 53.1221Z" fill="white"/>
<path d="M210.794 51.3251C211.893 50.6947 212.755 49.7987 213.381 48.6372C214.012 47.4758 214.328 46.1536 214.328 44.6713C214.328 43.1884 214.012 41.8662 213.381 40.7047C212.755 39.5426 211.893 38.6466 210.794 38.0162C209.695 37.3864 208.465 37.0721 207.109 37.0721C205.727 37.0721 204.483 37.3864 203.384 38.0162C202.292 38.6466 201.423 39.5426 200.798 40.7047C200.166 41.8662 199.85 43.1884 199.85 44.6713C199.85 46.1536 200.166 47.4758 200.798 48.6372C201.423 49.7987 202.292 50.6947 203.384 51.3251C204.483 51.9549 205.727 52.2698 207.109 52.2698C208.465 52.2698 209.695 51.9549 210.794 51.3251ZM216.921 26.9142V54.4201H214.401V50.5642C213.611 51.8752 212.571 52.8759 211.275 53.5677C209.978 54.26 208.517 54.6059 206.885 54.6059C205.062 54.6059 203.404 54.1856 201.923 53.345C200.442 52.5057 199.284 51.3317 198.442 49.8231C197.599 48.3164 197.185 46.5976 197.185 44.6713C197.185 42.7437 197.599 41.0255 198.442 39.5176C199.284 38.0116 200.442 36.8428 201.923 36.0147C203.404 35.1873 205.062 34.7729 206.885 34.7729C208.465 34.7729 209.886 35.1003 211.163 35.7552C212.439 36.4107 213.473 37.3679 214.289 38.6282V26.9142H216.921Z" fill="white"/>
<path d="M234.451 51.3255C235.555 50.6952 236.416 49.799 237.028 48.6374C237.646 47.4759 237.949 46.1535 237.949 44.6714C237.949 43.1887 237.646 41.8663 237.028 40.7047C236.416 39.5432 235.555 38.647 234.451 38.0167C233.355 37.3872 232.111 37.072 230.732 37.072C229.353 37.072 228.109 37.3872 227.012 38.0167C225.909 38.647 225.048 39.5432 224.416 40.7047C223.79 41.8663 223.474 43.1887 223.474 44.6714C223.474 46.1535 223.79 47.4759 224.416 48.6374C225.048 49.799 225.909 50.6952 227.012 51.3255C228.109 51.955 229.353 52.2702 230.732 52.2702C232.111 52.2702 233.355 51.955 234.451 51.3255ZM225.66 53.3273C224.153 52.4742 222.963 51.2945 222.102 49.7869C221.234 48.2792 220.804 46.5743 220.804 44.6714C220.804 42.7679 221.234 41.063 222.102 39.5553C222.963 38.0484 224.153 36.874 225.66 36.0337C227.16 35.194 228.855 34.7732 230.732 34.7732C232.608 34.7732 234.297 35.194 235.804 36.0337C237.31 36.874 238.487 38.0484 239.342 39.5553C240.196 41.063 240.62 42.7679 240.62 44.6714C240.62 46.5743 240.196 48.2792 239.342 49.7869C238.487 51.2945 237.31 52.4742 235.804 53.3273C234.297 54.1798 232.608 54.606 230.732 54.606C228.855 54.606 227.16 54.1798 225.66 53.3273Z" fill="white"/>
<path d="M269.732 50.3793C270.787 49.6876 271.321 48.6 271.321 47.1172C271.321 44.2253 269.212 42.7794 264.994 42.7794H256.474V51.4169H264.994C267.089 51.4169 268.671 51.071 269.732 50.3793ZM256.474 31.4736V39.777H264.064C265.965 39.777 267.429 39.4249 268.449 38.7207C269.475 38.0158 269.989 36.9844 269.989 35.6253C269.989 34.2669 269.475 33.2342 268.449 32.5299C267.429 31.8257 265.965 31.4736 264.064 31.4736H256.474ZM273.763 43.2433C274.63 44.3434 275.06 45.7331 275.06 47.4138C275.06 49.6626 274.214 51.3925 272.528 52.6038C270.835 53.815 268.372 54.4199 265.139 54.4199H252.77V28.4713H264.397C267.359 28.4713 269.649 29.0644 271.265 30.2499C272.882 31.4361 273.693 33.08 273.693 35.1801C273.693 36.54 273.374 37.7144 272.743 38.7026C272.119 39.6909 271.272 40.4438 270.211 40.9639C271.716 41.3834 272.902 42.1439 273.763 43.2433Z" fill="white"/>
<path d="M278.801 34.7726H282.357V54.42H278.801V34.7726ZM278.857 30.324C278.403 29.8785 278.172 29.3358 278.172 28.693C278.172 28.051 278.403 27.5013 278.857 27.0432C279.318 26.5865 279.891 26.3571 280.576 26.3571C281.274 26.3571 281.847 26.5747 282.301 27.0069C282.755 27.4391 282.986 27.9762 282.986 28.6189C282.986 29.2861 282.755 29.8484 282.301 30.3058C281.847 30.7632 281.274 30.9912 280.576 30.9912C279.891 30.9912 279.318 30.7688 278.857 30.324Z" fill="white"/>
<path d="M297.984 53.2714C297.467 53.7164 296.823 54.0558 296.058 54.2896C295.287 54.5249 294.501 54.6418 293.687 54.6418C291.712 54.6418 290.183 54.1111 289.093 53.0482C288.003 51.986 287.465 50.4654 287.465 48.4885V30.4729H291.018V34.7733H296.646V37.7011H291.018V48.3404C291.018 49.404 291.288 50.2189 291.818 50.7871C292.349 51.3561 293.107 51.6396 294.09 51.6396C295.181 51.6396 296.108 51.3313 296.872 50.7127L297.984 53.2714Z" fill="white"/>
<path d="M303.333 53.3446C301.765 52.4798 300.535 51.2874 299.65 49.7673C298.758 48.248 298.312 46.5242 298.312 44.5959C298.312 42.669 298.758 40.9451 299.65 39.4251C300.535 37.905 301.765 36.7191 303.333 35.8665C304.901 35.014 306.685 34.587 308.684 34.587C310.461 34.587 312.051 34.9463 313.446 35.6628C314.841 36.3799 315.92 37.4168 316.683 38.777L313.978 40.5189C313.367 39.5799 312.597 38.8757 311.684 38.4055C310.77 37.936 309.756 37.7013 308.648 37.7013C307.368 37.7013 306.21 37.9857 305.189 38.5538C304.16 39.1234 303.362 39.932 302.779 40.9819C302.196 42.0331 301.908 43.2371 301.908 44.5959C301.908 45.9805 302.196 47.1982 302.779 48.248C303.362 49.2986 304.16 50.1072 305.189 50.6753C306.21 51.2449 307.368 51.5286 308.648 51.5286C309.756 51.5286 310.77 51.2939 311.684 50.8244C312.597 50.3549 313.367 49.6507 313.978 48.711L316.683 50.4161C315.92 51.7763 314.841 52.8204 313.446 53.5484C312.051 54.2778 310.461 54.6422 308.684 54.6422C306.685 54.6422 304.901 54.2101 303.333 53.3446Z" fill="white"/>
<path d="M331.291 50.6576C332.294 50.0777 333.078 49.2616 333.642 48.2109C334.213 47.161 334.499 45.9556 334.499 44.5962C334.499 43.2376 334.213 42.0329 333.642 40.9822C333.078 39.9323 332.294 39.1235 331.291 38.5538C330.294 37.9856 329.167 37.7011 327.899 37.7011C326.647 37.7011 325.512 37.9856 324.516 38.5538C323.512 39.1235 322.729 39.9323 322.15 40.9822C321.564 42.0329 321.278 43.2376 321.278 44.5962C321.278 45.9556 321.564 47.161 322.15 48.2109C322.729 49.2616 323.512 50.0777 324.516 50.6576C325.512 51.2376 326.647 51.5287 327.899 51.5287C329.167 51.5287 330.294 51.2376 331.291 50.6576ZM322.648 53.3449C321.088 52.4804 319.872 51.2875 318.993 49.7675C318.121 48.2483 317.682 46.5245 317.682 44.5962C317.682 42.6686 318.121 40.9448 318.993 39.4256C319.872 37.9049 321.088 36.7194 322.648 35.8666C324.201 35.0139 325.951 34.5872 327.899 34.5872C329.855 34.5872 331.598 35.0139 333.144 35.8666C334.689 36.7194 335.898 37.9049 336.769 39.4256C337.648 40.9448 338.088 42.6686 338.088 44.5962C338.088 46.5245 337.648 48.2483 336.769 49.7675C335.898 51.2875 334.689 52.4804 333.144 53.3449C331.598 54.21 329.855 54.6419 327.899 54.6419C325.951 54.6419 324.201 54.21 322.648 53.3449Z" fill="white"/>
<path d="M341.533 34.7731H345.079V54.4202H341.533V34.7731ZM341.585 30.3243C341.128 29.8794 340.899 29.337 340.899 28.6943C340.899 28.0516 341.128 27.5019 341.585 27.0437C342.042 26.5869 342.609 26.3581 343.302 26.3581C343.995 26.3581 344.57 26.5751 345.027 27.0075C345.484 27.4399 345.713 27.9771 345.713 28.6198C345.713 29.2868 345.484 29.8491 345.027 30.3066C344.57 30.7641 343.995 30.9921 343.302 30.9921C342.609 30.9921 342.042 30.7693 341.585 30.3243Z" fill="white"/>
<path d="M366.798 36.7567C368.264 38.2024 369 40.3221 369 43.1142V54.4204H365.446V43.5219C365.446 41.6189 364.995 40.1852 364.078 39.2216C363.162 38.258 361.854 37.7759 360.156 37.7759C358.225 37.7759 356.707 38.3385 355.595 39.4623C354.483 40.5876 353.935 42.2003 353.935 44.3004V54.4204H350.373V34.7731H353.784V37.739C354.498 36.7266 355.467 35.9473 356.692 35.4042C357.909 34.8596 359.299 34.5881 360.855 34.5881C363.349 34.5881 365.333 35.311 366.798 36.7567Z" fill="white"/>
</svg>
